<svg viewBox="0 0 23 23" fill="none" xmlns="http://www.w3.org/2000/svg"><rect fill="white"/><path d="M21.203 14.914V5.391c0-.991-.806-1.797-1.797-1.797h-1.168v.898a.898.898 0 1 1-1.797 0v-.898h-4.087v.898a.898.898 0 1 1-1.797 0v-.898H6.514v.898a.898.898 0 1 1-1.797 0v-.898H3.594c-.991 0-1.797.806-1.797 1.797v14.015c0 .991.806 1.797 1.797 1.797h15.812c.991 0 1.797-.806 1.797-1.797a.898.898 0 1 1 1.797 0A3.6 3.6 0 0 1 19.406 23H3.594A3.6 3.6 0 0 1 0 19.406V5.391a3.6 3.6 0 0 1 3.594-3.594h1.123V.898a.898.898 0 1 1 1.797 0v.899h4.043V.898a.898.898 0 1 1 1.797 0v.899h4.087V.898a.898.898 0 1 1 1.797 0v.899h1.168A3.6 3.6 0 0 1 23 5.39v9.523a.898.898 0 1 1-1.797 0m-1.617-6.11v5.391c0 .991-.806 1.797-1.797 1.797h-1.752v1.797a1.8 1.8 0 0 1-1.797 1.797H5.256a1.8 1.8 0 0 1-1.797-1.797V8.805c0-.991.806-1.797 1.797-1.797h12.533a1.8 1.8 0 0 1 1.797 1.797m-3.549 0v1.798h1.752V8.805zm-1.797 0h-1.797v1.798h1.797zm-3.594 5.391v-1.797H8.85v1.797zM8.85 15.992v1.797h1.797v-1.797zm-3.594-1.797h1.797v-1.797H5.256zm5.39-3.593V8.805H8.85v1.797zm-5.39-1.797v1.797h1.797V8.805zm0 8.984h1.797v-1.797H5.256zm8.984-1.797h-1.797v1.797h1.797zm0-1.797v-1.797h-1.797v1.797zm3.55 0v-1.797h-1.753v1.797z" fill="black"/></svg>