<svg xmlns="http://www.w3.org/2000/svg" xmlns:xlink="http://www.w3.org/1999/xlink" viewBox="0 0 50 50">
<path d="M17.857,37.357A5.359,5.359,0,0,1,23.214,32h3.571a5.359,5.359,0,0,1,5.357,5.357V76.643A5.359,5.359,0,0,1,26.786,82H23.214a5.359,5.359,0,0,1-5.357-5.357ZM0,58.786a5.359,5.359,0,0,1,5.357-5.357H8.929a5.359,5.359,0,0,1,5.357,5.357V76.643A5.359,5.359,0,0,1,8.929,82H5.357A5.359,5.359,0,0,1,0,76.643ZM41.071,39.143h3.571A5.359,5.359,0,0,1,50,44.5V76.643A5.359,5.359,0,0,1,44.643,82H41.071a5.359,5.359,0,0,1-5.357-5.357V44.5A5.359,5.359,0,0,1,41.071,39.143Z" transform="translate(0 -32)"/>
</svg>