<svg xmlns="http://www.w3.org/2000/svg" xmlns:xlink="http://www.w3.org/1999/xlink" width="50" height="50" viewBox="0 0 50 50"><defs><style>.a{clip-path:url(#b);}.b{fill:#fff;}</style><clipPath id="b"><rect width="50" height="50"/></clipPath></defs><g id="a" class="a"><rect class="b" width="50" height="50"/><path d="M25,50A25,25,0,1,0,0,25,25,25,0,0,0,25,50ZM21.094,32.813h2.344v-6.25H21.094a2.344,2.344,0,0,1,0-4.687h4.688a2.338,2.338,0,0,1,2.344,2.344v8.594h.781a2.344,2.344,0,0,1,0,4.688H21.094a2.344,2.344,0,0,1,0-4.687ZM25,18.75a3.125,3.125,0,1,1,3.125-3.125A3.122,3.122,0,0,1,25,18.75Z"/></g></svg>