<svg xmlns="http://www.w3.org/2000/svg" xmlns:xlink="http://www.w3.org/1999/xlink" viewBox="0 0 50 50"><defs><style>.a{clip-path:url(#b);}.b{fill:#fff;}</style></defs><g class="a"><rect class="b"/><path d="M25 50A25 25 0 1 0 0 25a25 25 0 0 0 25 25m-8.418-33.857a5.48 5.48 0 0 1 5.156-3.643h5.693A6.166 6.166 0 0 1 30.5 24.014l-3.156 1.806a2.344 2.344 0 0 1-4.687-.039v-1.318a2.34 2.34 0 0 1 1.182-2.031l4.326-2.48a1.474 1.474 0 0 0-.732-2.754h-5.695a.77.77 0 0 0-.732.518l-.039.117a2.341 2.341 0 0 1-4.414-1.562l.039-.117Zm11.543 18.232A3.125 3.125 0 1 1 25 31.25a3.12 3.12 0 0 1 3.125 3.125"/></g></svg>