<svg xmlns="http://www.w3.org/2000/svg" xmlns:xlink="http://www.w3.org/1999/xlink" width="50" height="50" viewBox="0 0 50 50"><defs><style>.a{clip-path:url(#b);}.b{fill:#fff;}</style><clipPath id="b"><rect width="50" height="50"/></clipPath></defs><g id="a" class="a"><rect class="b" width="50" height="50"/><path d="M25,50A25,25,0,1,0,0,25,25,25,0,0,0,25,50ZM17.09,17.09a2.334,2.334,0,0,1,3.311,0l4.59,4.59,4.59-4.59A2.341,2.341,0,0,1,32.891,20.4L28.3,24.99l4.59,4.59a2.341,2.341,0,0,1-3.311,3.311L24.99,28.3l-4.59,4.59A2.341,2.341,0,0,1,17.09,29.58l4.59-4.59L17.09,20.4A2.334,2.334,0,0,1,17.09,17.09Z"/></g></svg>