<svg xmlns="http://www.w3.org/2000/svg" xmlns:xlink="http://www.w3.org/1999/xlink" width="50" height="50" viewBox="0 0 50 50"><defs><style>.a{clip-path:url(#b);}.b{fill:#fff;}</style><clipPath id="b"><rect width="50" height="50"/></clipPath></defs><g id="a" class="a"><rect class="b" width="50" height="50"/><path d="M21.875,0a6.256,6.256,0,0,0-6.25,6.25V28.125a6.256,6.256,0,0,0,6.25,6.25H43.75A6.256,6.256,0,0,0,50,28.125V6.25A6.256,6.256,0,0,0,43.75,0ZM6.25,15.625A6.256,6.256,0,0,0,0,21.875V43.75A6.256,6.256,0,0,0,6.25,50H28.125a6.256,6.256,0,0,0,6.25-6.25V37.5h-6.25v6.25H6.25V21.875H12.5v-6.25Z"/></g></svg>