<svg viewBox="0 0 21 25" fill="none" xmlns="http://www.w3.org/2000/svg"><rect fill="white"/><path d="M13.204 25H3.898A3.906 3.906 0 0 1 0 21.094V7.86a3.906 3.906 0 0 1 3.898-3.906h9.306a3.906 3.906 0 0 1 3.898 3.906v13.233A3.906 3.906 0 0 1 13.204 25M3.898 5.908a1.953 1.953 0 0 0-1.949 1.953v13.233c0 1.077.874 1.953 1.949 1.953h9.306a1.953 1.953 0 0 0 1.95-1.953V7.86a1.953 1.953 0 0 0-1.95-1.953zM21 18.652V3.906A3.906 3.906 0 0 0 17.102 0H6.285a.975.975 0 0 0 0 1.953h10.817c1.075 0 1.949.876 1.949 1.953v14.746a.976.976 0 1 0 1.949 0" fill="black"/></svg>