<svg viewBox="0 0 24 24" fill="none" xmlns="http://www.w3.org/2000/svg"><rect fill="white"/><path d="M24 17.109v3.187a3.754 3.754 0 0 1-3.75 3.75H3.75A3.754 3.754 0 0 1 0 20.296V17.11a.938.938 0 0 1 1.875 0v3.187c0 1.034.841 1.875 1.875 1.875h16.5a1.877 1.877 0 0 0 1.875-1.875V17.11a.938.938 0 0 1 1.875 0m-13.945 2.358a2.8 2.8 0 0 0 1.992.829 2.8 2.8 0 0 0 1.992-.829l4.27-4.295a1.83 1.83 0 0 0 .392-1.999 1.82 1.82 0 0 0-1.686-1.126h-1.03a.937.937 0 1 0 0 1.874h.923l-4.199 4.224a.93.93 0 0 1-.662.276.93.93 0 0 1-.663-.276l-4.199-4.223h3.924a1.877 1.877 0 0 0 1.875-1.876V.985a.937.937 0 1 0-1.875 0v11.063H7.08a1.82 1.82 0 0 0-1.686 1.126 1.83 1.83 0 0 0 .392 2z" fill="black"/></svg>