<svg xmlns="http://www.w3.org/2000/svg" xmlns:xlink="http://www.w3.org/1999/xlink" width="50" height="50" viewBox="0 0 50 50"><defs><style>.a{clip-path:url(#b);}.b{fill:#fff;}</style><clipPath id="b"><rect width="50" height="50"/></clipPath></defs><g id="a" class="a"><rect class="b" width="50" height="50"/><path d="M24.994,39.994a14.926,14.926,0,0,0,10.633-4.422l-23.3-18.359a19.472,19.472,0,0,0-2.328,7.781A15,15,0,0,0,24.994,39.994ZM39.463,28.955a15.007,15.007,0,0,0,.531-3.961C39.994,17.87,29.822,4.5,26.979.909a2.429,2.429,0,0,0-1.914-.914h-.141A2.429,2.429,0,0,0,23.01.909C21.7,2.573,18.8,6.346,16.073,10.62L3.026.393A1.875,1.875,0,0,0,.714,3.346L46.963,39.6a1.875,1.875,0,0,0,2.312-2.953ZM17.495,26.244a6.248,6.248,0,0,0,6.25,6.25,1.25,1.25,0,1,1,0,2.5,8.745,8.745,0,0,1-8.75-8.75,1.25,1.25,0,0,1,2.5,0Z" transform="translate(0.006 5.006)"/></g></svg>