<svg xmlns="http://www.w3.org/2000/svg" xmlns:xlink="http://www.w3.org/1999/xlink" width="50" height="50" viewBox="0 0 50 50"><defs><style>.a{clip-path:url(#b);}.b{fill:#fff;}</style><clipPath id="b"><rect width="50" height="50"/></clipPath></defs><g id="a" class="a"><rect class="b" width="50" height="50"/><path d="M18.75,50A18.755,18.755,0,0,1,0,31.25C0,22.344,12.715,5.635,16.27,1.143A3.037,3.037,0,0,1,18.662,0h.176A3.037,3.037,0,0,1,21.23,1.143C24.785,5.635,37.5,22.344,37.5,31.25A18.755,18.755,0,0,1,18.75,50ZM9.375,32.813a1.563,1.563,0,0,0-3.125,0A10.932,10.932,0,0,0,17.188,43.75a1.563,1.563,0,0,0,0-3.125A7.81,7.81,0,0,1,9.375,32.813Z" transform="translate(6)"/></g></svg>