<svg viewBox="0 0 21 21" fill="none" xmlns="http://www.w3.org/2000/svg"><rect fill="white"/><path d="M5.614 20.125c-.416 0-.823-.155-1.13-.447l-3.76-3.573A2.3 2.3 0 0 1 0 14.437c0-.63.257-1.222.725-1.667l3.758-3.573a1.66 1.66 0 0 1 1.75-.328c.599.238.986.792.986 1.41v3.374h12.96c.454 0 .821.351.821.784s-.367.785-.82.785H7.218c-.904 0-1.64-.704-1.64-1.569v-3.284l-3.696 3.514a.76.76 0 0 0 0 1.109l3.696 3.514v-.773c0-.434.367-.785.82-.785s.82.351.82.785v.862c0 .62-.386 1.173-.985 1.411-.201.08-.411.119-.62.119m9.774-8.75c-.209 0-.419-.039-.62-.119-.598-.238-.985-.792-.985-1.41v-.863c0-.434.367-.785.82-.785s.82.351.82.785v.773l3.696-3.514a.76.76 0 0 0 0-1.109L15.422 1.62v3.284c0 .865-.736 1.57-1.64 1.57H.82c-.453 0-.82-.352-.82-.785s.367-.785.82-.785h12.962V1.53c0-.62.386-1.173.985-1.411a1.66 1.66 0 0 1 1.75.328l3.758 3.573c.468.445.725 1.037.725 1.668 0 .63-.258 1.222-.725 1.667l-3.758 3.573a1.64 1.64 0 0 1-1.13.447" fill="black"/></svg>