<svg xmlns="http://www.w3.org/2000/svg" xmlns:xlink="http://www.w3.org/1999/xlink" width="50" height="50" viewBox="0 0 50 50"><defs><style>.a{clip-path:url(#b);}.b{fill:#fff;}</style><clipPath id="b"><rect width="50" height="50"/></clipPath></defs><g id="a" class="a"><rect class="b" width="50" height="50"/><path d="M3.026.393A1.875,1.875,0,0,0,.714,3.346L46.963,39.6a1.875,1.875,0,0,0,2.312-2.953l-8.219-6.437a31.126,31.126,0,0,0,6.242-9.25,2.484,2.484,0,0,0,0-1.922A31.11,31.11,0,0,0,40.033,8.792a21.948,21.948,0,0,0-15.039-6.3,21.336,21.336,0,0,0-13.226,4.75Zm14.4,11.281A11.252,11.252,0,0,1,34.885,25.362L31.869,23a7.508,7.508,0,0,0-6.875-10.508,6.15,6.15,0,0,0-.656.031,4.984,4.984,0,0,1,.141,4.68l-7.055-5.531ZM34.854,34.955l-5.719-4.5a11.251,11.251,0,0,1-15.39-10.461,11.636,11.636,0,0,1,.109-1.578l-7.367-5.8a29.555,29.555,0,0,0-3.8,6.422,2.484,2.484,0,0,0,0,1.922A31.11,31.11,0,0,0,9.956,31.2a21.948,21.948,0,0,0,15.039,6.3A20.536,20.536,0,0,0,34.854,34.955Z" transform="translate(0.006 5.006)"/></g></svg>