<svg xmlns="http://www.w3.org/2000/svg" xmlns:xlink="http://www.w3.org/1999/xlink" viewBox="0 0 50 50"><defs><style>.a{clip-path:url(#b);}.b{fill:#fff;}</style></defs><g class="a"><rect class="b"/><path d="M3.032 5.399A1.875 1.875 0 0 0 .72 8.352l46.249 36.254a1.875 1.875 0 0 0 2.312-2.953l-8.219-6.437a31.1 31.1 0 0 0 6.242-9.25 2.48 2.48 0 0 0 0-1.922 31.1 31.1 0 0 0-7.265-10.246A21.95 21.95 0 0 0 25 7.498a21.34 21.34 0 0 0-13.226 4.75Zm14.4 11.281a11.252 11.252 0 0 1 17.459 13.688l-3.016-2.362A7.508 7.508 0 0 0 25 17.498a6 6 0 0 0-.656.031 4.98 4.98 0 0 1 .141 4.68l-7.055-5.531ZM34.86 39.961l-5.719-4.5A11.25 11.25 0 0 1 13.751 25a12 12 0 0 1 .109-1.578l-7.367-5.8a29.6 29.6 0 0 0-3.8 6.422 2.48 2.48 0 0 0 0 1.922 31.1 31.1 0 0 0 7.269 10.24 21.95 21.95 0 0 0 15.039 6.3 20.54 20.54 0 0 0 9.859-2.545"/></g></svg>