<svg xmlns="http://www.w3.org/2000/svg" xmlns:xlink="http://www.w3.org/1999/xlink" width="50" height="50" viewBox="0 0 50 50"><defs><style>.a{clip-path:url(#b);}.b{fill:#fff;}</style><clipPath id="b"><rect width="50" height="50"/></clipPath></defs><g id="a" class="a"><rect class="b" width="50" height="50"/><path d="M25.021,32A24.424,24.424,0,0,0,8.3,39,34.391,34.391,0,0,0,.24,50.375a2.76,2.76,0,0,0,0,2.135A34.391,34.391,0,0,0,8.3,63.89a24.424,24.424,0,0,0,16.717,7,24.424,24.424,0,0,0,16.717-7A34.652,34.652,0,0,0,49.81,52.51a2.76,2.76,0,0,0,0-2.135A34.565,34.565,0,0,0,41.738,39,24.424,24.424,0,0,0,25.021,32Zm12.5,19.443a12.5,12.5,0,1,1-12.5-12.5A12.5,12.5,0,0,1,37.52,51.443Zm-12.5-5.555a5.56,5.56,0,0,1-5.555,5.555,5.441,5.441,0,0,1-2.743-.729c-.017.243-.035.477-.035.729a8.333,8.333,0,1,0,8.333-8.333,6.833,6.833,0,0,0-.729.035A5.53,5.53,0,0,1,25.021,45.888Z" transform="translate(-0.025 -26)"/></g></svg>