<svg xmlns="http://www.w3.org/2000/svg" xmlns:xlink="http://www.w3.org/1999/xlink" viewBox="0 0 50 50"><defs><style>.a{clip-path:url(#b);}.b{fill:#fff;}</style></defs><g class="a"><rect class="b"/><path d="M24.996 6a24.42 24.42 0 0 0-16.721 7 34.4 34.4 0 0 0-8.06 11.375 2.76 2.76 0 0 0 0 2.135 34.4 34.4 0 0 0 8.06 11.38 24.42 24.42 0 0 0 16.717 7 24.42 24.42 0 0 0 16.717-7 34.65 34.65 0 0 0 8.076-11.38 2.76 2.76 0 0 0 0-2.135A34.6 34.6 0 0 0 41.713 13a24.42 24.42 0 0 0-16.717-7m12.5 19.443a12.5 12.5 0 1 1-12.5-12.5 12.5 12.5 0 0 1 12.499 12.5Zm-12.5-5.555a5.56 5.56 0 0 1-5.555 5.555 5.44 5.44 0 0 1-2.743-.729c-.017.243-.035.477-.035.729a8.333 8.333 0 1 0 8.333-8.333 7 7 0 0 0-.729.035 5.53 5.53 0 0 1 .729 2.743"/></g></svg>