<svg xmlns="http://www.w3.org/2000/svg" xmlns:xlink="http://www.w3.org/1999/xlink" width="50" height="50" viewBox="0 0 50 50"><defs><style>.a{clip-path:url(#b);}.b{fill:#fff;}</style><clipPath id="b"><rect width="50" height="50"/></clipPath></defs><g id="a" class="a"><rect class="b" width="50" height="50"/><path d="M6.25,0A6.256,6.256,0,0,0,0,6.25v37.5A6.256,6.256,0,0,0,6.25,50h25a6.256,6.256,0,0,0,6.25-6.25V15.625H25A3.122,3.122,0,0,1,21.875,12.5V0ZM25,0V12.5H37.5ZM21.094,22.656v9.971L24.121,29.6a2.341,2.341,0,0,1,3.311,3.311L20.4,39.941a2.334,2.334,0,0,1-3.311,0L10.059,32.91A2.341,2.341,0,0,1,13.369,29.6L16.4,32.627V22.656a2.344,2.344,0,0,1,4.688,0Z" transform="translate(6)"/></g></svg>