<svg xmlns="http://www.w3.org/2000/svg" xmlns:xlink="http://www.w3.org/1999/xlink" width="50" height="50" viewBox="0 0 50 50"><defs><style>.a{clip-path:url(#b);}.b{fill:#fff;}</style><clipPath id="b"><rect width="50" height="50"/></clipPath></defs><g id="a" class="a"><rect class="b" width="50" height="50"/><path d="M61.667,16.273a2.212,2.212,0,0,1-.625,2.4l-4.229,3.848a18.617,18.617,0,0,1,0,4.962l4.229,3.848a2.212,2.212,0,0,1,.625,2.4,24.212,24.212,0,0,1-1.543,3.35l-.459.791a24.855,24.855,0,0,1-2.159,3.047,2.212,2.212,0,0,1-2.393.664l-5.441-1.729a18.8,18.8,0,0,1-4.3,2.481L44.154,47.92a2.207,2.207,0,0,1-1.778,1.739,25.375,25.375,0,0,1-8.3,0A2.207,2.207,0,0,1,32.3,47.92l-1.221-5.577a18.8,18.8,0,0,1-4.3-2.481L21.347,41.6a2.229,2.229,0,0,1-2.393-.664A24.854,24.854,0,0,1,16.8,37.888l-.459-.791a24.211,24.211,0,0,1-1.543-3.35,2.212,2.212,0,0,1,.625-2.4L19.647,27.5A19.163,19.163,0,0,1,19.481,25a18.9,18.9,0,0,1,.166-2.481l-4.229-3.848a2.212,2.212,0,0,1-.625-2.4,24.211,24.211,0,0,1,1.543-3.35l.459-.791a24.855,24.855,0,0,1,2.159-3.047,2.212,2.212,0,0,1,2.393-.664l5.441,1.729a18.8,18.8,0,0,1,4.3-2.481L32.306,2.09A2.207,2.207,0,0,1,34.084.352,24.214,24.214,0,0,1,38.235,0a25.239,25.239,0,0,1,4.151.342A2.207,2.207,0,0,1,44.164,2.08l1.221,5.577a18.8,18.8,0,0,1,4.3,2.481L55.123,8.41a2.229,2.229,0,0,1,2.393.664,24.855,24.855,0,0,1,2.159,3.047l.459.791a24.211,24.211,0,0,1,1.543,3.35ZM38.235,32.819A7.814,7.814,0,1,0,30.421,25,7.812,7.812,0,0,0,38.235,32.819Z" transform="translate(-13.662)"/></g></svg>