<svg xmlns="http://www.w3.org/2000/svg" xmlns:xlink="http://www.w3.org/1999/xlink" width="50" height="50" viewBox="0 0 50 50"><defs><style>.a{clip-path:url(#b);}.b{fill:#fff;}</style><clipPath id="b"><rect width="50" height="50"/></clipPath></defs><g id="a" class="a"><rect class="b" width="50" height="50"/><path d="M49.987,22.181a2.8,2.8,0,0,1-2.778,2.787H44.431l.061,13.907a6.371,6.371,0,0,1-.043.7v1.4a3.472,3.472,0,0,1-3.473,3.473H39.587c-.1,0-.191,0-.286-.009-.122.009-.243.009-.365.009h-4.9a3.472,3.472,0,0,1-3.473-3.473v-7.64a2.775,2.775,0,0,0-2.778-2.778H22.224a2.775,2.775,0,0,0-2.778,2.778v7.64a3.472,3.472,0,0,1-3.473,3.473H11.121c-.13,0-.26-.009-.391-.017-.1.009-.208.017-.313.017H9.029a3.472,3.472,0,0,1-3.473-3.473V31.253a2.275,2.275,0,0,1,.009-.243V24.967H2.778A2.744,2.744,0,0,1,0,22.181,2.822,2.822,0,0,1,.868,20.1L23.127.695A2.5,2.5,0,0,1,25.037,0,2.884,2.884,0,0,1,26.86.608L49.032,20.1A2.378,2.378,0,0,1,49.987,22.181Z" transform="translate(0 2.776)"/></g></svg>