<svg viewBox="0 0 210 236" version="1.1" xmlns="http://www.w3.org/2000/svg" xmlns:xlink="http://www.w3.org/1999/xlink" xml:space="preserve" xmlns:serif="http://www.serif.com/" style="fill-rule:evenodd;clip-rule:evenodd;stroke-linejoin:round;stroke-miterlimit:2;"><path d="M256 334.967a8.533 8.533 0 0 0 8.533-8.533v-69.631l91.547-49.842c5.93-3.229 5.929-11.761 0-14.99l-96-52.266a8.53 8.53 0 0 0-8.16 0c-102.683 55.914-96.538 52.404-97.76 53.55a8.58 8.58 0 0 0-2.693 6.259V313.6c0 3.125 1.708 6 4.453 7.494l96 52.267a8.53 8.53 0 0 0 8.16 0l96-52.267a8.53 8.53 0 0 0 4.453-7.494v-61.867a8.533 8.533 0 0 0-17.066 0v56.797L256 356.151l-87.467-47.621V204.537L256 156.915l78.155 42.552L256 242.018l-49.426-26.911a8.536 8.536 0 0 0-11.576 3.415 8.536 8.536 0 0 0 3.415 11.575l49.054 26.706v69.631a8.533 8.533 0 0 0 8.533 8.533" style="fill-rule:nonzero;" transform="matrix(1,0,0,1,-151.467,-138.665)"/></svg>