<svg viewBox="0 0 88 54" xmlns="http://www.w3.org/2000/svg"><path d="M82 2.845a10.76 10.76 0 0 0-5.72-2.8c-2.68-.35-5.39 1.43-7.23 2.62s-5.29 4.67-6.77 5.67-5.12 2-11 5.59-29.17 18.46-29.17 18.46l6.05.06-26.98 13.97h2.69l-3.87 3a8.68 8.68 0 0 0 6.3-.92v.83s32.09-12.65 38.32-9.37l-3.76 1.08c.33 0 6.44.39 6.44.39a8.61 8.61 0 0 0 3.88 6.24c3.68 2.43 3.74 3.75 3.74 3.75s-1.9.78-1.9 1.77a17.4 17.4 0 0 1 10.38 0c3.379 1.056-.2-1-2.76-1.77s-5.06-3.49-6.31-5a7.01 7.01 0 0 1-1-6.9c.88-2.28 4-3.55 10.31-6.83 7.49-3.87 9.19-6.77 10.24-9s2.63-6.7 3.5-8.8a11.6 11.6 0 0 1 3.6-5 47 47 0 0 1 6.18-2.76c2.124-.77-3.91-3.29-5.16-4.28"/></svg>