<svg xmlns="http://www.w3.org/2000/svg" xmlns:xlink="http://www.w3.org/1999/xlink" viewBox="0 0 50 50">
<path class="b" d="M1744.417,173.579h-2.987c.032-2.337.069-5.493.031-6.077a9.479,9.479,0,0,0-8.679-8.541c-.287-.023-.575-.036-.854-.039a9.71,9.71,0,0,0-6.553,2.32,9.2,9.2,0,0,0-3.226,6.123c-.043.534-.038,3.858-.033,6.215h-2.973a5.606,5.606,0,0,0-5.708,5.5v24.346a5.606,5.606,0,0,0,5.708,5.5h25.274a5.606,5.606,0,0,0,5.708-5.5V179.077A5.606,5.606,0,0,0,1744.417,173.579Zm-7.046,0h-11.177c.026-2.844.167-6.916.831-8a5.491,5.491,0,0,1,4.625-2.688c.068,0,.135,0,.2,0a5.463,5.463,0,0,1,4.669,2.636C1737.235,166.68,1737.376,170.593,1737.371,173.579Z" transform="translate(-1706.436 -158.921)"/>
</svg>