<svg xmlns="http://www.w3.org/2000/svg" xmlns:xlink="http://www.w3.org/1999/xlink" viewBox="0 0 50 50">
<path d="M2381.464,154.543h-2.62c.563-.538.988-.953,1.137-1.115a8.714,8.714,0,0,0,.128-11.513c-.179-.2-.366-.4-.554-.587a9.3,9.3,0,0,0-6.1-2.72,9.551,9.551,0,0,0-6.527,2.054c-.614.506-5.638,5.4-6.077,5.816l2.743,2.7.28-.271c1.653-1.6,6.08-5.874,7.635-6.259a5.4,5.4,0,0,1,5.051,1.2c.048.044.094.088.139.132a4.907,4.907,0,0,1,1.317,4.859c-.31,1.183-2.713,3.712-4.761,5.7h-16.134a5.4,5.4,0,0,0-5.5,5.3v23.454a5.4,5.4,0,0,0,5.5,5.3h24.348a5.4,5.4,0,0,0,5.5-5.3V159.84A5.4,5.4,0,0,0,2381.464,154.543Zm-9.454,21.6a.706.706,0,0,1-.7.793h-4.037a.707.707,0,0,1-.7-.793l.569-4.618a2.97,2.97,0,0,1-.939-2.154,3.091,3.091,0,0,1,6.179,0,2.971,2.971,0,0,1-.938,2.154Z" transform="translate(-2344.618 -138.59)"/>
</svg>