<svg xmlns="http://www.w3.org/2000/svg" xmlns:xlink="http://www.w3.org/1999/xlink" width="50" height="50" viewBox="0 0 50 50"><defs><style>.a{clip-path:url(#b);}.b{fill:#fff;}</style><clipPath id="b"><rect width="50" height="50"/></clipPath></defs><g id="a" class="a"><rect class="b" width="50" height="50"/><path d="M13.889,32a5.561,5.561,0,0,0-5.556,5.556V57a5.561,5.561,0,0,0,5.556,5.556H44.444A5.561,5.561,0,0,0,50,57V37.556A5.561,5.561,0,0,0,44.444,32Zm20.486,9.262,8.333,12.5A2.083,2.083,0,0,1,40.972,57H17.361a2.083,2.083,0,0,1-1.623-3.385l5.556-6.944a2.077,2.077,0,0,1,3.247,0l1.5,1.875L30.9,41.253a2.092,2.092,0,0,1,3.472.009Zm-12.153-.929a2.778,2.778,0,1,1-2.778-2.778A2.775,2.775,0,0,1,22.222,40.333ZM4.167,39.639a2.083,2.083,0,0,0-4.167,0V59.083A11.807,11.807,0,0,0,11.806,70.889H39.583a2.083,2.083,0,1,0,0-4.167H11.806a7.639,7.639,0,0,1-7.639-7.639Z" transform="translate(0 -26)"/></g></svg>