<svg xmlns="http://www.w3.org/2000/svg" xmlns:xlink="http://www.w3.org/1999/xlink" width="50" height="50" viewBox="0 0 50 50"><defs><style>.a{clip-path:url(#b);}.b{fill:#fff;}</style><clipPath id="b"><rect width="50" height="50"/></clipPath></defs><g id="a" class="a"><rect class="b" width="50" height="50"/><path d="M44.444,32H13.889a5.555,5.555,0,0,0-5.556,5.556V57a5.555,5.555,0,0,0,5.556,5.556H44.444A5.555,5.555,0,0,0,50,57V37.556A5.558,5.558,0,0,0,44.444,32Zm1.389,25a1.391,1.391,0,0,1-1.389,1.389H43.056L33.568,44.422a1.409,1.409,0,0,0-1.163-.616,1.387,1.387,0,0,0-1.155.618L25.8,52.593l-1.94-2.659a1.37,1.37,0,0,0-1.12-.573,1.39,1.39,0,0,0-1.122.571l-6.343,8.457H13.889A1.391,1.391,0,0,1,12.5,57V37.556a1.391,1.391,0,0,1,1.389-1.389H44.444a1.391,1.391,0,0,1,1.389,1.389ZM19.444,38.944a2.778,2.778,0,1,0,2.778,2.778A2.778,2.778,0,0,0,19.444,38.944ZM39.583,70.889H10.417A10.427,10.427,0,0,1,0,60.472V39.639a2.083,2.083,0,0,1,4.167,0V60.472a6.257,6.257,0,0,0,6.25,6.25H39.583a2.083,2.083,0,1,1,0,4.167Z" transform="translate(0 -26)"/></g></svg>