<svg xmlns="http://www.w3.org/2000/svg" xmlns:xlink="http://www.w3.org/1999/xlink" width="50" height="50" viewBox="0 0 50 50"><defs><style>.a{clip-path:url(#b);}.b{fill:#fff;}</style><clipPath id="b"><rect width="50" height="50"/></clipPath></defs><g id="a" class="a"><rect class="b" width="50" height="50"/><path d="M40.117,22.536l1.1-1.1-3.314-3.314-6.071-6.071L28.523,8.733l-1.1,1.1-2.209,2.209L5.736,31.52a8.669,8.669,0,0,0-2.17,3.656L.106,46.946a2.318,2.318,0,0,0,.6,2.317,2.367,2.367,0,0,0,2.317.6L14.779,46.4a8.669,8.669,0,0,0,3.656-2.17L37.908,24.755ZM15.649,39l-.89,2.219a4.123,4.123,0,0,1-1.3.675L5.815,44.14l2.248-7.635a3.75,3.75,0,0,1,.675-1.3l2.219-.89v3.128a1.569,1.569,0,0,0,1.564,1.564h3.128ZM35.464,1.783,34.056,3.2,31.847,5.41l-1.114,1.1,3.314,3.314L40.117,15.9l3.314,3.314,1.1-1.1L46.745,15.9l1.417-1.417a6.254,6.254,0,0,0,0-8.847L44.32,1.783a6.254,6.254,0,0,0-8.847,0ZM30.83,18.206,16.753,32.282a1.562,1.562,0,1,1-2.209-2.209L28.621,16a1.562,1.562,0,1,1,2.209,2.209Z" transform="translate(-0.009 0.05)"/></g></svg>