<svg viewBox="0 0 21 21" fill="none" xmlns="http://www.w3.org/2000/svg"><rect fill="white"/><path d="M20.28 3.18 17.818.72a2.465 2.465 0 0 0-3.48-.003L2.097 12.961a.8.8 0 0 0-.138.176v.001h-.001q0 .002-.002.003l-.01.017v.003a.8.8 0 0 0-.074.186L.03 19.96a.82.82 0 0 0 1.014 1.009l6.627-1.883a.82.82 0 0 0 .569-.577l.012-.046.005-.019c.21-.872 0-1.82-.56-2.532a2.8 2.8 0 0 0-.71-.642l7.248-7.268a.82.82 0 0 0-1.162-1.158l-7.22 7.24a3 3 0 0 0-.708-.76 3.2 3.2 0 0 0-.69-.402l9.301-9.302 3.62 3.619-7.623 7.606a.82.82 0 1 0 1.159 1.162l9.36-9.341A2.44 2.44 0 0 0 21 4.924a2.44 2.44 0 0 0-.72-1.745M4.67 15.667c0 .453.368.82.821.82.472 0 .76.239.917.439.165.209.263.47.284.732L2.003 18.99l1.304-4.683c.294.022.601.135.845.32.237.18.519.507.519 1.04M19.117 5.503l-.578.577-3.62-3.62.581-.581a.82.82 0 0 1 1.16 0l2.46 2.46a.82.82 0 0 1-.004 1.164" fill="black"/></svg>