<svg version="1.1" xmlns="http://www.w3.org/2000/svg" xmlns:xlink="http://www.w3.org/1999/xlink" x="0px" y="0px" viewBox="0 0 13 17" style="enable-background:new 0 0 13 17;" xml:space="preserve"><path d="M6.5 0C2.9 0 0 2.9 0 6.5q0 1.05.3 2.1c.2.4.7.7 1.2.5.4-.1.7-.6.5-1.1-.1-.6-.2-1.1-.2-1.7.1-2.4 2-4.4 4.4-4.5 2.7-.1 4.9 2 4.9 4.6 0 2.5-1.9 4.5-4.4 4.6 0 0-.9.1-1.3.1-.2 0-.4.1-.5.1s-.1 0-.1-.1l.2-.8.8-3.8c.1-.5-.2-1-.7-1.1s-1 .4-1.1.9c0 0-2 9.4-2 9.5-.1.5.2 1 .7 1.1s1-.2 1.1-.7c-.1-.2.2-1.4.2-1.4.2-1 1-1.7 1.9-1.8.2 0 1-.1 1-.1 3.3-.3 6-3 6-6.4C12.9 2.9 10 0 6.5 0"/><path class="st0" d="M11 14.9c-.6-.1-1.1.2-1.3.8-.1.6.2 1.2.8 1.3s1.2-.2 1.3-.8c.1-.7-.2-1.2-.8-1.3"/></svg>