<svg xmlns="http://www.w3.org/2000/svg" xmlns:xlink="http://www.w3.org/1999/xlink" viewBox="0 0 58 50"><rect fill="#fff"/><path d="M14.063 6.25a4.69 4.69 0 0 0-4.687 4.688V27a6.8 6.8 0 0 1-1.494 4.15 7.816 7.816 0 1 0 12.363.01 6.8 6.8 0 0 1-1.494-4.15V10.938a4.69 4.69 0 0 0-4.688-4.688M3.125 10.938a10.938 10.938 0 0 1 21.875 0V27a.4.4 0 0 0 .02.059 1.2 1.2 0 0 0 .166.273 14.063 14.063 0 1 1-22.246 0 1.2 1.2 0 0 0 .166-.273.4.4 0 0 0 .02-.059Zm15.625 25a4.688 4.688 0 1 1-6.25-4.424V19.531a1.563 1.563 0 0 1 3.125 0v11.983a4.7 4.7 0 0 1 3.125 4.424"/><path data-name="Контур 31" d="M38.565 38.227V0H35.84v38.227h-5.435L37.205 50l6.8-11.773Z"/><path data-name="Контур 32" d="M52.565 38.227V0H49.84v38.227h-5.435L51.205 50l6.8-11.773Z"/></svg>