<svg viewBox="0 0 23 21" fill="none" xmlns="http://www.w3.org/2000/svg"><rect fill="white"/><path d="M7.187 21a.7.7 0 0 1-.327-.08c-.462-.23-.69-.895-.51-1.486l1.87-6.104c.389-1.27.586-2.606.586-3.97V4.59c0-1.265-.806-2.295-1.797-2.295H3.594c-.991 0-1.797 1.03-1.797 2.295v4.36c0 1.266.806 2.296 1.797 2.296H5.48c.497 0 .899.513.899 1.147s-.402 1.148-.899 1.148H3.594C1.612 13.54 0 11.48 0 8.95V4.59C0 2.058 1.612 0 3.594 0h3.414c1.981 0 3.594 2.059 3.594 4.59v4.77c0 1.65-.24 3.268-.71 4.805L8.024 20.27c-.138.453-.478.73-.837.73m13.236-.73 1.868-6.106c.47-1.537.709-3.154.709-4.805V4.59C23 2.06 21.388 0 19.406 0h-3.414c-1.982 0-3.594 2.059-3.594 4.59v4.36c0 2.532 1.613 4.59 3.594 4.59h1.887c.496 0 .898-.513.898-1.147s-.402-1.147-.898-1.147h-1.887c-.99 0-1.797-1.03-1.797-2.295V4.59c0-1.266.806-2.296 1.797-2.296h3.414c.991 0 1.797 1.03 1.797 2.295V9.36c0 1.364-.197 2.7-.586 3.97l-1.868 6.105c-.18.59.048 1.256.51 1.487a.7.7 0 0 0 .327.079c.359 0 .698-.277.837-.73" fill="black"/></svg>