<svg xmlns="http://www.w3.org/2000/svg" xmlns:xlink="http://www.w3.org/1999/xlink" width="50" height="50" viewBox="0 0 50 50"><defs><style>.a{clip-path:url(#b);}.b{fill:#fff;}</style><clipPath id="b"><rect width="50" height="50"/></clipPath></defs><g id="a" class="a"><rect class="b" width="50" height="50"/><path d="M3.034,9.321H34.271V3.074A3.131,3.131,0,0,1,39.611.858l9.371,9.371a3.111,3.111,0,0,1,0,4.412l-9.371,9.371a3.131,3.131,0,0,1-5.34-2.216V15.569H3.034a3.124,3.124,0,0,1,0-6.248Zm43.733,24.99a3.124,3.124,0,0,1,0,6.248H15.529v6.248a3.131,3.131,0,0,1-5.34,2.216L.818,39.651a3.111,3.111,0,0,1,0-4.412l9.371-9.371a3.131,3.131,0,0,1,5.34,2.216v6.248H46.766Z" transform="translate(0.1 0.056)"/></g></svg>