<svg xmlns="http://www.w3.org/2000/svg" xmlns:xlink="http://www.w3.org/1999/xlink" width="50" height="50" viewBox="0 0 50 50"><defs><style>.a{clip-path:url(#b);}.b{fill:#fff;}</style><clipPath id="b"><rect width="50" height="50"/></clipPath></defs><g id="a" class="a"><rect class="b" width="50" height="50"/><path d="M29.219,43.518a16.664,16.664,0,0,1,23.469-.1L48.4,47.695a2.5,2.5,0,0,0,1.771,4.271H63.5a2.494,2.494,0,0,0,2.5-2.5V36.132a2.5,2.5,0,0,0-4.271-1.771L57.4,38.695A23.33,23.33,0,0,0,19,47.528a3.331,3.331,0,1,0,6.281,2.219A16.5,16.5,0,0,1,29.219,43.518ZM16,61.132V74.466a2.5,2.5,0,0,0,4.271,1.771L24.6,71.9A23.356,23.356,0,0,0,63.01,63.08a3.331,3.331,0,1,0-6.281-2.219,16.5,16.5,0,0,1-3.937,6.229,16.664,16.664,0,0,1-23.469.1L33.6,62.9a2.5,2.5,0,0,0-1.771-4.271H18.5A2.494,2.494,0,0,0,16,61.132Z" transform="translate(-16 -29.962)"/></g></svg>