<svg xmlns="http://www.w3.org/2000/svg" xmlns:xlink="http://www.w3.org/1999/xlink" width="50" height="50" viewBox="0 0 50 50"><defs><style>.a{clip-path:url(#b);}.b{fill:#fff;}</style><clipPath id="b"><rect width="50" height="50"/></clipPath></defs><g id="a" class="a"><rect class="b" width="50" height="50"/><path d="M0,35.571A3.568,3.568,0,0,1,3.571,32,46.421,46.421,0,0,1,50,78.429a3.571,3.571,0,0,1-7.143,0A39.286,39.286,0,0,0,3.571,39.143,3.568,3.568,0,0,1,0,35.571ZM14.286,74.857a7.143,7.143,0,1,1-7.143-7.143A7.149,7.149,0,0,1,14.286,74.857ZM3.571,46.286A32.137,32.137,0,0,1,35.714,78.429a3.571,3.571,0,0,1-7.143,0,25,25,0,0,0-25-25,3.571,3.571,0,0,1,0-7.143Z" transform="translate(0 -32)"/></g></svg>