<svg viewBox="0 0 21 21" fill="none" xmlns="http://www.w3.org/2000/svg"><rect fill="white"/><path d="M20.18 14.438a.82.82 0 0 0 .82-.82V3.362a.82.82 0 0 0-.24-.58L18.217.24a.82.82 0 0 0-.58-.24H3.28A3.285 3.285 0 0 0 0 3.281V17.72A3.285 3.285 0 0 0 3.281 21H17.72A3.285 3.285 0 0 0 21 17.719a.82.82 0 1 0-1.64 0c0 .904-.737 1.64-1.641 1.64H3.28c-.904 0-1.64-.736-1.64-1.64V3.28c0-.904.736-1.64 1.64-1.64v3.773a2.464 2.464 0 0 0 2.461 2.461h7.793a2.464 2.464 0 0 0 2.461-2.46V1.64h1.3l2.063 2.062v9.914c0 .453.368.82.82.82m-5.824-9.024c0 .452-.369.82-.82.82H5.741a.82.82 0 0 1-.82-.82V1.641h6.152v2.132a.82.82 0 1 0 1.64 0V1.641h1.641zM4.102 9.516a.82.82 0 0 0-.82.82v6.562c0 .454.366.82.82.82h12.796a.82.82 0 0 0 .82-.82v-6.562a.82.82 0 0 0-.82-.82zm11.976 6.562H4.922v-4.922h11.156z" fill="black"/></svg>