<svg xmlns="http://www.w3.org/2000/svg" xmlns:xlink="http://www.w3.org/1999/xlink" width="50" height="50" viewBox="0 0 50 50"><defs><style>.a{clip-path:url(#b);}.b{fill:#fff;}</style><clipPath id="b"><rect width="50" height="50"/></clipPath></defs><g id="a" class="a"><rect class="b" width="50" height="50"/><path d="M7.65.477a2.341,2.341,0,0,0-3.086.2L.658,4.579A2.351,2.351,0,0,0,.453,7.665L8.265,17.82a2.345,2.345,0,0,0,1.855.918H15.4L26.047,29.382a7.542,7.542,0,0,0,1.4,8.75L38.381,49.068a3.13,3.13,0,0,0,4.424,0l6.25-6.25a3.13,3.13,0,0,0,0-4.424L38.117,27.458a7.558,7.558,0,0,0-8.75-1.4L18.723,15.418V10.145a2.331,2.331,0,0,0-.918-1.855ZM1.918,38.669a6.629,6.629,0,1,0,9.374,9.374l11.5-11.5a10.714,10.714,0,0,1-.352-6.357l-6.025-6.025ZM49.972,14.051a14.2,14.2,0,0,0-.312-2.978,1.374,1.374,0,0,0-2.363-.586l-6.24,6.24a1.568,1.568,0,0,1-1.1.459H34.348a1.567,1.567,0,0,1-1.562-1.562V10.008a1.568,1.568,0,0,1,.459-1.1l6.24-6.24A1.374,1.374,0,0,0,38.9.3,14.363,14.363,0,0,0,35.91-.011,14.065,14.065,0,0,0,21.848,14.051v.078l8.33,8.33a10.656,10.656,0,0,1,10.156,2.8l1.533,1.533A14.079,14.079,0,0,0,49.972,14.051ZM10.13,42.174a2.344,2.344,0,1,1-2.344-2.344A2.338,2.338,0,0,1,10.13,42.174Z" transform="translate(0.028 0.012)"/></g></svg>