<svg viewBox="0 0 25 25" fill="none" xmlns="http://www.w3.org/2000/svg"><rect fill="white"/><path d="M12.554 25h-.108c-1.28 0-2.342-.96-2.472-2.233l-.003-.028a1.73 1.73 0 0 0-1.14-1.463 1.74 1.74 0 0 0-1.776.245 2.47 2.47 0 0 1-3.344-.193l-.065-.067a2.49 2.49 0 0 1-.168-3.279l.006-.008c.404-.51.5-1.192.251-1.78l-.044-.106a1.73 1.73 0 0 0-1.43-1.06l-.028-.002A2.48 2.48 0 0 1 0 12.554v-.108c0-1.28.96-2.342 2.233-2.472l.028-.003a1.73 1.73 0 0 0 1.432-1.065l.032-.077a1.74 1.74 0 0 0-.245-1.773l-.01-.013a2.48 2.48 0 0 1 .17-3.324l.079-.078a2.48 2.48 0 0 1 3.324-.171l.004.003a1.75 1.75 0 0 0 1.856.221 1.74 1.74 0 0 0 1.068-1.433l.003-.028A2.48 2.48 0 0 1 12.446 0h.108c1.28 0 2.342.96 2.472 2.233a1.78 1.78 0 0 0 1.093 1.47l.052.022a1.81 1.81 0 0 0 1.813-.227l.043-.034a2.49 2.49 0 0 1 3.282.205l.022.021a2.49 2.49 0 0 1 .205 3.283l-.034.042a1.81 1.81 0 0 0-.227 1.814l.013.032c.259.62.825 1.047 1.48 1.113A2.48 2.48 0 0 1 25 12.446v.108c0 1.28-.96 2.342-2.233 2.472l-.028.003a1.73 1.73 0 0 0-1.43 1.06l-.04.096a1.73 1.73 0 0 0 .259 1.769l.002.003c.806.992.733 2.42-.17 3.324l-.079.078a2.48 2.48 0 0 1-3.324.171l-.011-.009a1.74 1.74 0 0 0-1.777-.245l-.076.031c-.591.243-1 .792-1.065 1.432l-.002.028A2.48 2.48 0 0 1 12.554 25m-4.412-5.818a3.7 3.7 0 0 1 1.507.319 3.68 3.68 0 0 1 2.266 3.04l.002.028a.53.53 0 0 0 .53.478h.107a.53.53 0 0 0 .529-.478l.002-.028a3.68 3.68 0 0 1 2.266-3.04l.062-.026a3.69 3.69 0 0 1 3.764.53l.012.01a.53.53 0 0 0 .711-.037l.078-.078a.53.53 0 0 0 .038-.71l-.002-.002a3.68 3.68 0 0 1-.512-3.84 3.68 3.68 0 0 1 3.04-2.263l.027-.002a.53.53 0 0 0 .478-.53v-.107a.53.53 0 0 0-.478-.529 3.76 3.76 0 0 1-3.083-2.304l-.011-.026a3.77 3.77 0 0 1 .486-3.77l.033-.043a.533.533 0 0 0-.044-.703l-.021-.021a.53.53 0 0 0-.702-.044l-.044.034a3.77 3.77 0 0 1-3.77.485l-.041-.017a3.73 3.73 0 0 1-2.29-3.077.53.53 0 0 0-.528-.478h-.108a.53.53 0 0 0-.528.478l-.003.028A3.69 3.69 0 0 1 9.645 5.5l-.058.024a3.69 3.69 0 0 1-3.771-.536l-.005-.003a.53.53 0 0 0-.711.036l-.078.078a.53.53 0 0 0-.037.71l.01.014a3.69 3.69 0 0 1 .53 3.763l-.025.06a3.68 3.68 0 0 1-3.041 2.268l-.028.002a.53.53 0 0 0-.478.53v.107a.53.53 0 0 0 .478.529l.028.002a3.68 3.68 0 0 1 3.074 2.347 3.71 3.71 0 0 1-.519 3.755l-.006.008a.53.53 0 0 0 .036.702l.065.067c.193.197.5.215.714.041a3.67 3.67 0 0 1 2.319-.823m6.069-1.281a.976.976 0 1 0-.59-1.862A3.715 3.715 0 0 1 8.79 12.5a3.715 3.715 0 0 1 3.71-3.71 3.715 3.715 0 0 1 3.562 4.754.977.977 0 1 0 1.875.548A5.67 5.67 0 0 0 12.5 6.836 5.67 5.67 0 0 0 6.836 12.5a5.67 5.67 0 0 0 7.375 5.4" fill="black"/></svg>