<svg viewBox="0 0 24 23" fill="none" xmlns="http://www.w3.org/2000/svg"><rect fill="white"/><path d="M18.31 23a1.93 1.93 0 0 1-1.101-.347l-5.028-3.465a.32.32 0 0 0-.364 0l-5.028 3.465a1.92 1.92 0 0 1-2.231-.021 1.87 1.87 0 0 1-.713-2.095l1.777-5.816a.31.31 0 0 0-.11-.34l-4.76-3.635a1.87 1.87 0 0 1-.645-2.128 1.9 1.9 0 0 1 1.82-1.292h5.941c.141 0 .26-.078.301-.2l2.007-5.835A1.9 1.9 0 0 1 12 0a1.9 1.9 0 0 1 1.822 1.291l2.008 5.835c.041.122.16.2.3.2h5.945c.835 0 1.548.507 1.819 1.292a1.87 1.87 0 0 1-.645 2.127l-4.762 3.636a.31.31 0 0 0-.11.34l.156.51a.926.926 0 0 1-.626 1.157.94.94 0 0 1-1.169-.62l-.156-.51a2.17 2.17 0 0 1 .76-2.345l4.762-3.636c.022-.016.021-.02.02-.036-.002-.03-.018-.053-.025-.057q.002-.002-.024-.003H16.13a2.18 2.18 0 0 1-2.076-1.457l-2.007-5.835c-.008-.024-.012-.034-.048-.034s-.04.01-.048.034L9.944 7.723a2.18 2.18 0 0 1-2.076 1.458H1.926q-.025.002-.024.003c-.006.003-.023.027-.025.057-.001.016-.002.02.02.037l4.76 3.635a2.17 2.17 0 0 1 .76 2.345L5.64 21.074c-.007.024-.011.035.02.056.028.021.037.015.057.001l5.028-3.465a2.22 2.22 0 0 1 2.507 0l5.028 3.465c.021.014.03.02.059 0 .03-.022.026-.033.019-.057l-.261-.854a.926.926 0 0 1 .626-1.156.94.94 0 0 1 1.169.62l.26.853a1.87 1.87 0 0 1-.712 2.095 1.93 1.93 0 0 1-1.13.368" fill="black"/></svg>