<svg enable-background="new 0 0 24 24" viewBox="0 0 24 24" xmlns="http://www.w3.org/2000/svg"><path d="M21.5 24h-19A2.5 2.5 0 0 1 0 21.5v-19C0 1.121 1.121 0 2.5 0h19C22.879 0 24 1.121 24 2.5v19c0 1.379-1.121 2.5-2.5 2.5M2.5 1C1.673 1 1 1.673 1 2.5v19c0 .827.673 1.5 1.5 1.5h19c.827 0 1.5-.673 1.5-1.5v-19c0-.827-.673-1.5-1.5-1.5z"/><path d="M14.5 19h-5c-.827 0-1.5-.673-1.5-1.5v-11C8 5.673 8.673 5 9.5 5h5c.827 0 1.5.673 1.5 1.5v11c0 .827-.673 1.5-1.5 1.5m-5-13c-.275 0-.5.225-.5.5v11c0 .275.225.5.5.5h5c.275 0 .5-.225.5-.5v-11c0-.275-.225-.5-.5-.5z"/><path d="M13.5 16h-3a.5.5 0 0 1 0-1h3a.5.5 0 0 1 0 1"/></svg>