<svg viewBox="0 0 20 21" fill="none" xmlns="http://www.w3.org/2000/svg"><rect fill="white"/><path d="M18.379 6.534a.77.77 0 0 1 .25.612l-.468 6.808c-.031.452-.47.797-.98.77-.511-.028-.9-.417-.869-.87l.408-5.938H3.28l.68 9.902c.06.864.871 1.541 1.848 1.541h8.384c.977 0 1.789-.677 1.848-1.54.031-.453.47-.797.98-.77.511.028.9.417.869.87-.12 1.727-1.743 3.081-3.697 3.081H5.808c-1.954 0-3.578-1.354-3.697-3.082l-.74-10.772a.77.77 0 0 1 .25-.612 1 1 0 0 1 .675-.259h15.408c.256 0 .5.094.675.258M20 3.812c0 .453-.415.82-.926.82H.926c-.512 0-.926-.367-.926-.82s.414-.82.926-.82h4.923C6.015 1.316 7.605 0 9.537 0h.926c1.932 0 3.522 1.317 3.689 2.991h4.922c.511 0 .926.368.926.82m-12.285-.82h4.57c-.155-.767-.913-1.351-1.822-1.351h-.926c-.91 0-1.667.584-1.822 1.35" fill="black"/></svg>