<svg xmlns="http://www.w3.org/2000/svg" xmlns:xlink="http://www.w3.org/1999/xlink" viewBox="0 0 50 50"><defs><style>.a{clip-path:url(#b);}.b{fill:#fff;}</style></defs><g class="a"><rect class="b"/><path d="M33.065 0h14.516A2.414 2.414 0 0 1 50 2.419v14.516a2.421 2.421 0 0 1-4.133 1.714l-3.931-3.931-8.77 8.77a2.41 2.41 0 0 1-3.417 0l-3.226-3.226a2.41 2.41 0 0 1 0-3.417l8.77-8.77-3.942-3.942A2.421 2.421 0 0 1 33.065 0m-16.13 50H2.419A2.414 2.414 0 0 1 0 47.581V33.065a2.421 2.421 0 0 1 4.133-1.714l3.931 3.931 8.77-8.77a2.41 2.41 0 0 1 3.417 0l3.226 3.226a2.41 2.41 0 0 1 0 3.417l-8.77 8.77 3.931 3.931a2.421 2.421 0 0 1-1.714 4.133Z"/></g></svg>