<svg viewBox="0 0 25 25" fill="none" xmlns="http://www.w3.org/2000/svg"><rect fill="white"/><path d="M23.017 15.87c-.829-.728-1.833-1.357-2.987-1.87a.977.977 0 0 0-.793 1.785c.973.432 1.81.954 2.49 1.552a3.9 3.9 0 0 1 1.32 2.927v1.806a.98.98 0 0 1-.977.977H2.93a.98.98 0 0 1-.977-.977v-1.806c0-1.124.481-2.19 1.32-2.927.986-.867 3.86-2.884 9.227-2.884 3.985 0 7.227-3.242 7.227-7.226S16.485 0 12.5 0 5.273 3.242 5.273 7.227a7.22 7.22 0 0 0 2.825 5.727c-3.14.69-5.095 2.02-6.115 2.916A5.85 5.85 0 0 0 0 20.264v1.806A2.933 2.933 0 0 0 2.93 25h19.14A2.933 2.933 0 0 0 25 22.07v-1.806a5.85 5.85 0 0 0-1.983-4.394M7.227 7.227A5.28 5.28 0 0 1 12.5 1.953a5.28 5.28 0 0 1 5.273 5.274A5.28 5.28 0 0 1 12.5 12.5a5.28 5.28 0 0 1-5.273-5.273" fill="black"/></svg>