<svg viewBox="0 0 25 25" fill="none" xmlns="http://www.w3.org/2000/svg"><rect fill="white"/><path d="M25 20.117c0 .54-.437.977-.977.977h-2.93v2.93a.977.977 0 1 1-1.952 0v-2.93h-2.93a.976.976 0 1 1 0-1.953h2.93v-2.93a.976.976 0 1 1 1.953 0v2.93h2.93c.539 0 .976.437.976.976m-7.812 3.906c0 .54-.438.977-.977.977H2.93A2.933 2.933 0 0 1 0 22.07v-1.806c0-1.686.723-3.287 1.983-4.394 1.02-.897 2.974-2.226 6.115-2.916a7.22 7.22 0 0 1-2.825-5.727C5.273 3.242 8.515 0 12.5 0s7.227 3.242 7.227 7.227c0 3.984-3.242 7.226-7.227 7.226-5.366 0-8.241 2.017-9.228 2.884a3.9 3.9 0 0 0-1.319 2.927v1.806c0 .539.438.977.977.977h13.28c.54 0 .977.437.977.976M12.5 12.5a5.28 5.28 0 0 0 5.273-5.273A5.28 5.28 0 0 0 12.5 1.953a5.28 5.28 0 0 0-5.273 5.274A5.28 5.28 0 0 0 12.5 12.5" fill="black"/></svg>