<svg xmlns="http://www.w3.org/2000/svg" xmlns:xlink="http://www.w3.org/1999/xlink" width="50" height="50" viewBox="0 0 50 50"><defs><style>.a{clip-path:url(#b);}.b{fill:#fff;}</style><clipPath id="b"><rect width="50" height="50"/></clipPath></defs><g id="a" class="a"><rect class="b" width="50" height="50"/><path d="M-710.575,162.085a20.381,20.381,0,0,0-20.358,20.358A20.381,20.381,0,0,0-710.575,202.8a20.381,20.381,0,0,0,20.358-20.358A20.381,20.381,0,0,0-710.575,162.085Zm0,33.148a2.563,2.563,0,0,1-2.563-2.563,2.563,2.563,0,0,1,2.563-2.563,2.563,2.563,0,0,1,2.563,2.563A2.563,2.563,0,0,1-710.575,195.233Zm-17.858-14.7a18.026,18.026,0,0,1,17.858-16.161,18.026,18.026,0,0,1,17.858,16.161Zm17.858-23.09a25,25,0,0,0-25,25,25,25,0,0,0,25,25,25,25,0,0,0,25-25A25,25,0,0,0-710.575,157.443Zm15.284,40.284a21.473,21.473,0,0,1-15.284,6.331,21.473,21.473,0,0,1-15.284-6.331,21.473,21.473,0,0,1-6.331-15.284,21.474,21.474,0,0,1,6.331-15.284,21.473,21.473,0,0,1,15.284-6.331,21.473,21.473,0,0,1,15.284,6.331,21.473,21.473,0,0,1,6.331,15.284A21.473,21.473,0,0,1-695.291,197.727Zm-18.942-27.3a2.644,2.644,0,0,1,.446-1.408,3.437,3.437,0,0,1,1.3-1.182,4.1,4.1,0,0,1,2-.468,4.265,4.265,0,0,1,1.873.391,3.036,3.036,0,0,1,1.255,1.064,2.612,2.612,0,0,1,.443,1.463,2.262,2.262,0,0,1-.252,1.09,3.337,3.337,0,0,1-.6.808q-.348.34-1.247,1.145a5.049,5.049,0,0,0-.4.4,1.615,1.615,0,0,0-.223.315,1.538,1.538,0,0,0-.113.285q-.04.143-.121.5a.814.814,0,0,1-.87.761.89.89,0,0,1-.64-.249.977.977,0,0,1-.26-.739,2.719,2.719,0,0,1,.19-1.064,2.7,2.7,0,0,1,.5-.79,11.582,11.582,0,0,1,.849-.808q.468-.409.677-.618a2.091,2.091,0,0,0,.351-.465,1.122,1.122,0,0,0,.143-.556,1.293,1.293,0,0,0-.435-.988,1.59,1.59,0,0,0-1.123-.4,1.553,1.553,0,0,0-1.185.406,3.233,3.233,0,0,0-.644,1.2q-.249.827-.944.827a.927.927,0,0,1-.691-.289A.883.883,0,0,1-714.233,170.422Zm3.57,8.019a1.151,1.151,0,0,1-.779-.289,1.013,1.013,0,0,1-.333-.809,1.042,1.042,0,0,1,.322-.775,1.087,1.087,0,0,1,.79-.315,1.054,1.054,0,0,1,.775.315,1.055,1.055,0,0,1,.315.775,1.021,1.021,0,0,1-.329.8A1.111,1.111,0,0,1-710.663,178.441Z" transform="translate(735.575 -157.443)"/></g></svg>