<svg xmlns="http://www.w3.org/2000/svg" xmlns:xlink="http://www.w3.org/1999/xlink" width="50" height="50" viewBox="0 0 50 50"><defs><style>.a{clip-path:url(#b);}.b{fill:#fff;}</style><clipPath id="b"><rect width="50" height="50"/></clipPath></defs><g id="a" class="a"><rect class="b" width="50" height="50"/><path d="M6.25,32A6.256,6.256,0,0,0,0,38.25V69.5a6.256,6.256,0,0,0,6.25,6.25h37.5A6.256,6.256,0,0,0,50,69.5V47.625a6.256,6.256,0,0,0-6.25-6.25H7.813a1.563,1.563,0,0,1,0-3.125H43.75a3.125,3.125,0,0,0,0-6.25ZM40.625,61.688a3.125,3.125,0,1,1,3.125-3.125A3.122,3.122,0,0,1,40.625,61.688Z" transform="translate(0 -29)"/></g></svg>