<svg viewBox="0 0 21 20" fill="none" xmlns="http://www.w3.org/2000/svg"><rect fill="white"/><path d="M10.5 16.672a.83.83 0 0 1-.82-.842c0-.466.367-.843.82-.843s.82.377.82.843a.83.83 0 0 1-.82.842m.82-3.79V7.657a.83.83 0 0 0-.82-.842.83.83 0 0 0-.82.842v5.223c0 .466.367.843.82.843s.82-.377.82-.843M21 18.796v-.124c0-.201-.05-.401-.144-.578l-1.426-2.67a.81.81 0 0 0-1.114-.334.854.854 0 0 0-.325 1.144l1.111 2.08H1.898L10.5 2.205l5.625 10.534a.81.81 0 0 0 1.113.333.854.854 0 0 0 .325-1.143L11.527.624A1.17 1.17 0 0 0 10.5 0c-.428 0-.821.24-1.027.624L.144 18.094a1.2 1.2 0 0 0-.144.58v.123C0 19.46.525 20 1.171 20h18.658c.646 0 1.171-.54 1.171-1.203" fill="black"/></svg>