<svg xmlns="http://www.w3.org/2000/svg" xmlns:xlink="http://www.w3.org/1999/xlink" width="50" height="50" viewBox="0 0 50 50">
  <defs>
    <clipPath id="clip-window-close">
      <rect width="50" height="50"/>
    </clipPath>
  </defs>
  <g id="window-close" clip-path="url(#clip-window-close)">
    <rect width="50" height="50" fill="#fff"/>
    <path id="Контур_29" data-name="Контур 29" d="M112.6,59.865V103.4H78.534V59.865H112.6m3.232-3.232H75.3v50h40.533v-50Zm4.733,46.968h-50v3h50ZM89.138,80.017H77.907v3.232h8v5.668h3.233Zm13.713,21.4,8-8a.543.543,0,1,0-.768-.768l-8,8a.543.543,0,0,0,.768.768Zm-3.784,0,12.5-12.5a.543.543,0,0,0-.767-.768l-12.5,12.5a.543.543,0,1,0,.767.768Zm6.83.448,4.954-4.954a.543.543,0,1,0-.768-.768L105.13,101.1a.542.542,0,1,0,.767.767Zm2.933.562,2.021-2.021a.543.543,0,1,0-.768-.767l-2.021,2.02a.543.543,0,0,0,.768.768ZM81.521,71.282l8-8a.543.543,0,1,0-.768-.767l-8,8a.543.543,0,0,0,.768.767ZM80.8,75.787,93.3,63.282a.543.543,0,1,0-.768-.767L80.031,75.02a.543.543,0,0,0,.768.767Zm.722-8,4.954-4.953a.543.543,0,0,0-.768-.768L80.753,67.02a.543.543,0,0,0,.768.767Zm0-3.494,2.02-2.022a.543.543,0,1,0-.768-.767l-2.02,2.021a.543.543,0,0,0,.768.768Z" transform="translate(-70.568 -56.633)"/>
  </g>
</svg>
