<?xml version="1.0" encoding="utf-8"?>
<!-- Generator: Adobe Illustrator 26.3.1, SVG Export Plug-In . SVG Version: 6.00 Build 0)  -->
<svg version="1.1" id="Слой_1" xmlns="http://www.w3.org/2000/svg" xmlns:xlink="http://www.w3.org/1999/xlink" x="0px" y="0px"
	 viewBox="0 0 140 140" style="enable-background:new 0 0 140 140;" xml:space="preserve">
<style type="text/css">
	.st0{fill:#D5FF5C;}
	.st1{fill-rule:evenodd;clip-rule:evenodd;fill:#FD4848;}
	.st2{fill:none;stroke:#FD4848;stroke-width:0.2658;}
	.st3{fill:#162BEB;stroke:#FD4848;stroke-width:0.2658;}
	.st4{fill:#FD4848;}
	.st5{fill:#FFFFFF;filter:url(#Adobe_OpacityMaskFilter);}
	
		.st6{mask:url(#path-10-inside-1_4684_17034_00000013184594617280404210000013461173146442789301_);fill:none;stroke:#D5FF5C;stroke-width:0.5317;}
</style>
<path class="st0" d="M23.3,0h93.3C129.6,0,140,10.4,140,23.3v93.3c0,12.9-10.4,23.3-23.3,23.3H23.3C10.4,140,0,129.6,0,116.7V23.3
	C0,10.4,10.4,0,23.3,0z"/>
<path class="st1" d="M96.5,75.3c0.9,1.9,3.5,2.6,5,1.1l2.8-2.8c2.8-2.8,7.5-2.8,10.3,0c2.8,2.8,2.8,7.5,0,10.3l-22.3,22.3
	c-5.4,6.3-13.4,10.4-22.3,10.4c-9.3,0-17.7-4.4-23-11.2L25.5,84c-2.8-2.8-2.8-7.5,0-10.3c2.8-2.8,7.5-2.8,10.3,0l2.7,2.7
	c1.5,1.5,4,0.8,4.9-1.1l0,0c0.2-0.4,0.3-0.8,0.3-1.2l0-33.3c0-4,3.3-7.3,7.3-7.3c4,0,7.3,3.3,7.3,7.3v16.8c0,1.5,1.5,2.4,2.9,2l0,0
	c0.9-0.3,1.5-1.1,1.5-2V30.6c0-4,3.3-7.3,7.3-7.3c4,0,7.3,3.3,7.3,7.3v27.1c0,0.9,0.6,1.7,1.5,2l0,0c1.4,0.4,2.9-0.5,2.9-2V40.8
	c0-4,3.3-7.3,7.3-7.3c4,0,7.3,3.3,7.3,7.3v33.3C96.2,74.6,96.3,75,96.5,75.3L96.5,75.3z"/>
<path class="st0" d="M93.3,90.4c0,0-10.5,14.6-23.3,14.6C57,105,46.6,90.4,46.6,90.4S57,75.8,69.9,75.8
	C82.8,75.8,93.3,90.4,93.3,90.4z"/>
<path class="st2" d="M80.8,90.4c0,6-4.9,10.9-10.9,10.9c-6,0-10.9-4.9-10.9-10.9s4.9-10.9,10.9-10.9C75.9,79.5,80.8,84.4,80.8,90.4z
	"/>
<path class="st2" d="M76.4,90.4c0,3.6-2.9,6.5-6.5,6.5c-3.6,0-6.5-2.9-6.5-6.5c0-3.6,2.9-6.5,6.5-6.5C73.5,83.9,76.4,86.8,76.4,90.4
	z"/>
<path class="st2" d="M85.2,90.4c0,8.4-6.8,15.3-15.3,15.3s-15.3-6.8-15.3-15.3s6.8-15.3,15.3-15.3S85.2,82,85.2,90.4z"/>
<path class="st2" d="M89.6,90.4c0,10.8-8.8,19.6-19.7,19.6c-10.9,0-19.7-8.8-19.7-19.6s8.8-19.6,19.7-19.6
	C80.8,70.8,89.6,79.6,89.6,90.4z"/>
<path class="st3" d="M72.1,90.4c0,1.2-1,2.1-2.1,2.1c-1.2,0-2.1-1-2.1-2.1c0-1.2,1-2.1,2.1-2.1C71.1,88.3,72.1,89.2,72.1,90.4z"/>
<ellipse class="st4" cx="69.9" cy="90.4" rx="2.9" ry="2.9"/>
<defs>
	<filter id="Adobe_OpacityMaskFilter" filterUnits="userSpaceOnUse" x="46.3" y="75.6" width="47.3" height="29.7">
		<feColorMatrix  type="matrix" values="1 0 0 0 0  0 1 0 0 0  0 0 1 0 0  0 0 0 1 0"/>
	</filter>
</defs>
<mask maskUnits="userSpaceOnUse" x="46.3" y="75.6" width="47.3" height="29.7" id="path-10-inside-1_4684_17034_00000013184594617280404210000013461173146442789301_">
	<path class="st5" d="M93.3,90.4c0,0-10.5,14.6-23.3,14.6C57,105,46.6,90.4,46.6,90.4S57,75.8,69.9,75.8
		C82.8,75.8,93.3,90.4,93.3,90.4z"/>
</mask>
<path class="st6" d="M93.3,90.4c0,0-10.5,14.6-23.3,14.6C57,105,46.6,90.4,46.6,90.4S57,75.8,69.9,75.8
	C82.8,75.8,93.3,90.4,93.3,90.4z"/>
</svg>
