<?xml version="1.0" encoding="utf-8"?>
<!-- Generator: Adobe Illustrator 27.2.0, SVG Export Plug-In . SVG Version: 6.00 Build 0)  -->
<svg version="1.1" id="Слой_1" xmlns="http://www.w3.org/2000/svg" xmlns:xlink="http://www.w3.org/1999/xlink" x="0px" y="0px"
	 viewBox="0 0 63 47.2" style="enable-background:new 0 0 63 47.2;" xml:space="preserve">
<style type="text/css">
	
		.st0{fill-rule:evenodd;clip-rule:evenodd;fill:#FFFFFF;stroke:#000000;stroke-width:0.1797;stroke-linecap:round;stroke-linejoin:round;stroke-miterlimit:10;}
	.st1{fill:#FFFFFF;stroke:#000000;stroke-width:0.1797;stroke-linecap:round;stroke-linejoin:round;stroke-miterlimit:10;}
	.st2{fill-rule:evenodd;clip-rule:evenodd;}
	
		.st3{fill-rule:evenodd;clip-rule:evenodd;fill:#342A60;stroke:#000000;stroke-width:5.477823e-02;stroke-linecap:round;stroke-linejoin:round;stroke-miterlimit:10;}
	.st4{fill:none;stroke:#000000;stroke-width:0.1797;stroke-linecap:round;stroke-linejoin:round;stroke-miterlimit:10;}
	
		.st5{fill-rule:evenodd;clip-rule:evenodd;fill:#FFFFFF;stroke:#000000;stroke-width:0.3864;stroke-linecap:round;stroke-linejoin:round;stroke-miterlimit:10;}
</style>
<g>
	<rect x="10.1" y="2.7" class="st0" width="28.9" height="24.9"/>
	<path class="st1" d="M40.3,40.5c0,0,0.2,2.8,0.3,2.9c0.1,0.1,0.5,0.3,0.7,0s0.5-3,0.5-3L40.3,40.5z"/>
	<polygon class="st0" points="19.5,2.8 12.1,8.3 12.7,9.6 21.3,2.7 	"/>
	<polygon class="st0" points="18,2.7 12.7,6.3 13.2,6.5 18.8,2.7 	"/>
	<path class="st1" d="M60,37c0,0,0.2,5.5,0.3,5.7c0.1,0.3,0.4,0.6,0.5,0c0.2-0.6,0.4-5.8,0.4-5.8L60,37z"/>
	<path class="st1" d="M48.9,36.7c0,0,0.2,5.5,0.3,5.7c0.1,0.3,0.4,0.6,0.5,0c0.2-0.6,0.4-5.8,0.4-5.8L48.9,36.7z"/>
	<path class="st1" d="M55.1,35.7c0,0,0.2,5.5,0.3,5.7c0.1,0.3,0.4,0.6,0.5,0c0.2-0.6,0.4-5.8,0.4-5.8L55.1,35.7z"/>
	<path class="st1" d="M15.5,44c0,0,0.2,2.8,0.3,2.9c0.1,0.1,0.5,0.3,0.7,0c0.2-0.3,0.5-3,0.5-3L15.5,44z"/>
	<path class="st1" d="M0.2,39.4c0,0,0.2,2.8,0.3,2.9s0.5,0.3,0.7,0s0.5-3,0.5-3L0.2,39.4z"/>
	<path class="st1" d="M18.5,42.6c0,0,0.2,2.8,0.3,2.9c0.1,0.1,0.5,0.3,0.7,0c0.2-0.3,0.5-3,0.5-3L18.5,42.6z"/>
	<path class="st1" d="M29.2,38.8c0,0,0.2,2.8,0.3,2.9c0.1,0.1,0.5,0.3,0.7,0c0.2-0.3,0.5-3,0.5-3L29.2,38.8z"/>
	<path class="st1" d="M47.4,38.1c0,0,0.2,2.8,0.3,2.9s0.5,0.3,0.7,0c0.2-0.3,0.5-3,0.5-3L47.4,38.1z"/>
	<g>
		<circle class="st1" cx="34.6" cy="6.1" r="1.6"/>
		<line class="st1" x1="36.2" y1="4" x2="38" y2="2.1"/>
		<line class="st1" x1="36.5" y1="7.5" x2="38" y2="8.4"/>
		<line class="st1" x1="35.2" y1="8.3" x2="35.8" y2="10.8"/>
		<line class="st1" x1="31.6" y1="2.8" x2="32.9" y2="4.3"/>
		<line class="st1" x1="30.8" y1="9" x2="32.6" y2="7.6"/>
	</g>
	<polygon class="st1" points="6.3,0.6 3.3,0.6 3.3,3.5 3.9,3.5 3.9,1.2 6.3,1.2 	"/>
	<g>
		<path class="st1" d="M12.1,2.1v26h27.3v-26H12.1z M38.2,26.9H13.3V3.2h24.9V26.9z"/>
		<rect x="29.3" y="3.2" class="st1" width="1.1" height="23.7"/>
	</g>
	<path class="st1" d="M48.5,36c0,0,3.6-14.4,2.3-15.4c-1.5-1.2-13.3-2.4-13.1,0.2c0.3,3.5-3.6,12.5-2.7,12.8
		C35.9,33.8,48.5,36,48.5,36z"/>
	<path class="st1" d="M7,0.7c0,0,0.8,0,1,0c0.3,0,0.8,0.3,1,0.3c0.3,0,1-0.3,1.3-0.3c0.2,0,0.7,0.3,1,0.3c0.3,0,0.9-0.3,1.2-0.3
		c0.3,0,0.8,0.3,1.1,0.3c0.2,0,0.9-0.3,0.9-0.3l0.1,29.9H7L7,0.7z"/>
	<rect x="6" y="0.1" class="st1" width="37.3" height="1.4"/>
	<path class="st1" d="M10.9,4.4c0,0,0,16.3,0,21.7"/>
	<path class="st1" d="M9.3,1.6c0,0,0,18.2,0,24.3"/>
	<path class="st1" d="M12.4,1.6c0,0,0,10.9,0,14.5"/>
	<polygon class="st1" points="41.3,41 31.4,40.2 31.4,37.9 42.1,37.9 	"/>
	<polygon class="st1" points="41.7,38.9 30,38 33,34.7 42.7,34.7 	"/>
	<path class="st1" d="M35.7,31.8c0,0-6.4,1-7.3,2.6C27.9,35,28.2,36.7,29,37c0.1,1,0,2.9,0,2.9l3.1,0.3l0-3.3c0,0,5.2-1.7,5.3-2.6
		C37.5,33.5,38.1,31.3,35.7,31.8z"/>
	<path class="st1" d="M29,34.9c0.1-0.9,2-1.1,1.6,1.2c-0.3,1.5-1.9,1.1-2.2,0.4"/>
	<path class="st1" d="M38.6,29.8c0,0-1.9-0.7-1.8-1c0.1-0.3,2.2-3.6,2.6-3.6s1.8,0.4,0.6,2.7C39.3,29.1,38.6,29.8,38.6,29.8z"/>
	<path class="st1" d="M42.3,36.9c0,0,0.5-0.3,0.5-1.5c0-2.3-0.7-2.6-0.7-2.6L36.8,33l-0.4,3.1C36.3,36.1,40.9,37,42.3,36.9z"/>
	<path class="st1" d="M36.7,35.8c0,0-3.5-0.6-5-0.1c-1.4,0.5,1.1,6.9,1.1,6.9h1.2c0,0-1.7-5.5-0.9-5.7c0.8-0.2,2.7,0,2.7,0"/>
	<path class="st1" d="M31.1,43.3c0,0,1.3-0.7,1.7-0.7c0.4,0,1.2,0,1.2,0s-0.7,1-1.9,1.2C30.7,44,31.1,43.3,31.1,43.3z"/>
	<path class="st1" d="M39.1,35.6c0,0-2.1-0.6-3.6-0.1s1.2,7.1,1.2,7.1h1.2c0,0-1.4-5.3-0.7-5.5c0.8-0.2,5.1-0.3,5.1-0.3"/>
	<path class="st1" d="M36.7,42.6c0,0-2.4,0.2-2.2,1c0.1,0.8,3.5-0.4,3.5-0.4l0-0.6H36.7z"/>
	<path class="st0" d="M43,22c-0.2,0.4-0.7,3.9-0.7,3.9s-1.2,0.3-1.9-0.1c-0.6-0.3-0.7-0.6-0.7-0.6s0.3-1.1,0.4-2.7
		C40.1,21,43,22,43,22z"/>
	<path class="st1" d="M36.6,34.2c0,0,5.9,1.9,6.2,2.4c0.3,0.5,0.9-9.7,0.6-10.3c-0.3-0.6-1.1-0.9-1.1-0.9s-1.8,0-2.6-0.3
		c-0.8-0.3-3.3,8.3-3.2,8.7C36.6,34.2,36.2,34,36.6,34.2z"/>
	<path class="st2" d="M42.2,23.6c0,0.1,1.9,1.5,2.5,1.6c0,0-0.4-2.2-0.2-1.7c0.6,1.1,2.9,0.9,2.9,0.9s-1.7-1.4-1.1-2.3
		c0,0,1.5,1,2.1,1c0.6,0-1.9-1.4-1-3c1-1.6,0.5-5.5-1.7-7.2s-0.9-3.3-0.9-3.3s-1.4,1.8-1.3,2c0.1,0.1-1.4-1.1-1.4-1.6
		c0.1-0.6-0.5,1-0.5,1s-4.2-0.9-6,1.8s-2.6,3.1-3.2,3.2c-0.5,0,2.4,0.5,2.9-0.1c0.5-0.6-1.2,3.3-2.4,3.8c-1.2,0.5,2.6,0.4,2.7,0.3
		C35.9,19.8,42.2,23.6,42.2,23.6z"/>
	<path class="st1" d="M44.1,21.9c0,0-0.3,1.4-1.6,2.1s-2.4,1-4.2,0.5c-1.8-0.4-3.1-2.4-3.3-4.8s0.2-3.2,0.2-3.2s3.3-1.7,3.5-1.7
		c0.2,0,5.1,0.6,5.2,0.6s1.6,2.3,1.6,2.3l-0.1,1.6c0,0,0,2-0.7,2.4S44.1,21.9,44.1,21.9z"/>
	<path d="M41.8,13.7c-4-0.1-5.7-0.6-6.6,1c-0.9,1.6-1.2,3.2-2.5,3.6c0,0,2.7,0.3,5.2-1.4c0,0-0.8,1.8-0.7,2c0,0,2.6-2.1,3.7-2.2
		c1.1-0.2,1.5-0.6,1.5-0.6s-0.2,1.9,0.4,3c0.6,1.1,0.4,2.8,0.1,3.3c0,0,1.1-0.5,1.2-1.5c0.1-1,1.5-1.1,1.8-1.3
		c0.3-0.2,1.6-2,1.5-2.3"/>
	<path class="st1" d="M45.9,17.6c0,0-2.2-3-6.5-3.4s-4.7,1.5-4.7,1.5s0-2.4,2.8-3c2.8-0.6,6.6,0.1,8.4,3.1c1.9,3,1.7,4.2,1.7,4.2
		l-0.3,0.8L45.9,17.6z"/>
	<g>
		<path class="st1" d="M42,10.9c0.8,0.3,1.6,2.8,0.4,3.4c-0.8,0.4-2.1,0.3-2.5,0c-0.5-0.4-1.3-2.1-1.1-2.4
			C39.3,11.1,41.6,10.7,42,10.9z"/>
		<path class="st1" d="M41.8,10.7c0.8,0.3,1,1.5-0.1,2.1c-0.8,0.4-2.1,0.3-2.5,0c-0.5-0.4-0.7-1.4,0.3-1.9
			C40.4,10.5,41.4,10.5,41.8,10.7z"/>
		<path class="st1" d="M40.7,9.8c0.4,0.2,1.1,2,0.5,2.3c-0.4,0.2-0.9,0.2-1.1,0c-0.3-0.2-1.2-1.6-1.1-1.8
			C39.3,9.9,40.5,9.7,40.7,9.8z"/>
		<path class="st1" d="M40.6,9.8c0.4,0.2,0.5,0.8-0.1,1.1c-0.4,0.2-1.1,0.2-1.4,0c-0.3-0.2-0.4-0.7,0.2-1
			C39.8,9.6,40.4,9.7,40.6,9.8z"/>
		<path class="st1" d="M40.4,10c0.3,0.1,0.4,0.5,0,0.7c-0.3,0.1-0.7,0.1-0.9,0c-0.2-0.1-0.2-0.5,0.1-0.7C39.9,9.9,40.2,9.9,40.4,10z
			"/>
	</g>
	<g>
		<path class="st1" d="M37.6,11c0.6,0.3,1.3,2.4,0.4,2.9c-0.7,0.3-1.7,0.2-2.1,0c-0.5-0.3-1.1-1.7-1-2C35.4,11.2,37.3,10.9,37.6,11z
			"/>
		<path class="st1" d="M37.5,10.9c0.6,0.3,0.8,1.3-0.1,1.8c-0.7,0.3-1.7,0.2-2.1,0c-0.5-0.3-0.6-1.1,0.3-1.6
			C36.3,10.7,37.1,10.7,37.5,10.9z"/>
		<path class="st1" d="M36.5,10.2c0.3,0.2,0.9,1.7,0.4,1.9c-0.4,0.2-0.7,0.1-1,0c-0.2-0.2-1-1.4-0.9-1.5
			C35.3,10.3,36.4,10.1,36.5,10.2z"/>
		<path class="st1" d="M36.5,10.1c0.3,0.2,0.5,0.7-0.1,1c-0.4,0.2-0.9,0.1-1.1,0c-0.2-0.2-0.3-0.6,0.1-0.8
			C35.8,10,36.3,10,36.5,10.1z"/>
		<path class="st1" d="M36.3,10.3c0.2,0.1,0.3,0.4,0,0.6c-0.2,0.1-0.6,0.1-0.7,0c-0.2-0.1-0.2-0.4,0.1-0.6
			C35.9,10.2,36.2,10.2,36.3,10.3z"/>
	</g>
	<path class="st3" d="M36.6,18.3c0,0,0.1,0,0.2-0.1c0.1-0.1,0.1-0.2,0.1-0.3c0,0,0,0-0.2,0c-0.2,0-0.9,0-1.1,0.6
		c0,0.1,0,0.1,0.1,0.1C35.7,18.6,36,18.3,36.6,18.3z"/>
	<path class="st3" d="M40.2,18.1c0,0-0.1,0-0.2,0c-0.1,0-0.2-0.2-0.2-0.2c0,0,0.1,0,0.2,0c0.2-0.1,0.8-0.2,1.2,0.3
		c0.1,0.1,0,0.1-0.1,0.1C41.1,18.1,40.7,17.9,40.2,18.1z"/>
	<g>
		<defs>
			<path id="SVGID_1_" d="M40,21.1c0.6,0.2,0.9-0.3,0.9-0.3"/>
		</defs>
		<use xlink:href="#SVGID_1_"  style="overflow:visible;fill-rule:evenodd;clip-rule:evenodd;fill:#FFFFFF;"/>
		<clipPath id="SVGID_00000129928241433134530430000012908135737241929885_">
			<use xlink:href="#SVGID_1_"  style="overflow:visible;"/>
		</clipPath>
		
			<use xlink:href="#SVGID_1_"  style="overflow:visible;fill-rule:evenodd;clip-rule:evenodd;fill:none;stroke:#000000;stroke-width:0.1797;stroke-linecap:round;stroke-linejoin:round;stroke-miterlimit:10;"/>
	</g>
	<path class="st0" d="M38.6,19.2c0,0-0.3-0.1-0.4,0.1c-0.1,0.2,0.3,0.4,0.3,0.4"/>
	<path class="st1" d="M34.2,33.5c-0.4-0.1-2.4,0.6-2.5,1.3c-0.1,1,0.6,1.5,1.2,1.1c0,0,0.5-0.4,0-0.7c0.3-0.3,0.8-0.7,1.1-0.7"/>
	<path class="st1" d="M32.7,31.9c0,0,1.6-1.6,2.9-2s3-0.5,4.5,0.8c1.5,1.4,1,4,0.5,4.6c-0.5,0.6-1.2,0.8-2.6,0.8s-2.4,0-3.4,0
		c-0.5,0-1.4-0.3-1.5-1"/>
	<path class="st1" d="M36,34.8c-0.4-0.1-1.3,0.2-1.4,0.8c-0.1,0.8,1.1,0.6,1.8,0.5"/>
	<path class="st1" d="M40.9,33.9c0,0-0.1,1.1-0.8,1.4c-1.9,0.7-2.9,0-3.2,0.2s-0.4,0.7,0,1c0.4,0.3,2.9,0.5,3.9-0.4
		C41.8,35.2,41.3,34,40.9,33.9z"/>
	<path d="M40.8,32c-0.2-0.5-0.4-0.9-0.8-1.2c-0.9-0.9-1.9-1.1-2.9-1.1c-0.2,0.3-0.3,0.6-0.3,0.9c0,1,1.1,1.8,2.5,1.8
		C39.8,32.4,40.3,32.2,40.8,32z"/>
	<ellipse cx="39.4" cy="33.4" rx="0.7" ry="0.5"/>
	<path class="st1" d="M50.7,20.4c-1-0.3-1.4,4.2-3,12.6"/>
	<path class="st1" d="M48.2,32.3c0,0-5.3,1.9-6.2,3c-0.8,1.1-0.8,5.7-0.8,5.7l7.6-2.4l0.1-1.6c0,0,1.1-0.2,1.2-1.1
		C50.2,35.1,50.6,31.8,48.2,32.3z"/>
	<path class="st1" d="M44.5,36.3c-0.1-0.9-2.3-0.9-1.9,1.4c0.3,1.5,2.1,1,2.1,1l4.5-1.7"/>
	<g>
		<rect x="2.8" y="2.6" class="st1" width="1.7" height="7.7"/>
		<line class="st1" x1="2.8" y1="4.5" x2="4.4" y2="4.5"/>
	</g>
	<polygon class="st1" points="0.1,33.5 16.2,37.6 20.1,36.6 3.8,32.8 	"/>
	<polygon class="st1" points="0.1,33.5 0.1,40.9 16.3,45.6 16.2,37.6 	"/>
	<polygon class="st1" points="20.1,36.6 20,43.9 16.2,45.6 16.2,37.6 	"/>
	<path d="M16.6,21.5l-16.1-3v14l3.8,0.9c0,0-0.1,0.1-0.1,0.2c0,0.2,0.1,0.3,0.2,0.4l8.2,2.1c0,0,0.1,0,0.1,0c0.1,0,0.3-0.1,0.3-0.2
		c0-0.1,0-0.2,0-0.2l3.6,0.9V21.5z"/>
	<g>
		<path class="st1" d="M41.8,27.4c0,0-0.1,3.4-0.9,3.9c-0.5,0.3-4.5-2.2-5-1.5s-0.3,0.8,0.7,0.8s4,2.3,4.9,2.1
			c0.9-0.3,1.7-5.6,1.7-5.6L41.8,27.4z"/>
		<path class="st1" d="M41.1,29.4c0,0,1.6,0.2,1.9,0.6c0.3,0.3,1-3.7,0.5-4c-1.2-0.8-1.7,0.6-2.1,1.6C41.2,28.4,41.1,29.4,41.1,29.4
			z"/>
		<path class="st1" d="M36.6,30.2c0,0-0.3,0-0.5,0c-0.2,0-0.4,0.4-0.4,0.4"/>
		<path class="st1" d="M36.3,29.9c0,0-0.4,0-0.5,0.2s-0.3,0.3-0.3,0.3"/>
	</g>
	<path class="st1" d="M36.6,32.4c-0.1-0.5-0.4-1.1-0.8-1.5c0.1-0.4,0-1.3-0.1-1.3c-0.2-0.1-0.8,0.5-1,0.7c-0.4-0.1-0.8-0.2-1.2-0.1
		c-0.6,0.1-1.2,0.4-1.6,0.8c-0.3-0.1-1-0.3-1.1-0.2c-0.1,0.1,0.2,0.8,0.5,1.2c-0.2,0.4-0.2,0.8-0.2,1.2c0.2,1.3,1.5,1.8,3,1.6
		C35.6,34.6,36.7,33.7,36.6,32.4z"/>
	<g>
		<ellipse transform="matrix(0.9881 -0.1537 0.1537 0.9881 -4.6349 5.4618)" class="st2" cx="33" cy="32.7" rx="0.2" ry="0.1"/>
		<ellipse transform="matrix(0.9898 -0.1427 0.1427 0.9898 -4.3232 4.9135)" class="st2" cx="32.1" cy="32.6" rx="0.2" ry="0.3"/>
		<ellipse transform="matrix(0.9898 -0.1427 0.1427 0.9898 -4.2478 5.1921)" class="st2" cx="34.1" cy="32.2" rx="0.2" ry="0.3"/>
		<g>
			<g>
				<defs>
					<path id="SVGID_00000029007828465402511230000002486563273958890150_" d="M32.4,33.4c0.5,0,0.6-0.5,0.6-0.5"/>
				</defs>
				<clipPath id="SVGID_00000119104507357926693760000005663906110297467281_">
					<use xlink:href="#SVGID_00000029007828465402511230000002486563273958890150_"  style="overflow:visible;"/>
				</clipPath>
				
					<use xlink:href="#SVGID_00000029007828465402511230000002486563273958890150_"  style="overflow:visible;fill-rule:evenodd;clip-rule:evenodd;fill:none;stroke:#000000;stroke-width:0.1797;stroke-linecap:round;stroke-linejoin:round;stroke-miterlimit:10;"/>
			</g>
			<g>
				<defs>
					<path id="SVGID_00000056409009378244573890000003359750192447666345_" d="M34,33.1c-0.6,0.2-0.9-0.2-0.9-0.2"/>
				</defs>
				<clipPath id="SVGID_00000066501714993269109570000013273488891425388976_">
					<use xlink:href="#SVGID_00000056409009378244573890000003359750192447666345_"  style="overflow:visible;"/>
				</clipPath>
				
					<use xlink:href="#SVGID_00000056409009378244573890000003359750192447666345_"  style="overflow:visible;fill-rule:evenodd;clip-rule:evenodd;fill:none;stroke:#000000;stroke-width:0.1797;stroke-linecap:round;stroke-linejoin:round;stroke-miterlimit:10;"/>
			</g>
		</g>
		<g>
			<line class="st4" x1="34.6" y1="32.4" x2="35.3" y2="32"/>
			<line class="st4" x1="34.7" y1="32.8" x2="35.5" y2="32.6"/>
		</g>
		<g>
			<line class="st4" x1="31.9" y1="33.3" x2="31.1" y2="33.6"/>
			<line class="st4" x1="31.9" y1="33" x2="31" y2="33"/>
		</g>
	</g>
	<path class="st1" d="M47.6,36.9c0,0.5,3.4,1,7.6,1s7.6-0.4,7.6-1c0-0.2,0-0.6,0-0.6s-4.6-0.4-7.6-0.4c-2.8,0-7.6,0.5-7.6,0.5
		S47.6,36.7,47.6,36.9z"/>
	<ellipse class="st1" cx="55.2" cy="36.4" rx="7.6" ry="1"/>
	<path class="st1" d="M54.5,23.3c0,0-0.6,5.4-1,6C53.1,30,54.2,30,54.2,30S55.4,24.8,54.5,23.3z"/>
	<path class="st1" d="M55.6,25c0,0-2.8,4.5-2.5,7.6c1.1,1.7,1.1,0.5,1.1,0.5S54.1,28.2,55.6,25z"/>
	<path class="st1" d="M47.7,27.9c0,0,0.7-1.7,2-1.7s2.8,4,2.9,5.3s-1,1.5-1,1.5s-1-5.4-1.6-5.9C49.5,26.6,47.7,27.9,47.7,27.9z"/>
	<path class="st1" d="M53.2,22.4c0,0,0,3.2,0.5,4.4c0.5,1.2-0.5,6.4-0.5,6.4h-1.1c0,0,0.2-2.8,0.7-4.2
		C53.9,26.1,54.4,24.7,53.2,22.4z"/>
	<path class="st1" d="M58,26.1c0,0-1.8,0.2-2.5,1c-1.3,1.6-1.8,5.2-1.8,5.2s0.8,0.1,0.9,0.1s0.7-4.1,1.8-5.3
		C56.8,26.7,58,26.1,58,26.1z"/>
	<path class="st1" d="M50.7,21c0,0-0.4,2.6,0.2,3.4c0.6,0.8,1.1,3.5,1.3,4.6c0.1,1.1,0.1,3.3,0.1,3.3l0.6-0.3c0,0,0.4-3.3-0.1-4.9
		c-0.5-1.6-1.4-2.5-1.6-3.5C51.1,22.7,50.7,21,50.7,21z"/>
	<path class="st1" d="M51.7,33.6c0,0,0.1-5.7-0.6-7c0.8,0.4,1.8,4.9,1.4,6C52.2,33.8,51.7,33.6,51.7,33.6z"/>
	<path d="M54.9,36.3c0,0-0.8,0.3-2,0.3c-1.5,0-2-0.3-2-0.3v-3.9h4V36.3z"/>
	<path d="M55.7,32.4c0,0-1.1,0.2-2.9,0.2c-1.9,0-2.8-0.2-2.8-0.2v-1.3c0,0,1,0.2,2.7,0.2c1.6,0,2.9-0.2,2.9-0.2V32.4z"/>
	<g>
		<path class="st1" d="M59.8,27.9C59.7,28,59.5,28,59.3,28s-0.3,0-0.5-0.1c-1,1.1-3.1,3.7-3.1,5.5c0,2.3,1.6,3.1,3.6,3.1
			s3.6-0.9,3.6-3.1C62.9,31.6,60.8,29,59.8,27.9z"/>
		<path class="st1" d="M57,30.3c0.7,0.3,1.5,0.5,2.4,0.5s1.7-0.2,2.4-0.5"/>
	</g>
	<g>
		<rect x="38.8" y="45.5" transform="matrix(0.8312 -0.556 0.556 0.8312 -18.6263 29.7781)" class="st2" width="1.9" height="0.2"/>
		
			<rect x="39.8" y="45.8" transform="matrix(-0.3078 -0.9515 0.9515 -0.3078 9.6611 98.7856)" class="st2" width="1.9" height="0.2"/>
		
			<rect x="46.6" y="45.7" transform="matrix(0.4444 -0.8958 0.8958 0.4444 -14.5394 68.0546)" class="st2" width="1.9" height="0.2"/>
		
			<rect x="47.7" y="45.4" transform="matrix(-0.7404 -0.6722 0.6722 -0.7404 54.0826 111.8966)" class="st2" width="1.9" height="0.2"/>
		<path class="st0" d="M48.8,43.3H39v1.5h0c0.2,0.5,2.3,0.9,4.8,0.9s4.7-0.4,4.8-0.9h0V43.3z"/>
		<ellipse class="st0" cx="43.9" cy="43.3" rx="4.9" ry="1"/>
		<ellipse class="st0" cx="43.9" cy="43.2" rx="3.9" ry="0.7"/>
		<path class="st2" d="M44.5,43.7h-1.3c-0.1,0-0.1,0-0.1-0.1l0,0c0-0.1,0-0.1,0.1-0.1h1.3c0.1,0,0.1,0,0.1,0.1l0,0
			C44.6,43.6,44.6,43.7,44.5,43.7z"/>
		<path class="st5" d="M39.7,44.5c0.8,0.3,2.4,0.5,4.2,0.5c1.9,0,3.6-0.2,4.3-0.5"/>
	</g>
	<path class="st1" d="M59.2,26.9c0,0-0.8-4.5-0.9-4.8c-0.1-0.3-2.7,0.7-3.4-1.2c-0.7-1.9,0.3-3.2,1.6-3.4c-0.3-0.6-0.3-2.4,1-2.8
		c1.3-0.4,2.5-0.1,2.9,0.5c0.4,0.6,0.3,1.3,0.3,1.3s0.7-0.2,1.2,0c0.5,0.2,0.6,1.6,0,1.6c1.8,1,0.1,2.2,0.1,2.2s0.6,1-0.2,1.6
		s-2,0-2,0L59.2,26.9z"/>
	
		<ellipse transform="matrix(1.710124e-02 -0.9999 0.9999 1.710124e-02 16.432 55.6027)" class="st2" cx="36.5" cy="19.4" rx="0.4" ry="0.2"/>
	
		<ellipse transform="matrix(1.710124e-02 -0.9999 0.9999 1.710124e-02 20.3654 59.4688)" class="st2" cx="40.4" cy="19.4" rx="0.4" ry="0.2"/>
	<circle class="st0" cx="21.2" cy="8.1" r="1.1"/>
	<circle class="st0" cx="19.6" cy="8.4" r="0.8"/>
	<circle class="st0" cx="18.6" cy="7" r="0.8"/>
	<circle class="st0" cx="21" cy="6.8" r="0.8"/>
	<circle class="st0" cx="18.7" cy="6.3" r="0.4"/>
	<circle class="st0" cx="19.3" cy="5.4" r="0.2"/>
	<circle class="st0" cx="23" cy="7.8" r="0.2"/>
	<circle class="st0" cx="21.7" cy="5" r="0.4"/>
	<g>
		<circle class="st1" cx="21.2" cy="9.8" r="1.3"/>
		<circle class="st1" cx="24.4" cy="9.8" r="1.3"/>
		<path class="st1" d="M24.3,10.8h-3c-0.6,0-1-0.5-1-1v0c0-0.6,0.5-1,1-1h3c0.6,0,1,0.5,1,1v0C25.4,10.3,24.9,10.8,24.3,10.8z"/>
		<circle class="st1" cx="22.8" cy="9.8" r="0.7"/>
		<path class="st1" d="M24.5,10.5c-0.4,0-0.7-0.3-0.7-0.7s0.3-0.7,0.7-0.7"/>
		<path class="st1" d="M21.1,9.1c0.4,0,0.7,0.3,0.7,0.7s-0.3,0.7-0.7,0.7"/>
	</g>
</g>
</svg>
