<?xml version="1.0" encoding="utf-8"?>
<!-- Generator: Adobe Illustrator 27.2.0, SVG Export Plug-In . SVG Version: 6.00 Build 0)  -->
<svg version="1.1" id="Слой_1" xmlns="http://www.w3.org/2000/svg" xmlns:xlink="http://www.w3.org/1999/xlink" x="0px" y="0px"
	 viewBox="0 0 52 47.3" style="enable-background:new 0 0 52 47.3;" xml:space="preserve">
<style type="text/css">
	.st0{fill:#FFFFFF;stroke:#000000;stroke-width:0.2606;stroke-linecap:round;stroke-linejoin:round;stroke-miterlimit:10;}
	.st1{fill:#3A3A3A;stroke:#000000;stroke-width:5.000000e-02;stroke-miterlimit:10;}
	
		.st2{fill-rule:evenodd;clip-rule:evenodd;fill:#FFFFFF;stroke:#000000;stroke-width:0.2606;stroke-linecap:round;stroke-linejoin:round;stroke-miterlimit:10;}
	.st3{stroke:#000000;stroke-width:0.15;stroke-miterlimit:10;}
	.st4{fill-rule:evenodd;clip-rule:evenodd;}
	
		.st5{fill-rule:evenodd;clip-rule:evenodd;fill:none;stroke:#000000;stroke-width:0.2606;stroke-linecap:round;stroke-linejoin:round;stroke-miterlimit:10;}
</style>
<g>
	<rect x="0.1" y="35.7" class="st0" width="33.4" height="1.2"/>
	<polygon class="st0" points="21.2,35.7 6.3,35.7 2.2,22.5 17,22.5 	"/>
	<polygon class="st0" points="21.8,35.7 6.9,35.7 2.8,22.5 17.6,22.5 	"/>
	<polygon class="st0" points="20.3,34 7.3,34 3.9,23.3 17,23.3 	"/>
	<rect x="6" y="35" class="st0" width="20.8" height="0.7"/>
	<g>
		<path class="st1" d="M5.3,25.3L5.3,25.3l0.2-0.1v0L5.3,25.3L5.3,25.3L5.3,25.3l0.2,0v0L5.3,25.3z"/>
		<path class="st1" d="M5.7,25.2L5.7,25.2L5.7,25.2L5.7,25.2v0.2c0,0,0,0,0,0c0,0,0,0,0,0c0,0,0,0,0,0c0,0,0,0,0,0c0,0,0,0,0,0
			c0,0,0,0,0,0c0,0,0,0,0,0c0,0,0,0,0,0l0,0c0,0,0,0,0,0c0,0,0,0,0,0c0,0,0,0,0,0c0,0,0,0,0,0c0,0,0,0,0,0c0,0,0,0,0,0c0,0,0,0,0,0
			c0,0,0,0,0,0L5.7,25.2l-0.1,0v0H5.7L5.7,25.2L5.7,25.2L5.7,25.2z"/>
		<path class="st1" d="M5.9,25.5C5.9,25.4,5.9,25.4,5.9,25.5C5.9,25.4,5.9,25.4,5.9,25.5c-0.1-0.1-0.1-0.1-0.1-0.1v0c0,0,0,0,0-0.1
			c0,0,0,0,0,0c0,0,0,0,0,0c0,0,0,0,0,0c0,0,0,0,0,0c0,0,0,0,0,0c0,0,0,0,0,0c0,0,0,0,0,0v0H5.9v0C5.9,25.4,5.9,25.4,5.9,25.5
			C5.9,25.4,5.9,25.4,5.9,25.5C5.9,25.4,5.9,25.4,5.9,25.5C5.9,25.4,6,25.4,5.9,25.5C6,25.4,6,25.4,5.9,25.5C6,25.4,6,25.4,6,25.4
			l0,0c0,0,0,0,0,0C6,25.5,6,25.5,5.9,25.5C5.9,25.5,5.9,25.5,5.9,25.5z M5.9,25.2C5.9,25.2,5.9,25.2,5.9,25.2
			C5.9,25.3,5.9,25.3,5.9,25.2C5.9,25.3,5.9,25.3,5.9,25.2L5.9,25.2L5.9,25.2C6,25.3,6,25.3,5.9,25.2C6,25.3,6,25.3,5.9,25.2
			C6,25.3,6,25.2,5.9,25.2C6,25.2,6,25.2,5.9,25.2C5.9,25.2,5.9,25.2,5.9,25.2z"/>
		<path class="st1" d="M6.2,25.2C6.2,25.2,6.2,25.2,6.2,25.2C6.2,25.2,6.2,25.2,6.2,25.2C6.2,25.2,6.2,25.2,6.2,25.2
			C6.2,25.2,6.2,25.2,6.2,25.2C6.2,25.2,6.2,25.2,6.2,25.2C6.3,25.2,6.3,25.2,6.2,25.2c0.1,0,0.1,0,0.1,0c0,0,0,0,0,0c0,0,0,0,0,0
			c0,0,0,0,0,0c0,0,0,0,0,0c0,0,0,0,0,0c0,0,0,0,0,0c0,0,0,0,0,0v0.2h0v-0.2c0,0,0,0,0,0c0,0,0,0,0,0c0,0,0,0,0,0c0,0,0,0,0,0
			c0,0,0,0,0,0c0,0,0,0,0,0c0,0,0,0,0,0c0,0,0,0,0,0c0,0,0,0,0,0c0,0,0,0,0,0v0.2h0L6.2,25.2C6.2,25.3,6.2,25.3,6.2,25.2
			C6.2,25.2,6.2,25.2,6.2,25.2C6.2,25.2,6.2,25.2,6.2,25.2C6.2,25.2,6.2,25.2,6.2,25.2C6.2,25.2,6.2,25.2,6.2,25.2
			C6.2,25.2,6.2,25.2,6.2,25.2C6.2,25.2,6.2,25.2,6.2,25.2C6.2,25.3,6.2,25.3,6.2,25.2l0,0.2h0L6.2,25.2L6.2,25.2L6.2,25.2z"/>
		<path class="st1" d="M6.4,25.2L6.4,25.2L6.4,25.2C6.5,25.2,6.5,25.2,6.4,25.2C6.5,25.2,6.5,25.2,6.4,25.2
			C6.5,25.2,6.5,25.2,6.4,25.2c0.1,0,0.1,0,0.1,0c0,0,0,0,0,0c0,0,0,0,0,0c0,0,0,0,0,0c0,0,0,0,0,0.1v0c0,0,0,0,0,0.1c0,0,0,0,0,0
			c0,0,0,0,0,0c0,0,0,0,0,0c0,0,0,0,0,0c0,0,0,0,0,0c0,0,0,0,0,0s0,0,0,0v0.1h0V25.2z M6.6,25.3C6.6,25.3,6.6,25.3,6.6,25.3
			C6.6,25.3,6.6,25.2,6.6,25.3C6.6,25.2,6.5,25.2,6.6,25.3C6.5,25.2,6.5,25.2,6.6,25.3C6.5,25.2,6.5,25.2,6.6,25.3
			c-0.1,0-0.1,0-0.1,0c0,0,0,0,0,0v0.1c0,0,0,0,0,0c0,0,0,0,0,0c0,0,0,0,0,0c0,0,0,0,0,0c0,0,0,0,0,0c0,0,0,0,0,0
			C6.6,25.4,6.6,25.4,6.6,25.3C6.6,25.4,6.6,25.3,6.6,25.3L6.6,25.3C6.6,25.3,6.6,25.3,6.6,25.3z"/>
		<path class="st1" d="M6.9,25.1v0.3h0.1v0H6.7v0h0.1L6.9,25.1l-0.1,0v0H6.9z"/>
		<path class="st1" d="M7.2,25.4C7.2,25.4,7.2,25.4,7.2,25.4C7.2,25.4,7.2,25.4,7.2,25.4C7.1,25.4,7.1,25.4,7.2,25.4
			C7.1,25.5,7.1,25.5,7.2,25.4C7.1,25.5,7.1,25.5,7.2,25.4c-0.1,0-0.1,0-0.1,0c0,0,0,0,0,0c0,0,0,0,0,0c0,0,0,0,0,0c0,0,0,0,0,0
			c0,0,0,0,0,0c0,0,0,0,0,0c0,0,0,0,0,0h0v0c0,0,0,0,0,0c0,0,0,0,0,0c0,0,0,0,0,0c0,0,0,0,0,0c0,0,0,0,0,0s0,0,0,0s0,0,0,0
			c0,0,0,0,0,0h0c0,0,0,0,0,0c0,0,0,0,0,0c0,0,0,0,0,0c0,0,0,0,0,0c0,0,0,0,0,0c0,0,0,0,0,0c0,0,0,0,0,0c0,0,0,0,0,0L7.2,25.4
			C7.2,25.4,7.2,25.4,7.2,25.4C7.2,25.4,7.2,25.4,7.2,25.4L7.2,25.4L7.2,25.4C7.2,25.5,7.2,25.5,7.2,25.4z M7.1,25.4
			C7.1,25.4,7.1,25.4,7.1,25.4C7.1,25.4,7.1,25.4,7.1,25.4C7.2,25.4,7.2,25.4,7.1,25.4L7.1,25.4L7.1,25.4
			C7.1,25.3,7.1,25.3,7.1,25.4C7.1,25.3,7.1,25.3,7.1,25.4C7.1,25.4,7,25.4,7.1,25.4C7,25.4,7,25.4,7.1,25.4C7,25.4,7,25.4,7.1,25.4
			C7,25.4,7.1,25.4,7.1,25.4C7.1,25.4,7.1,25.4,7.1,25.4C7.1,25.4,7.1,25.4,7.1,25.4C7.1,25.4,7.1,25.4,7.1,25.4z"/>
		<path class="st1" d="M7.4,25.2L7.4,25.2L7.4,25.2L7.4,25.2v0.2c0,0,0,0,0,0c0,0,0,0,0,0c0,0,0,0,0,0c0,0,0,0,0,0c0,0,0,0,0,0
			c0,0,0,0,0,0c0,0,0,0,0,0c0,0,0,0,0,0l0,0c0,0,0,0,0,0c0,0,0,0,0,0c0,0,0,0,0,0c0,0,0,0,0,0c0,0,0,0,0,0c0,0,0,0,0,0c0,0,0,0,0,0
			c0,0,0,0,0,0L7.4,25.2l-0.1,0v0H7.4L7.4,25.2L7.4,25.2L7.4,25.2z"/>
		<path class="st1" d="M7.6,25.5C7.6,25.4,7.6,25.4,7.6,25.5C7.6,25.4,7.6,25.4,7.6,25.5c-0.1-0.1-0.1-0.1-0.1-0.1v0c0,0,0,0,0-0.1
			c0,0,0,0,0,0c0,0,0,0,0,0c0,0,0,0,0,0c0,0,0,0,0,0c0,0,0,0,0,0c0,0,0,0,0,0c0,0,0,0,0,0v0H7.6v0C7.6,25.4,7.6,25.4,7.6,25.5
			C7.6,25.4,7.6,25.4,7.6,25.5C7.6,25.4,7.7,25.4,7.6,25.5C7.7,25.4,7.7,25.4,7.6,25.5C7.7,25.4,7.7,25.4,7.6,25.5
			c0.1,0,0.1-0.1,0.1-0.1l0,0c0,0,0,0,0,0C7.7,25.5,7.7,25.5,7.6,25.5C7.7,25.5,7.7,25.5,7.6,25.5z M7.7,25.2
			C7.7,25.2,7.6,25.2,7.7,25.2C7.6,25.3,7.6,25.3,7.7,25.2C7.6,25.3,7.6,25.3,7.7,25.2L7.7,25.2L7.7,25.2
			C7.8,25.3,7.8,25.3,7.7,25.2C7.7,25.3,7.7,25.3,7.7,25.2C7.7,25.3,7.7,25.2,7.7,25.2C7.7,25.2,7.7,25.2,7.7,25.2
			C7.7,25.2,7.7,25.2,7.7,25.2z"/>
		<path class="st1" d="M7.9,25.4L8,25.3l0,0l0,0l-0.2-0.1v0l0.2,0.1v0L7.9,25.4L7.9,25.4z"/>
		<path class="st1" d="M6.4,26.1L6.4,26.1l0.2-0.1v0L6.4,26.1L6.4,26.1L6.4,26.1l0.2,0v0L6.4,26.1z"/>
		<path class="st1" d="M6.7,26C6.7,26,6.7,26,6.7,26C6.7,26,6.8,26,6.7,26C6.8,25.9,6.8,25.9,6.7,26c0.1-0.1,0.1-0.1,0.1-0.1
			c0,0,0,0,0,0v-0.1h0v0.4h0l0,0c0,0,0,0,0,0c0,0,0,0,0,0c0,0,0,0,0,0c0,0,0,0,0,0c0,0,0,0,0,0C6.7,26.1,6.7,26.1,6.7,26L6.7,26
			C6.7,26,6.7,26,6.7,26z M6.8,26.1C6.8,26.1,6.8,26.1,6.8,26.1C6.8,26.1,6.8,26.2,6.8,26.1C6.8,26.2,6.8,26.2,6.8,26.1
			c0.1,0.1,0.1,0.1,0.1,0c0,0,0,0,0,0V26c0,0,0,0,0,0c0,0,0,0,0,0c0,0,0,0,0,0c0,0,0,0,0,0C6.8,26,6.8,26,6.8,26.1
			C6.8,26,6.8,26.1,6.8,26.1L6.8,26.1C6.8,26.1,6.8,26.1,6.8,26.1z"/>
		<path class="st1" d="M7.1,25.9v0.2h0.1v0H7v0h0.1L7.1,25.9L7,26v0H7.1z M7.1,25.9C7.1,25.9,7.1,25.9,7.1,25.9
			C7.1,25.9,7.1,25.9,7.1,25.9C7.1,25.9,7.1,25.9,7.1,25.9C7.1,25.9,7.1,25.9,7.1,25.9C7.1,25.9,7.1,25.9,7.1,25.9
			C7.1,25.9,7.1,25.9,7.1,25.9C7.1,25.9,7.1,25.9,7.1,25.9C7.1,25.9,7.1,25.9,7.1,25.9C7.1,25.9,7.1,25.9,7.1,25.9
			C7.1,25.9,7.1,25.9,7.1,25.9C7.1,25.9,7.1,25.9,7.1,25.9C7.1,25.9,7.1,25.9,7.1,25.9z"/>
		<path class="st1" d="M7.3,25.9L7.3,25.9l0.1,0.2l0,0l0,0l0.1-0.2h0l-0.1,0.3h0L7.3,25.9z"/>
		<path class="st1" d="M7.6,26.1L7.7,26l0,0l0,0L7.6,26v0L7.8,26v0L7.6,26.1L7.6,26.1z"/>
		<path class="st1" d="M7.6,26.8L7.6,26.8l0.2-0.1v0L7.6,26.8L7.6,26.8L7.6,26.8l0.2,0v0L7.6,26.8z"/>
		<path class="st1" d="M7.9,26.7C7.9,26.7,7.9,26.7,7.9,26.7C7.9,26.7,8,26.7,7.9,26.7C8,26.7,8,26.7,7.9,26.7c0.1,0,0.1,0,0.1,0
			c0,0,0,0,0,0c0,0,0,0,0,0c0,0,0,0,0,0v0.2h0v-0.2c0,0,0,0,0,0C8,26.7,8,26.7,7.9,26.7C8,26.7,8,26.7,7.9,26.7
			C8,26.7,8,26.7,7.9,26.7C8,26.7,8,26.7,7.9,26.7C7.9,26.7,7.9,26.7,7.9,26.7C7.9,26.7,7.9,26.7,7.9,26.7
			C7.9,26.7,7.9,26.7,7.9,26.7l0,0.2h0v-0.4h0L7.9,26.7C7.9,26.7,7.9,26.7,7.9,26.7z"/>
		<path class="st1" d="M8.3,26.9v-0.3l-0.1,0v0l0.1,0h0L8.3,26.9L8.3,26.9z"/>
		<path class="st1" d="M8.4,26.8l0.2-0.1l0,0l0,0l-0.2-0.1v0l0.2,0.1v0L8.4,26.8L8.4,26.8z"/>
		<path class="st1" d="M8.8,26.8v0.2h0v-0.3h0.2v0H8.8V26.8l0.1,0v0H8.8z"/>
		<path class="st1" d="M9.2,26.7C9.2,26.7,9.2,26.7,9.2,26.7L9.2,26.7C9.2,26.7,9.2,26.7,9.2,26.7C9.2,26.7,9.2,26.7,9.2,26.7
			C9.2,26.7,9.2,26.7,9.2,26.7C9.1,26.7,9.1,26.7,9.2,26.7c-0.1,0.1-0.1,0.1-0.1,0.1c0,0,0,0,0,0v0.2h0v-0.3h0l0,0l0,0
			C9.1,26.7,9.1,26.7,9.2,26.7C9.2,26.7,9.2,26.7,9.2,26.7C9.2,26.7,9.2,26.7,9.2,26.7z"/>
		<path class="st1" d="M9.4,26.9C9.4,26.9,9.3,26.9,9.4,26.9C9.3,26.9,9.3,26.9,9.4,26.9c-0.1-0.1-0.1-0.1-0.1-0.1v0c0,0,0,0,0-0.1
			c0,0,0,0,0,0c0,0,0,0,0,0c0,0,0,0,0,0c0,0,0,0,0,0c0,0,0,0,0,0c0,0,0,0,0,0c0,0,0,0,0,0v0H9.3v0C9.3,26.8,9.3,26.8,9.4,26.9
			C9.4,26.9,9.4,26.9,9.4,26.9C9.4,26.9,9.4,26.9,9.4,26.9C9.4,26.9,9.4,26.9,9.4,26.9C9.4,26.9,9.5,26.9,9.4,26.9
			c0.1,0,0.1-0.1,0.1-0.1l0,0c0,0,0,0,0,0C9.5,26.9,9.4,26.9,9.4,26.9C9.4,26.9,9.4,26.9,9.4,26.9z M9.4,26.7
			C9.4,26.7,9.4,26.7,9.4,26.7C9.4,26.7,9.4,26.7,9.4,26.7C9.3,26.8,9.3,26.8,9.4,26.7L9.4,26.7L9.4,26.7
			C9.5,26.8,9.5,26.8,9.4,26.7C9.5,26.7,9.5,26.7,9.4,26.7C9.5,26.7,9.5,26.7,9.4,26.7C9.4,26.7,9.4,26.7,9.4,26.7
			C9.4,26.7,9.4,26.7,9.4,26.7z"/>
		<path class="st1" d="M9.7,26.9C9.6,26.9,9.6,26.9,9.7,26.9C9.6,26.9,9.6,26.9,9.7,26.9c-0.1-0.1-0.1-0.1-0.1-0.1v0c0,0,0,0,0-0.1
			c0,0,0,0,0,0c0,0,0,0,0,0c0,0,0,0,0,0c0,0,0,0,0,0c0,0,0,0,0,0c0,0,0,0,0,0c0,0,0,0,0,0v0H9.6v0C9.6,26.8,9.6,26.8,9.7,26.9
			C9.6,26.9,9.6,26.9,9.7,26.9C9.7,26.9,9.7,26.9,9.7,26.9C9.7,26.9,9.7,26.9,9.7,26.9C9.7,26.9,9.7,26.9,9.7,26.9
			c0.1,0,0.1-0.1,0.1-0.1l0,0c0,0,0,0,0,0C9.8,26.9,9.7,26.9,9.7,26.9C9.7,26.9,9.7,26.9,9.7,26.9z M9.7,26.7
			C9.7,26.7,9.7,26.7,9.7,26.7C9.7,26.7,9.6,26.7,9.7,26.7C9.6,26.8,9.6,26.8,9.7,26.7L9.7,26.7L9.7,26.7
			C9.8,26.8,9.8,26.8,9.7,26.7C9.8,26.7,9.8,26.7,9.7,26.7C9.7,26.7,9.7,26.7,9.7,26.7C9.7,26.7,9.7,26.7,9.7,26.7
			C9.7,26.7,9.7,26.7,9.7,26.7z"/>
		<path class="st1" d="M10.2,26.8C10.2,26.7,10.2,26.7,10.2,26.8C10.2,26.7,10.2,26.7,10.2,26.8c0.1-0.1,0.1-0.1,0.1-0.1
			c0,0,0,0,0,0c0,0,0,0,0,0c0,0,0,0,0,0c0,0,0,0,0,0.1v0c0,0,0,0,0,0.1c0,0,0,0,0,0c0,0,0,0,0,0c0,0,0,0,0,0c0,0,0,0,0,0s0,0,0,0
			c0,0,0,0,0,0C10.2,26.8,10.2,26.8,10.2,26.8L10.2,26.8C10.2,26.8,10.2,26.8,10.2,26.8z M10.2,26.8C10.2,26.9,10.2,26.9,10.2,26.8
			C10.2,26.9,10.2,26.9,10.2,26.8C10.3,26.9,10.3,26.9,10.2,26.8C10.3,26.9,10.3,26.9,10.2,26.8c0.1,0,0.1,0,0.1,0c0,0,0,0,0,0
			c0,0,0,0,0,0v0c0,0,0,0,0,0c0,0,0,0,0,0c0,0,0,0,0,0c0,0,0,0,0,0c0,0,0,0,0,0c0,0,0,0,0,0C10.2,26.7,10.2,26.8,10.2,26.8
			C10.2,26.8,10.2,26.8,10.2,26.8L10.2,26.8C10.2,26.8,10.2,26.8,10.2,26.8z"/>
		<path class="st1" d="M10.5,26.7L10.5,26.7L10.5,26.7C10.5,26.7,10.5,26.7,10.5,26.7C10.5,26.7,10.5,26.7,10.5,26.7
			C10.5,26.7,10.5,26.7,10.5,26.7c0.1,0,0.1,0,0.1,0c0,0,0,0,0,0s0,0,0,0c0,0,0,0,0,0c0,0,0,0,0,0v0.2h0v-0.2c0,0,0,0,0,0
			c0,0,0,0,0,0c0,0,0,0,0,0c0,0,0,0,0,0C10.6,26.7,10.6,26.7,10.5,26.7C10.5,26.7,10.5,26.7,10.5,26.7
			C10.5,26.7,10.5,26.7,10.5,26.7C10.5,26.7,10.5,26.7,10.5,26.7l0,0.3h0V26.7z"/>
		<path class="st1" d="M10.9,26.6v0.3H11v0h-0.2v0h0.1L10.9,26.6l-0.1,0v0H10.9z"/>
		<path class="st1" d="M11.2,26.7v0.2h0.1v0H11v0h0.1L11.2,26.7l-0.1,0v0H11.2z M11.1,26.6C11.1,26.6,11.1,26.6,11.1,26.6
			C11.1,26.6,11.1,26.6,11.1,26.6C11.1,26.6,11.1,26.6,11.1,26.6C11.2,26.6,11.2,26.6,11.1,26.6C11.2,26.6,11.2,26.6,11.1,26.6
			C11.2,26.6,11.2,26.6,11.1,26.6C11.2,26.6,11.2,26.6,11.1,26.6C11.2,26.6,11.2,26.6,11.1,26.6C11.2,26.6,11.2,26.6,11.1,26.6
			C11.1,26.6,11.1,26.6,11.1,26.6C11.1,26.6,11.1,26.6,11.1,26.6C11.1,26.6,11.1,26.6,11.1,26.6z"/>
		<path class="st1" d="M11.3,26.7L11.3,26.7L11.3,26.7C11.4,26.7,11.4,26.7,11.3,26.7C11.4,26.7,11.4,26.7,11.3,26.7
			C11.4,26.7,11.4,26.7,11.3,26.7c0.1,0,0.1,0,0.1,0c0,0,0,0,0,0c0,0,0,0,0,0c0,0,0,0,0,0c0,0,0,0,0,0v0.2h0v-0.2c0,0,0,0,0,0
			c0,0,0,0,0,0c0,0,0,0,0,0c0,0,0,0,0,0C11.4,26.7,11.4,26.7,11.3,26.7C11.4,26.7,11.4,26.7,11.3,26.7
			C11.4,26.7,11.4,26.7,11.3,26.7C11.4,26.7,11.4,26.7,11.3,26.7l0,0.3h0V26.7z"/>
		<path class="st1" d="M11.7,26.9C11.7,26.9,11.7,26.9,11.7,26.9C11.6,26.9,11.6,26.9,11.7,26.9c-0.1-0.1-0.1-0.1-0.1-0.1v0
			c0,0,0,0,0-0.1c0,0,0,0,0,0c0,0,0,0,0,0c0,0,0,0,0,0c0,0,0,0,0,0s0,0,0,0c0,0,0,0,0,0c0,0,0,0,0,0v0h-0.2v0
			C11.7,26.8,11.7,26.8,11.7,26.9C11.7,26.9,11.7,26.9,11.7,26.9C11.7,26.9,11.7,26.9,11.7,26.9C11.7,26.9,11.7,26.9,11.7,26.9
			C11.7,26.9,11.8,26.9,11.7,26.9c0.1,0,0.1-0.1,0.1-0.1l0,0c0,0,0,0,0,0C11.8,26.9,11.8,26.9,11.7,26.9
			C11.7,26.9,11.7,26.9,11.7,26.9z M11.7,26.7C11.7,26.7,11.7,26.7,11.7,26.7C11.7,26.7,11.7,26.7,11.7,26.7
			C11.7,26.8,11.7,26.8,11.7,26.7L11.7,26.7L11.7,26.7C11.8,26.8,11.8,26.8,11.7,26.7C11.8,26.7,11.8,26.7,11.7,26.7
			C11.8,26.7,11.8,26.7,11.7,26.7C11.7,26.7,11.7,26.7,11.7,26.7C11.7,26.7,11.7,26.7,11.7,26.7z"/>
		<path class="st1" d="M12.4,26.9C12.4,26.9,12.4,26.8,12.4,26.9C12.3,26.8,12.3,26.8,12.4,26.9C12.3,26.8,12.3,26.8,12.4,26.9
			C12.3,26.8,12.3,26.8,12.4,26.9c-0.1,0-0.1,0-0.1-0.1c0,0,0,0,0,0s0,0,0,0c0,0,0,0,0,0c0,0,0,0,0,0c0,0,0,0,0,0c0,0,0,0,0,0
			c0,0,0,0,0,0c0,0,0,0,0,0c0,0,0,0,0,0C12.4,26.7,12.4,26.7,12.4,26.9L12.4,26.9c0-0.1,0-0.1,0-0.1c0,0,0,0,0,0c0,0,0,0,0,0
			c0,0,0,0,0,0c0,0,0,0,0,0c0,0,0,0,0,0c0,0,0,0,0,0c0,0,0,0,0,0c0,0,0,0,0,0c0,0,0,0,0,0C12.3,26.8,12.3,26.8,12.4,26.9
			C12.3,26.8,12.3,26.8,12.4,26.9C12.3,26.8,12.3,26.8,12.4,26.9C12.4,26.8,12.4,26.8,12.4,26.9C12.4,26.8,12.4,26.8,12.4,26.9
			C12.4,26.8,12.4,26.9,12.4,26.9C12.4,26.9,12.4,26.9,12.4,26.9C12.4,26.9,12.4,26.9,12.4,26.9C12.4,26.9,12.4,26.9,12.4,26.9
			C12.3,26.9,12.3,26.9,12.4,26.9c-0.1,0.1-0.1,0.1-0.1,0.1c0,0,0,0,0,0c0,0,0,0,0,0c0,0,0,0,0,0h0c0,0,0,0,0,0
			C12.2,26.9,12.3,26.9,12.4,26.9C12.3,26.9,12.3,26.9,12.4,26.9C12.3,26.9,12.3,26.9,12.4,26.9C12.3,26.9,12.3,26.9,12.4,26.9
			C12.3,26.9,12.3,26.9,12.4,26.9C12.4,26.9,12.4,26.9,12.4,26.9C12.4,26.9,12.4,26.9,12.4,26.9C12.4,26.9,12.4,26.9,12.4,26.9z"/>
		<path class="st1" d="M12.6,26.9C12.6,26.9,12.6,26.9,12.6,26.9C12.6,26.9,12.6,26.9,12.6,26.9C12.6,26.9,12.6,26.9,12.6,26.9
			L12.6,26.9C12.7,26.9,12.7,26.9,12.6,26.9C12.7,26.9,12.7,26.9,12.6,26.9C12.6,26.9,12.6,26.9,12.6,26.9
			C12.6,26.9,12.6,26.9,12.6,26.9C12.6,26.9,12.6,26.9,12.6,26.9c-0.1,0-0.1,0-0.1,0c0,0,0,0,0,0c0,0,0,0,0,0v0c0,0,0,0,0,0
			c0,0,0,0,0,0c0,0,0,0,0,0c0,0,0,0,0.1,0c0,0,0,0,0,0c0,0,0,0,0,0c0,0,0,0,0,0s0,0,0,0h0c0,0,0,0,0,0c0,0,0,0,0,0s0,0,0,0
			c0,0,0,0,0,0c0,0,0,0,0,0c0,0,0,0,0,0c0,0,0,0,0,0C12.5,26.8,12.5,26.8,12.6,26.9L12.6,26.9C12.5,26.8,12.5,26.8,12.6,26.9
			C12.5,26.9,12.5,26.9,12.6,26.9C12.5,26.9,12.5,26.9,12.6,26.9C12.6,26.9,12.6,26.9,12.6,26.9C12.6,26.9,12.6,26.9,12.6,26.9z"/>
		<path class="st1" d="M12.8,26.7C12.8,26.7,12.8,26.7,12.8,26.7C12.8,26.7,12.9,26.7,12.8,26.7C12.9,26.7,12.9,26.7,12.8,26.7
			c0.1,0,0.1,0,0.1,0c0,0,0,0,0,0c0,0,0,0,0,0c0,0,0,0,0,0v0.2h0v-0.2c0,0,0,0,0,0C12.9,26.7,12.9,26.7,12.8,26.7
			C12.9,26.7,12.9,26.7,12.8,26.7C12.9,26.7,12.9,26.7,12.8,26.7C12.9,26.7,12.9,26.7,12.8,26.7C12.8,26.7,12.8,26.7,12.8,26.7
			C12.8,26.7,12.8,26.7,12.8,26.7C12.8,26.7,12.8,26.7,12.8,26.7l0,0.2h0v-0.4h0L12.8,26.7C12.8,26.7,12.8,26.7,12.8,26.7z"/>
		<path class="st1" d="M13.1,26.8C13.1,26.7,13.1,26.7,13.1,26.8C13.1,26.7,13.1,26.7,13.1,26.8c0.1-0.1,0.1-0.1,0.1-0.1
			c0,0,0,0,0,0c0,0,0,0,0,0c0,0,0,0,0,0c0,0,0,0,0,0.1v0c0,0,0,0,0,0.1c0,0,0,0,0,0c0,0,0,0,0,0s0,0,0,0c0,0,0,0,0,0c0,0,0,0,0,0
			c0,0,0,0,0,0C13,26.8,13,26.8,13.1,26.8L13.1,26.8C13,26.8,13,26.8,13.1,26.8z M13.1,26.8C13.1,26.9,13.1,26.9,13.1,26.8
			C13.1,26.9,13.1,26.9,13.1,26.8C13.1,26.9,13.1,26.9,13.1,26.8C13.2,26.9,13.2,26.9,13.1,26.8c0.1,0,0.1,0,0.1,0c0,0,0,0,0,0
			c0,0,0,0,0,0v0c0,0,0,0,0,0c0,0,0,0,0,0c0,0,0,0,0,0c0,0,0,0,0,0c0,0,0,0,0,0c0,0,0,0,0,0C13.1,26.7,13.1,26.8,13.1,26.8
			C13.1,26.8,13.1,26.8,13.1,26.8L13.1,26.8C13.1,26.8,13.1,26.8,13.1,26.8z"/>
		<path class="st1" d="M13.3,26.8C13.3,26.7,13.4,26.7,13.3,26.8C13.4,26.7,13.4,26.7,13.3,26.8c0.1-0.1,0.1-0.1,0.1-0.1
			c0,0,0,0,0,0c0,0,0,0,0,0c0,0,0,0,0,0c0,0,0,0,0,0.1v0c0,0,0,0,0,0.1c0,0,0,0,0,0c0,0,0,0,0,0c0,0,0,0,0,0c0,0,0,0,0,0s0,0,0,0
			c0,0,0,0,0,0C13.3,26.8,13.3,26.8,13.3,26.8L13.3,26.8C13.3,26.8,13.3,26.8,13.3,26.8z M13.4,26.8C13.4,26.9,13.4,26.9,13.4,26.8
			C13.4,26.9,13.4,26.9,13.4,26.8C13.4,26.9,13.4,26.9,13.4,26.8C13.5,26.9,13.5,26.9,13.4,26.8c0.1,0,0.1,0,0.1,0c0,0,0,0,0,0
			c0,0,0,0,0,0v0c0,0,0,0,0,0c0,0,0,0,0,0c0,0,0,0,0,0c0,0,0,0,0,0c0,0,0,0,0,0c0,0,0,0,0,0C13.4,26.7,13.4,26.8,13.4,26.8
			C13.4,26.8,13.4,26.8,13.4,26.8L13.4,26.8C13.4,26.8,13.4,26.8,13.4,26.8z"/>
		<path class="st1" d="M13.8,26.6v0.3h0.1v0h-0.2v0h0.1L13.8,26.6l-0.1,0v0H13.8z"/>
		<path class="st1" d="M13.9,26.8L13.9,26.8l0.2-0.1v0L13.9,26.8L13.9,26.8L13.9,26.8l0.2,0v0L13.9,26.8z"/>
		<path class="st1" d="M14.2,27l0.1-0.4h0L14.2,27L14.2,27z"/>
		<path class="st1" d="M14.6,26.7C14.6,26.7,14.6,26.7,14.6,26.7C14.6,26.7,14.6,26.7,14.6,26.7C14.6,26.7,14.6,26.7,14.6,26.7
			c0.1,0,0.1,0,0.1,0c0,0,0,0,0,0c0,0,0,0,0,0c0,0,0,0,0,0v0.2h0v-0.2c0,0,0,0,0,0C14.7,26.7,14.7,26.7,14.6,26.7
			C14.6,26.7,14.6,26.7,14.6,26.7C14.6,26.7,14.6,26.7,14.6,26.7C14.6,26.7,14.6,26.7,14.6,26.7C14.6,26.7,14.6,26.7,14.6,26.7
			C14.6,26.7,14.6,26.7,14.6,26.7C14.5,26.7,14.5,26.7,14.6,26.7l0,0.2h0v-0.4h0L14.6,26.7C14.5,26.7,14.5,26.7,14.6,26.7z"/>
		<path class="st1" d="M14.9,26.9v-0.3l-0.1,0v0l0.1,0h0L14.9,26.9L14.9,26.9z"/>
		<path class="st1" d="M15.1,26.8l0.2-0.1l0,0l0,0l-0.2-0.1v0l0.2,0.1v0L15.1,26.8L15.1,26.8z"/>
		<path class="st1" d="M7.6,27.5L7.6,27.5l0.2-0.1v0L7.6,27.5L7.6,27.5L7.6,27.5l0.2,0v0L7.6,27.5z"/>
		<path class="st1" d="M7.9,27.5L7.9,27.5L7.9,27.5L7.9,27.5L7.9,27.5C7.9,27.4,7.9,27.4,7.9,27.5c0-0.1,0-0.1,0-0.1c0,0,0,0,0,0
			c0,0,0,0,0,0c0,0,0,0,0,0c0,0,0,0,0,0c0,0,0,0,0,0s0,0,0,0l0,0c0,0,0,0,0,0c0,0,0,0,0,0c0,0,0,0,0,0C8,27.3,8,27.4,7.9,27.5
			C8,27.4,8,27.4,7.9,27.5C8,27.4,8,27.4,7.9,27.5L7.9,27.5l0.1,0v0H7.9l0,0.2h0V27.5z"/>
		<path class="st1" d="M8.2,27.5C8.2,27.5,8.2,27.5,8.2,27.5C8.2,27.4,8.2,27.4,8.2,27.5c0.1-0.1,0.1-0.1,0.1-0.1c0,0,0,0,0,0
			s0,0,0,0c0,0,0,0,0,0c0,0,0,0,0,0.1v0c0,0,0,0,0,0.1c0,0,0,0,0,0c0,0,0,0,0,0c0,0,0,0,0,0c0,0,0,0,0,0c0,0,0,0,0,0c0,0,0,0,0,0
			C8.1,27.6,8.1,27.6,8.2,27.5L8.2,27.5C8.1,27.5,8.1,27.5,8.2,27.5z M8.2,27.6C8.2,27.6,8.2,27.6,8.2,27.6
			C8.2,27.6,8.2,27.6,8.2,27.6C8.2,27.6,8.2,27.6,8.2,27.6C8.3,27.6,8.3,27.6,8.2,27.6c0.1,0,0.1,0,0.1,0c0,0,0,0,0,0c0,0,0,0,0,0v0
			c0,0,0,0,0,0c0,0,0,0,0,0c0,0,0,0,0,0c0,0,0,0,0,0c0,0,0,0,0,0c0,0,0,0,0,0C8.2,27.5,8.2,27.5,8.2,27.6
			C8.2,27.5,8.2,27.5,8.2,27.6L8.2,27.6C8.2,27.6,8.2,27.6,8.2,27.6z"/>
		<path class="st1" d="M8.6,27.4C8.6,27.4,8.7,27.4,8.6,27.4L8.6,27.4C8.6,27.5,8.6,27.5,8.6,27.4C8.6,27.5,8.6,27.5,8.6,27.4
			C8.6,27.5,8.6,27.5,8.6,27.4C8.6,27.5,8.6,27.5,8.6,27.4c-0.1,0.1-0.1,0.1-0.1,0.1c0,0,0,0,0,0v0.2h0v-0.3h0l0,0l0,0
			C8.5,27.4,8.5,27.4,8.6,27.4C8.6,27.4,8.6,27.4,8.6,27.4C8.6,27.4,8.6,27.4,8.6,27.4z"/>
		<path class="st1" d="M8.8,27.4C8.8,27.4,8.8,27.4,8.8,27.4C8.8,27.4,8.8,27.4,8.8,27.4C8.8,27.4,8.8,27.4,8.8,27.4
			C8.8,27.4,8.8,27.4,8.8,27.4C8.8,27.4,8.8,27.4,8.8,27.4C8.8,27.4,8.8,27.4,8.8,27.4c0.1,0,0.1,0,0.1,0c0,0,0,0,0,0c0,0,0,0,0,0
			s0,0,0,0c0,0,0,0,0,0c0,0,0,0,0,0c0,0,0,0,0,0s0,0,0,0v0.2h0v-0.2c0,0,0,0,0,0c0,0,0,0,0,0c0,0,0,0,0,0c0,0,0,0,0,0c0,0,0,0,0,0
			c0,0,0,0,0,0c0,0,0,0,0,0c0,0,0,0,0,0c0,0,0,0,0,0c0,0,0,0,0,0v0.2h0L8.8,27.4C8.8,27.5,8.8,27.5,8.8,27.4
			C8.8,27.5,8.8,27.5,8.8,27.4C8.8,27.5,8.8,27.5,8.8,27.4C8.8,27.5,8.8,27.5,8.8,27.4C8.8,27.5,8.8,27.5,8.8,27.4
			C8.8,27.5,8.8,27.5,8.8,27.4C8.8,27.5,8.8,27.5,8.8,27.4C8.8,27.5,8.8,27.5,8.8,27.4l0,0.2h0L8.8,27.4L8.8,27.4L8.8,27.4z"/>
		<path class="st1" d="M9.5,27.7C9.5,27.7,9.5,27.7,9.5,27.7C9.5,27.7,9.5,27.7,9.5,27.7C9.4,27.7,9.4,27.7,9.5,27.7
			C9.4,27.7,9.4,27.7,9.5,27.7C9.4,27.7,9.4,27.7,9.5,27.7c-0.1,0-0.1,0-0.1,0c0,0,0,0,0,0c0,0,0,0,0,0c0,0,0,0,0,0c0,0,0,0,0,0
			c0,0,0,0,0,0c0,0,0,0,0,0c0,0,0,0,0,0h0v0c0,0,0,0,0,0c0,0,0,0,0,0c0,0,0,0,0,0c0,0,0,0,0,0c0,0,0,0,0,0c0,0,0,0,0,0c0,0,0,0,0,0
			c0,0,0,0,0,0h0c0,0,0,0,0,0c0,0,0,0,0,0c0,0,0,0,0,0c0,0,0,0,0,0c0,0,0,0,0,0c0,0,0,0,0,0c0,0,0,0,0,0c0,0,0,0,0,0L9.5,27.7
			C9.5,27.6,9.5,27.6,9.5,27.7C9.5,27.7,9.5,27.7,9.5,27.7L9.5,27.7L9.5,27.7C9.5,27.7,9.5,27.7,9.5,27.7z M9.4,27.6
			C9.4,27.6,9.4,27.6,9.4,27.6C9.4,27.6,9.5,27.6,9.4,27.6C9.5,27.6,9.5,27.6,9.4,27.6L9.4,27.6L9.4,27.6
			C9.4,27.6,9.4,27.6,9.4,27.6C9.4,27.6,9.4,27.6,9.4,27.6C9.4,27.6,9.4,27.6,9.4,27.6C9.3,27.6,9.3,27.6,9.4,27.6
			C9.3,27.6,9.3,27.6,9.4,27.6C9.4,27.6,9.4,27.6,9.4,27.6C9.4,27.6,9.4,27.6,9.4,27.6C9.4,27.6,9.4,27.6,9.4,27.6
			C9.4,27.6,9.4,27.6,9.4,27.6z"/>
		<path class="st1" d="M9.7,27.6C9.7,27.6,9.7,27.6,9.7,27.6C9.8,27.6,9.8,27.6,9.7,27.6C9.8,27.6,9.8,27.6,9.7,27.6L9.7,27.6
			C9.8,27.6,9.8,27.6,9.7,27.6C9.8,27.6,9.8,27.6,9.7,27.6C9.8,27.7,9.8,27.7,9.7,27.6C9.7,27.7,9.7,27.7,9.7,27.6
			C9.7,27.7,9.7,27.7,9.7,27.6c-0.1,0-0.1,0-0.1,0c0,0,0,0,0,0c0,0,0,0,0,0v0c0,0,0,0,0,0c0,0,0,0,0,0c0,0,0,0,0,0c0,0,0,0,0.1,0
			c0,0,0,0,0,0c0,0,0,0,0,0c0,0,0,0,0,0c0,0,0,0,0,0h0c0,0,0,0,0,0c0,0,0,0,0,0c0,0,0,0,0,0c0,0,0,0,0,0c0,0,0,0,0,0c0,0,0,0,0,0
			c0,0,0,0,0,0C9.6,27.5,9.6,27.5,9.7,27.6L9.7,27.6C9.6,27.6,9.6,27.6,9.7,27.6C9.6,27.6,9.6,27.6,9.7,27.6
			C9.7,27.6,9.7,27.6,9.7,27.6C9.7,27.6,9.7,27.6,9.7,27.6C9.7,27.6,9.7,27.6,9.7,27.6z"/>
		<path class="st1" d="M10,27.4L10,27.4L10,27.4L10,27.4v0.2c0,0,0,0,0,0c0,0,0,0,0,0c0,0,0,0,0,0c0,0,0,0,0,0c0,0,0,0,0,0
			c0,0,0,0,0,0c0,0,0,0,0,0c0,0,0,0,0,0l0,0c0,0,0,0,0,0c0,0,0,0,0,0c0,0,0,0,0,0c0,0,0,0,0,0c0,0,0,0,0,0c0,0,0,0,0,0c0,0,0,0,0,0
			c0,0,0,0,0,0L10,27.4l-0.1,0v0H10L10,27.4L10,27.4L10,27.4z"/>
		<path class="st1" d="M10.3,27.4v0.2h0.1v0h-0.2v0h0.1L10.3,27.4l-0.1,0v0H10.3z M10.3,27.3C10.3,27.3,10.3,27.3,10.3,27.3
			C10.3,27.3,10.3,27.3,10.3,27.3C10.3,27.3,10.3,27.3,10.3,27.3C10.3,27.3,10.3,27.3,10.3,27.3C10.3,27.3,10.3,27.3,10.3,27.3
			C10.3,27.3,10.3,27.3,10.3,27.3C10.3,27.3,10.3,27.4,10.3,27.3C10.3,27.4,10.3,27.4,10.3,27.3C10.3,27.4,10.3,27.4,10.3,27.3
			C10.3,27.4,10.3,27.4,10.3,27.3C10.3,27.4,10.3,27.4,10.3,27.3C10.3,27.4,10.3,27.3,10.3,27.3z"/>
		<path class="st1" d="M10.5,27.5C10.5,27.5,10.5,27.5,10.5,27.5C10.5,27.4,10.5,27.4,10.5,27.5c0.1-0.1,0.1-0.1,0.1-0.1
			c0,0,0,0,0,0s0,0,0,0c0,0,0,0,0,0s0,0,0,0.1v0c0,0,0,0,0,0.1c0,0,0,0,0,0c0,0,0,0,0,0c0,0,0,0,0,0c0,0,0,0,0,0c0,0,0,0,0,0
			c0,0,0,0,0,0C10.5,27.6,10.4,27.6,10.5,27.5L10.5,27.5C10.4,27.5,10.5,27.5,10.5,27.5z M10.5,27.6C10.5,27.6,10.5,27.6,10.5,27.6
			C10.5,27.6,10.5,27.6,10.5,27.6C10.5,27.6,10.6,27.6,10.5,27.6C10.6,27.6,10.6,27.6,10.5,27.6c0.1,0,0.1,0,0.1,0c0,0,0,0,0,0
			c0,0,0,0,0,0v0c0,0,0,0,0,0c0,0,0,0,0,0c0,0,0,0,0,0c0,0,0,0,0,0c0,0,0,0,0,0c0,0,0,0,0,0C10.5,27.5,10.5,27.5,10.5,27.6
			C10.5,27.5,10.5,27.5,10.5,27.6L10.5,27.6C10.5,27.6,10.5,27.6,10.5,27.6z"/>
		<path class="st1" d="M10.8,27.4L10.8,27.4L10.8,27.4C10.8,27.5,10.8,27.4,10.8,27.4C10.8,27.4,10.8,27.4,10.8,27.4
			C10.8,27.4,10.8,27.4,10.8,27.4c0.1,0,0.1,0,0.1,0c0,0,0,0,0,0c0,0,0,0,0,0c0,0,0,0,0,0c0,0,0,0,0,0v0.2h0v-0.2c0,0,0,0,0,0
			c0,0,0,0,0,0c0,0,0,0,0,0c0,0,0,0,0,0C10.9,27.5,10.8,27.5,10.8,27.4C10.8,27.5,10.8,27.5,10.8,27.4
			C10.8,27.5,10.8,27.5,10.8,27.4C10.8,27.5,10.8,27.5,10.8,27.4l0,0.3h0V27.4z"/>
		<path class="st1" d="M11,27.5L11,27.5l0.2,0v0H11z M11,27.6L11,27.6l0.2,0v0H11z"/>
		<path class="st1" d="M11.4,27.4L11.4,27.4L11.4,27.4l0-0.1h0L11.4,27.4L11.4,27.4z M11.5,27.4L11.5,27.4L11.5,27.4l0-0.1h0
			L11.5,27.4L11.5,27.4z"/>
		<path class="st1" d="M11.8,27.4C11.8,27.4,11.8,27.4,11.8,27.4L11.8,27.4C11.8,27.5,11.8,27.5,11.8,27.4
			C11.8,27.5,11.8,27.5,11.8,27.4C11.8,27.5,11.8,27.5,11.8,27.4C11.7,27.5,11.7,27.5,11.8,27.4c-0.1,0.1-0.1,0.1-0.1,0.1
			c0,0,0,0,0,0v0.2h0v-0.3h0l0,0l0,0C11.7,27.4,11.7,27.4,11.8,27.4C11.7,27.4,11.8,27.4,11.8,27.4C11.8,27.4,11.8,27.4,11.8,27.4z"
			/>
		<path class="st1" d="M11.9,27.5C11.9,27.5,11.9,27.5,11.9,27.5C11.9,27.4,11.9,27.4,11.9,27.5c0.1-0.1,0.1-0.1,0.1-0.1
			c0,0,0,0,0,0c0,0,0,0,0,0c0,0,0,0,0,0c0,0,0,0,0,0.1v0c0,0,0,0,0,0.1c0,0,0,0,0,0c0,0,0,0,0,0c0,0,0,0,0,0c0,0,0,0,0,0
			c0,0,0,0,0,0c0,0,0,0,0,0C11.9,27.6,11.9,27.6,11.9,27.5L11.9,27.5C11.9,27.5,11.9,27.5,11.9,27.5z M11.9,27.6
			C11.9,27.6,11.9,27.6,11.9,27.6C12,27.6,12,27.6,11.9,27.6C12,27.6,12,27.6,11.9,27.6C12,27.6,12,27.6,11.9,27.6
			c0.1,0,0.1,0,0.1,0c0,0,0,0,0,0c0,0,0,0,0,0v0c0,0,0,0,0,0c0,0,0,0,0,0c0,0,0,0,0,0c0,0,0,0,0,0c0,0,0,0,0,0c0,0,0,0,0,0
			C11.9,27.5,11.9,27.5,11.9,27.6C11.9,27.5,11.9,27.5,11.9,27.6L11.9,27.6C11.9,27.6,11.9,27.6,11.9,27.6z"/>
		<path class="st1" d="M12.4,27.6C12.4,27.6,12.4,27.6,12.4,27.6C12.4,27.6,12.4,27.6,12.4,27.6C12.4,27.7,12.4,27.7,12.4,27.6
			C12.3,27.7,12.3,27.7,12.4,27.6C12.3,27.7,12.3,27.7,12.4,27.6c-0.1,0.1-0.1,0.1-0.1,0.1s0,0,0,0c0,0,0,0,0,0c0,0,0,0,0,0l0,0h0
			v-0.4h0v0.1c0,0,0,0,0,0c0,0,0,0,0,0c0,0,0,0,0,0c0,0,0,0,0,0c0,0,0,0,0,0c0,0,0,0,0,0c0,0,0,0,0,0c0,0,0,0,0,0
			C12.4,27.5,12.4,27.5,12.4,27.6C12.4,27.5,12.4,27.5,12.4,27.6L12.4,27.6C12.4,27.6,12.4,27.6,12.4,27.6z M12.4,27.5
			C12.4,27.5,12.4,27.5,12.4,27.5C12.4,27.5,12.4,27.5,12.4,27.5C12.3,27.5,12.3,27.5,12.4,27.5C12.3,27.5,12.3,27.5,12.4,27.5
			C12.3,27.5,12.3,27.5,12.4,27.5C12.3,27.5,12.3,27.5,12.4,27.5c-0.1-0.1-0.1-0.1-0.1-0.1c0,0,0,0,0,0c0,0,0,0,0,0v0.1c0,0,0,0,0,0
			c0,0,0,0,0,0c0,0,0,0,0,0c0,0,0,0,0,0c0,0,0,0,0,0c0,0,0,0,0,0C12.3,27.6,12.3,27.6,12.4,27.5C12.4,27.6,12.4,27.6,12.4,27.5
			C12.4,27.6,12.4,27.6,12.4,27.5C12.4,27.6,12.4,27.6,12.4,27.5L12.4,27.5C12.4,27.5,12.4,27.5,12.4,27.5z"/>
		<path class="st1" d="M12.5,27.5C12.5,27.5,12.5,27.5,12.5,27.5C12.5,27.4,12.5,27.4,12.5,27.5c0.1-0.1,0.1-0.1,0.1-0.1
			c0,0,0,0,0,0c0,0,0,0,0,0c0,0,0,0,0,0c0,0,0,0,0,0.1v0c0,0,0,0,0,0.1c0,0,0,0,0,0c0,0,0,0,0,0c0,0,0,0,0,0c0,0,0,0,0,0s0,0,0,0
			c0,0,0,0,0,0C12.5,27.6,12.5,27.6,12.5,27.5L12.5,27.5C12.5,27.5,12.5,27.5,12.5,27.5z M12.5,27.6C12.5,27.6,12.5,27.6,12.5,27.6
			C12.5,27.6,12.5,27.6,12.5,27.6C12.6,27.6,12.6,27.6,12.5,27.6C12.6,27.6,12.6,27.6,12.5,27.6c0.1,0,0.1,0,0.1,0c0,0,0,0,0,0
			c0,0,0,0,0,0v0c0,0,0,0,0,0c0,0,0,0,0,0c0,0,0,0,0,0c0,0,0,0,0,0c0,0,0,0,0,0c0,0,0,0,0,0C12.5,27.5,12.5,27.5,12.5,27.6
			C12.5,27.5,12.5,27.5,12.5,27.6L12.5,27.6C12.5,27.6,12.5,27.6,12.5,27.6z"/>
		<path class="st1" d="M12.8,27.4L12.8,27.4L12.8,27.4C12.8,27.5,12.8,27.4,12.8,27.4C12.8,27.4,12.8,27.4,12.8,27.4
			C12.8,27.4,12.9,27.4,12.8,27.4c0.1,0,0.1,0,0.1,0c0,0,0,0,0,0c0,0,0,0,0,0c0,0,0,0,0,0c0,0,0,0,0,0v0.2h0v-0.2c0,0,0,0,0,0
			c0,0,0,0,0,0c0,0,0,0,0,0c0,0,0,0,0,0C12.9,27.5,12.9,27.5,12.8,27.4C12.8,27.5,12.8,27.5,12.8,27.4
			C12.8,27.5,12.8,27.5,12.8,27.4C12.8,27.5,12.8,27.5,12.8,27.4l0,0.3h0V27.4z"/>
		<path class="st1" d="M13.1,27.5C13.1,27.5,13.1,27.5,13.1,27.5C13.1,27.4,13.1,27.4,13.1,27.5c0.1-0.1,0.1-0.1,0.1-0.1
			c0,0,0,0,0,0s0,0,0,0c0,0,0,0,0,0c0,0,0,0,0,0.1v0c0,0,0,0,0,0.1c0,0,0,0,0,0c0,0,0,0,0,0s0,0,0,0c0,0,0,0,0,0c0,0,0,0,0,0
			c0,0,0,0,0,0C13,27.6,13,27.6,13.1,27.5L13.1,27.5C13,27.5,13,27.5,13.1,27.5z M13.1,27.6C13.1,27.6,13.1,27.6,13.1,27.6
			C13.1,27.6,13.1,27.6,13.1,27.6C13.1,27.6,13.1,27.6,13.1,27.6C13.2,27.6,13.2,27.6,13.1,27.6c0.1,0,0.1,0,0.1,0c0,0,0,0,0,0
			c0,0,0,0,0,0v0c0,0,0,0,0,0c0,0,0,0,0,0c0,0,0,0,0,0c0,0,0,0,0,0c0,0,0,0,0,0c0,0,0,0,0,0C13.1,27.5,13.1,27.5,13.1,27.6
			C13.1,27.5,13.1,27.5,13.1,27.6L13.1,27.6C13.1,27.6,13.1,27.6,13.1,27.6z"/>
		<path class="st1" d="M13.4,27.4C13.4,27.4,13.4,27.4,13.4,27.4C13.4,27.4,13.4,27.4,13.4,27.4C13.4,27.4,13.4,27.4,13.4,27.4
			C13.4,27.4,13.4,27.4,13.4,27.4C13.5,27.4,13.5,27.4,13.4,27.4C13.5,27.4,13.5,27.4,13.4,27.4c0.1,0,0.1,0,0.1,0c0,0,0,0,0,0
			c0,0,0,0,0,0c0,0,0,0,0,0c0,0,0,0,0,0c0,0,0,0,0,0c0,0,0,0,0,0c0,0,0,0,0,0v0.2h0v-0.2c0,0,0,0,0,0c0,0,0,0,0,0c0,0,0,0,0,0
			c0,0,0,0,0,0c0,0,0,0,0,0c0,0,0,0,0,0c0,0,0,0,0,0c0,0,0,0,0,0c0,0,0,0,0,0c0,0,0,0,0,0v0.2h0L13.4,27.4
			C13.4,27.5,13.4,27.5,13.4,27.4C13.4,27.5,13.4,27.5,13.4,27.4C13.4,27.5,13.4,27.5,13.4,27.4C13.4,27.5,13.4,27.5,13.4,27.4
			C13.4,27.5,13.4,27.5,13.4,27.4C13.4,27.5,13.4,27.5,13.4,27.4C13.4,27.5,13.4,27.5,13.4,27.4C13.4,27.5,13.4,27.5,13.4,27.4
			l0,0.2h0L13.4,27.4L13.4,27.4L13.4,27.4z"/>
		<path class="st1" d="M13.8,27.4v0.2h0.1v0h-0.2v0h0.1L13.8,27.4l-0.1,0v0H13.8z M13.7,27.3C13.7,27.3,13.7,27.3,13.7,27.3
			C13.7,27.3,13.7,27.3,13.7,27.3C13.7,27.3,13.7,27.3,13.7,27.3C13.8,27.3,13.8,27.3,13.7,27.3C13.8,27.3,13.8,27.3,13.7,27.3
			C13.8,27.3,13.8,27.3,13.7,27.3C13.8,27.3,13.8,27.4,13.7,27.3C13.8,27.4,13.8,27.4,13.7,27.3C13.8,27.4,13.8,27.4,13.7,27.3
			C13.7,27.4,13.7,27.4,13.7,27.3C13.7,27.4,13.7,27.4,13.7,27.3C13.7,27.4,13.7,27.3,13.7,27.3z"/>
		<path class="st1" d="M14.1,27.6C14.1,27.6,14.1,27.6,14.1,27.6C14.1,27.6,14.1,27.6,14.1,27.6C14.1,27.6,14.1,27.6,14.1,27.6
			L14.1,27.6C14.1,27.6,14.1,27.6,14.1,27.6C14.1,27.6,14.1,27.6,14.1,27.6C14.1,27.7,14.1,27.7,14.1,27.6
			C14.1,27.7,14,27.7,14.1,27.6C14,27.7,14,27.7,14.1,27.6c-0.1,0-0.1,0-0.1,0c0,0,0,0,0,0c0,0,0,0,0,0v0c0,0,0,0,0,0c0,0,0,0,0,0
			c0,0,0,0,0,0c0,0,0,0,0.1,0c0,0,0,0,0,0c0,0,0,0,0,0c0,0,0,0,0,0c0,0,0,0,0,0h0c0,0,0,0,0,0c0,0,0,0,0,0c0,0,0,0,0,0c0,0,0,0,0,0
			c0,0,0,0,0,0c0,0,0,0,0,0c0,0,0,0,0,0C14,27.5,14,27.5,14.1,27.6L14.1,27.6C14,27.6,14,27.6,14.1,27.6C14,27.6,14,27.6,14.1,27.6
			C14,27.6,14,27.6,14.1,27.6C14,27.6,14,27.6,14.1,27.6C14,27.6,14,27.6,14.1,27.6z"/>
		<path class="st1" d="M14.4,27.6C14.4,27.6,14.4,27.6,14.4,27.6C14.4,27.6,14.4,27.6,14.4,27.6C14.3,27.6,14.3,27.6,14.4,27.6
			C14.3,27.6,14.3,27.6,14.4,27.6c-0.1,0-0.1,0-0.1-0.1c0,0,0,0,0,0c0,0,0,0,0,0c0,0,0,0,0,0s0,0,0,0c0,0,0,0,0,0c0,0,0,0,0,0
			c0,0,0,0,0,0c0,0,0,0,0,0c0,0,0,0,0,0C14.4,27.5,14.4,27.5,14.4,27.6L14.4,27.6c0-0.1,0-0.1,0-0.1c0,0,0,0,0,0c0,0,0,0,0,0
			c0,0,0,0,0,0c0,0,0,0,0,0c0,0,0,0,0,0c0,0,0,0,0,0c0,0,0,0,0,0c0,0,0,0,0,0c0,0,0,0,0,0C14.3,27.5,14.3,27.5,14.4,27.6
			C14.3,27.5,14.3,27.5,14.4,27.6C14.3,27.5,14.4,27.5,14.4,27.6C14.4,27.5,14.4,27.5,14.4,27.6C14.4,27.6,14.4,27.6,14.4,27.6
			C14.4,27.6,14.4,27.6,14.4,27.6C14.4,27.6,14.4,27.6,14.4,27.6C14.4,27.6,14.4,27.7,14.4,27.6C14.4,27.7,14.4,27.7,14.4,27.6
			C14.3,27.7,14.3,27.7,14.4,27.6c-0.1,0.1-0.1,0.1-0.1,0.1c0,0,0,0,0,0c0,0,0,0,0,0c0,0,0,0,0,0h0c0,0,0,0,0,0
			C14.3,27.6,14.3,27.6,14.4,27.6C14.3,27.6,14.3,27.6,14.4,27.6C14.3,27.6,14.3,27.6,14.4,27.6C14.3,27.6,14.3,27.6,14.4,27.6
			C14.4,27.6,14.4,27.6,14.4,27.6C14.4,27.6,14.4,27.6,14.4,27.6C14.4,27.6,14.4,27.6,14.4,27.6C14.4,27.6,14.4,27.6,14.4,27.6z"/>
		<path class="st1" d="M14.6,27.6C14.6,27.6,14.6,27.6,14.6,27.6C14.6,27.6,14.6,27.6,14.6,27.6C14.6,27.6,14.6,27.6,14.6,27.6
			C14.6,27.7,14.6,27.7,14.6,27.6C14.6,27.7,14.6,27.7,14.6,27.6C14.6,27.7,14.6,27.7,14.6,27.6C14.6,27.7,14.6,27.7,14.6,27.6
			C14.6,27.6,14.6,27.6,14.6,27.6z"/>
		<path class="st1" d="M14.9,27.7C14.9,27.7,14.9,27.7,14.9,27.7C14.9,27.7,14.9,27.7,14.9,27.7C14.9,27.7,14.9,27.7,14.9,27.7
			C14.9,27.7,14.9,27.7,14.9,27.7C14.9,27.7,14.9,27.7,14.9,27.7c-0.1,0-0.1,0-0.1,0c0,0,0,0,0,0c0,0,0,0,0,0c0,0,0,0,0,0
			c0,0,0,0,0,0c0,0,0,0,0,0c0,0,0,0,0,0c0,0,0,0,0,0h0v0c0,0,0,0,0,0c0,0,0,0,0,0c0,0,0,0,0,0c0,0,0,0,0,0c0,0,0,0,0,0c0,0,0,0,0,0
			c0,0,0,0,0,0c0,0,0,0,0,0h0c0,0,0,0,0,0c0,0,0,0,0,0c0,0,0,0,0,0c0,0,0,0,0,0c0,0,0,0,0,0c0,0,0,0,0,0c0,0,0,0,0,0s0,0,0,0
			L14.9,27.7C15,27.6,15,27.6,14.9,27.7C15,27.7,15,27.7,14.9,27.7L14.9,27.7L14.9,27.7C15,27.7,14.9,27.7,14.9,27.7z M14.9,27.6
			C14.9,27.6,14.9,27.6,14.9,27.6C14.9,27.6,14.9,27.6,14.9,27.6C14.9,27.6,14.9,27.6,14.9,27.6L14.9,27.6L14.9,27.6
			C14.9,27.6,14.9,27.6,14.9,27.6C14.9,27.6,14.8,27.6,14.9,27.6C14.8,27.6,14.8,27.6,14.9,27.6C14.8,27.6,14.8,27.6,14.9,27.6
			C14.8,27.6,14.8,27.6,14.9,27.6C14.8,27.6,14.8,27.6,14.9,27.6C14.8,27.6,14.8,27.6,14.9,27.6C14.9,27.6,14.9,27.6,14.9,27.6
			C14.9,27.6,14.9,27.6,14.9,27.6z"/>
		<path class="st1" d="M15.2,27.6C15.2,27.6,15.2,27.6,15.2,27.6C15.2,27.6,15.2,27.6,15.2,27.6C15.2,27.6,15.2,27.6,15.2,27.6
			L15.2,27.6C15.3,27.6,15.3,27.6,15.2,27.6C15.3,27.6,15.3,27.6,15.2,27.6C15.2,27.7,15.2,27.7,15.2,27.6
			C15.2,27.7,15.2,27.7,15.2,27.6C15.2,27.7,15.1,27.7,15.2,27.6c-0.1,0-0.1,0-0.1,0c0,0,0,0,0,0c0,0,0,0,0,0v0c0,0,0,0,0,0
			c0,0,0,0,0,0c0,0,0,0,0,0c0,0,0,0,0.1,0c0,0,0,0,0,0c0,0,0,0,0,0c0,0,0,0,0,0c0,0,0,0,0,0h0c0,0,0,0,0,0c0,0,0,0,0,0c0,0,0,0,0,0
			c0,0,0,0,0,0c0,0,0,0,0,0c0,0,0,0,0,0c0,0,0,0,0,0C15.1,27.5,15.1,27.5,15.2,27.6L15.2,27.6C15.1,27.6,15.1,27.6,15.2,27.6
			C15.1,27.6,15.1,27.6,15.2,27.6C15.1,27.6,15.1,27.6,15.2,27.6C15.2,27.6,15.2,27.6,15.2,27.6C15.2,27.6,15.2,27.6,15.2,27.6z"/>
		<path class="st1" d="M15.5,27.7C15.5,27.7,15.5,27.7,15.5,27.7C15.5,27.7,15.5,27.7,15.5,27.7C15.5,27.7,15.5,27.7,15.5,27.7
			C15.5,27.7,15.5,27.7,15.5,27.7C15.5,27.7,15.5,27.7,15.5,27.7c-0.1,0-0.1,0-0.1,0c0,0,0,0,0,0c0,0,0,0,0,0c0,0,0,0,0,0
			c0,0,0,0,0,0c0,0,0,0,0,0c0,0,0,0,0,0c0,0,0,0,0,0h0v0c0,0,0,0,0,0c0,0,0,0,0,0c0,0,0,0,0,0c0,0,0,0,0,0c0,0,0,0,0,0c0,0,0,0,0,0
			c0,0,0,0,0,0c0,0,0,0,0,0h0c0,0,0,0,0,0c0,0,0,0,0,0c0,0,0,0,0,0c0,0,0,0,0,0c0,0,0,0,0,0c0,0,0,0,0,0c0,0,0,0,0,0c0,0,0,0,0,0
			L15.5,27.7C15.6,27.6,15.6,27.6,15.5,27.7C15.6,27.7,15.6,27.7,15.5,27.7L15.5,27.7L15.5,27.7C15.5,27.7,15.5,27.7,15.5,27.7z
			 M15.5,27.6C15.5,27.6,15.5,27.6,15.5,27.6C15.5,27.6,15.5,27.6,15.5,27.6C15.5,27.6,15.5,27.6,15.5,27.6L15.5,27.6L15.5,27.6
			C15.5,27.6,15.5,27.6,15.5,27.6C15.4,27.6,15.4,27.6,15.5,27.6C15.4,27.6,15.4,27.6,15.5,27.6C15.4,27.6,15.4,27.6,15.5,27.6
			C15.4,27.6,15.4,27.6,15.5,27.6C15.4,27.6,15.4,27.6,15.5,27.6C15.4,27.6,15.4,27.6,15.5,27.6C15.4,27.6,15.4,27.6,15.5,27.6
			C15.5,27.6,15.5,27.6,15.5,27.6z"/>
		<path class="st1" d="M15.6,27.5C15.7,27.5,15.7,27.5,15.6,27.5C15.7,27.4,15.7,27.4,15.6,27.5C15.7,27.4,15.7,27.4,15.6,27.5
			c0.1-0.1,0.1-0.1,0.1-0.1c0,0,0,0,0,0v-0.1h0v0.4h0l0,0c0,0,0,0,0,0c0,0,0,0,0,0c0,0,0,0,0,0c0,0,0,0,0,0c0,0,0,0,0,0
			C15.6,27.6,15.6,27.6,15.6,27.5L15.6,27.5C15.6,27.5,15.6,27.5,15.6,27.5z M15.7,27.6C15.7,27.6,15.7,27.6,15.7,27.6
			C15.7,27.6,15.7,27.6,15.7,27.6C15.7,27.6,15.7,27.6,15.7,27.6c0.1,0.1,0.1,0.1,0.1,0c0,0,0,0,0,0v-0.1c0,0,0,0,0,0c0,0,0,0,0,0
			c0,0,0,0,0,0c0,0,0,0,0,0C15.7,27.5,15.7,27.5,15.7,27.6C15.7,27.5,15.7,27.5,15.7,27.6L15.7,27.6C15.7,27.6,15.7,27.6,15.7,27.6z
			"/>
		<path class="st1" d="M16,27.7C16,27.7,16,27.7,16,27.7C16,27.6,15.9,27.6,16,27.7c-0.1-0.1-0.1-0.1-0.1-0.1v0c0,0,0,0,0-0.1
			c0,0,0,0,0,0c0,0,0,0,0,0c0,0,0,0,0,0c0,0,0,0,0,0c0,0,0,0,0,0c0,0,0,0,0,0c0,0,0,0,0,0v0H16v0C16,27.6,16,27.6,16,27.7
			C16,27.6,16,27.6,16,27.7C16,27.6,16,27.6,16,27.7C16,27.6,16,27.6,16,27.7C16.1,27.6,16.1,27.6,16,27.7c0.1,0,0.1-0.1,0.1-0.1
			l0,0c0,0,0,0,0,0C16.1,27.7,16.1,27.7,16,27.7C16,27.7,16,27.7,16,27.7z M16,27.5C16,27.5,16,27.5,16,27.5
			C16,27.5,16,27.5,16,27.5C16,27.5,16,27.5,16,27.5L16,27.5L16,27.5C16.1,27.5,16.1,27.5,16,27.5C16.1,27.5,16.1,27.5,16,27.5
			C16.1,27.5,16.1,27.5,16,27.5C16.1,27.5,16.1,27.5,16,27.5C16,27.5,16,27.5,16,27.5z"/>
		<path class="st1" d="M16.2,27.4C16.3,27.4,16.3,27.4,16.2,27.4C16.3,27.4,16.3,27.4,16.2,27.4C16.3,27.4,16.3,27.4,16.2,27.4
			C16.3,27.4,16.3,27.4,16.2,27.4C16.3,27.4,16.3,27.4,16.2,27.4C16.3,27.4,16.3,27.4,16.2,27.4c0.1,0,0.1,0,0.1,0c0,0,0,0,0,0
			c0,0,0,0,0,0c0,0,0,0,0,0c0,0,0,0,0,0c0,0,0,0,0,0c0,0,0,0,0,0c0,0,0,0,0,0v0.2h0v-0.2c0,0,0,0,0,0s0,0,0,0c0,0,0,0,0,0
			c0,0,0,0,0,0c0,0,0,0,0,0c0,0,0,0,0,0c0,0,0,0,0,0c0,0,0,0,0,0c0,0,0,0,0,0c0,0,0,0,0,0v0.2h0L16.2,27.4
			C16.3,27.5,16.3,27.5,16.2,27.4C16.3,27.5,16.3,27.5,16.2,27.4C16.3,27.5,16.3,27.5,16.2,27.4C16.3,27.5,16.3,27.5,16.2,27.4
			C16.3,27.5,16.3,27.5,16.2,27.4C16.3,27.5,16.3,27.5,16.2,27.4C16.3,27.5,16.3,27.5,16.2,27.4C16.3,27.5,16.2,27.5,16.2,27.4
			l0,0.2h0L16.2,27.4L16.2,27.4L16.2,27.4z"/>
		<path class="st1" d="M16.5,27.8C16.5,27.8,16.5,27.8,16.5,27.8L16.5,27.8C16.5,27.7,16.5,27.7,16.5,27.8
			C16.5,27.7,16.5,27.7,16.5,27.8C16.5,27.7,16.5,27.7,16.5,27.8C16.6,27.7,16.6,27.7,16.5,27.8C16.6,27.7,16.6,27.7,16.5,27.8
			C16.6,27.7,16.6,27.7,16.5,27.8l0.1-0.1l-0.1-0.2h0l0.1,0.2l0,0l0,0l0.1-0.2h0L16.5,27.8C16.6,27.7,16.6,27.7,16.5,27.8
			C16.6,27.7,16.6,27.7,16.5,27.8C16.6,27.8,16.6,27.8,16.5,27.8C16.6,27.8,16.5,27.8,16.5,27.8C16.5,27.8,16.5,27.8,16.5,27.8z"/>
		<path class="st1" d="M16.9,27.4L16.9,27.4L16.9,27.4l0-0.1h0L16.9,27.4L16.9,27.4z M17,27.4L17,27.4L17,27.4l0-0.1h0L17,27.4
			L17,27.4z"/>
		<path class="st1" d="M17.1,27.6l0.2-0.1l0,0l0,0l-0.2-0.1v0l0.2,0.1v0L17.1,27.6L17.1,27.6z"/>
	</g>
	<path class="st0" d="M40.4,31.2c0,0-2.4,5.1-3,6.9c-0.8,2.3-0.3,7.1-0.3,7.1h1.4c0,0,0.3-5.1,0.9-6.6c0.6-1.3,2.3-4.3,2.3-4.3
		L45,35c2.9,4.2,2.2,10.6,2.2,10.6h1.4c0,0,0.5-5.6,0.2-7c-0.7-3.1-1-6.7-1-6.7"/>
	<path class="st0" d="M35,46.1c0,0,1.6-0.9,2.1-0.9c0.5,0,1.4,0,1.4,0s-0.8,1.2-2.4,1.5C34.5,47.1,35,46.1,35,46.1z"/>
	<path class="st0" d="M48.6,45.6c0,0,2.9,0.2,2.8,1.2c-0.1,1-4.3-0.5-4.3-0.5l0.1-0.7H48.6z"/>
	<path class="st0" d="M39.4,22c0,0-2.6,2.9-3.7,3.3c-1.1,0.4-5.4-4.2-6.4-3.7c-1,0.5-0.5,0.9,0.9,1.4c1.3,0.4,3.9,3.8,5,3.9
		c1.1,0.2,5.7-4.4,5.7-4.4L39.4,22z"/>
	<path class="st0" d="M38.4,25.2c0,0-2.1-1.4-1.9-1.7c0.1-0.3,3.6-3.8,4.1-3.6c0.5,0.2,2.1,1,0,3.4C39.4,24.6,38.4,25.2,38.4,25.2z"
		/>
	<path class="st2" d="M43.5,15.8c-0.2,0.5,0.1,4.9,0.1,4.9s-1.3,0.6-2.3,0.4c-0.8-0.2-1-0.6-1-0.6s0.1-1.4-0.2-3.3
		S43.5,15.8,43.5,15.8z"/>
	<path class="st0" d="M40.6,32c0,0,6.3,0.7,7.4,0.4c1-0.3-2.3-11.7-2.9-12.2c-0.6-0.5-1.6-0.6-1.6-0.6s-2.1,0.7-3.1,0.7
		c-1-0.1-0.6,10.1-0.6,11.1C39.8,31.8,40,31.8,40.6,32z"/>
	<path class="st0" d="M43.3,23.5c-0.6-0.6-0.4-0.8-1-1.4c-0.1,0.1-6.3,5.5-7,5.8c-0.2,0.1-1-0.1-1.2-0.1c-0.3,0-0.7-0.1-1-0.1
		c-0.1,0-0.3,0-0.4,0.1c-0.2,0.1-0.5,0.2-0.8,0.2c-0.2,0-0.4,0.1-0.7,0c0,0-0.1,0.1-0.1,0.1c0,0.1,0.1,0.2,0.2,0.3
		c0.3,0.2,0.7,0.2,1,0.1c0.1,0,0.2-0.1,0.3,0c0.2,0.1,0.3,0.4,0.1,0.7c-0.3,0.3-0.6,0.5-1,0.7c-0.4,0.2-0.8,0.5-1.3,0.7
		c-0.1,0.1-0.2,0.2-0.1,0.3c0.1,0.1,0.2,0.1,0.3,0.1c0.5-0.2,1.1-0.5,1.6-0.7c0.2-0.1,0.3,0,0.4,0.2c-0.1,0.1-0.2,0.2-0.3,0.3
		c-0.3,0.3-0.6,0.6-0.9,0.9c-0.1,0.1-0.2,0.2-0.3,0.3c-0.1,0.1-0.2,0.3,0,0.4c0.1,0.1,0.2,0.1,0.3,0c0.4-0.3,0.7-0.5,1.1-0.8
		c0.2-0.1,0.3-0.3,0.4-0.4c0,0,0.1,0,0.1-0.1c0,0,0,0.1,0,0.1c-0.3,0.5-0.5,1.1-0.8,1.6c-0.1,0.1,0,0.2,0.1,0.3
		c0.1,0.1,0.2,0,0.3-0.1c0.3-0.5,0.6-0.9,0.9-1.4c0.1-0.1,0.1-0.2,0.2-0.3c0,0,0.1-0.1,0.1-0.1c0,0,0.1,0.1,0.1,0.1
		c0.1,0.4,0.1,0.9,0,1.3c0,0.1,0,0.2,0,0.3c0,0.1,0.1,0.1,0.2,0.1c0,0,0.1-0.1,0.2-0.1c0.1-0.4,0.1-0.8,0.2-1.1
		c0.1-0.5,0.2-1.1,0.5-1.5c0.1-0.2,0.2-0.4,0.3-0.6c0.1-0.3,0.3-0.5,0.6-0.7c0.2-0.2,0.4-0.4,0.6-0.5C37.2,28.2,42.6,24,43.3,23.5z"
		/>
	<path class="st0" d="M42.7,24.6c0,0-2-1.7-1.8-2c0.2-0.3,2.9-2.6,3.4-2.5c0.5,0.2,2,1.2,0.7,2.4S42.7,24.6,42.7,24.6z"/>
	<g>
		<path class="st0" d="M27.5,15.2c0,0,1.2-0.3,1.6-0.2c0.1-0.5-0.5-1.1-1-0.9C27.5,14.3,27.5,15.2,27.5,15.2z"/>
		<path class="st0" d="M27,15.3c0,0,1.2-0.3,1.6-0.2c0.1-0.5-0.5-1.1-1-0.9C27,14.4,27,15.3,27,15.3z"/>
		<path class="st0" d="M28.7,26.4c0,0-1.3,0-1.6-0.2c-0.2,0.5,0.2,1.2,0.8,1.2C28.4,27.3,28.7,26.4,28.7,26.4z"/>
		<path class="st0" d="M28.3,26.2c0,0-1.3-0.1-1.6-0.3c-0.2,0.4,0.1,1.1,0.7,1.2C28.1,27.2,28.3,26.2,28.3,26.2z"/>
		<path class="st0" d="M33.9,20.6c0,3.3-2.1,6-4.6,6c-0.5,0-1.7,0-1.7,0s-3-3.3-3-6c0-2.5,2.9-6,2.9-6s1.1,0,1.7,0
			C31.9,14.6,33.9,17.3,33.9,20.6z"/>
		<path class="st0" d="M30.6,15c0,0,1.1,0.6,1.3,0.9c0.4-0.3,0.4-1.2-0.1-1.4C31.3,14.4,30.6,15,30.6,15z"/>
		<path class="st0" d="M30.1,14.9c0,0,1.1,0.6,1.3,0.9c0.4-0.3,0.4-1.2-0.1-1.4C30.7,14.2,30.1,14.9,30.1,14.9z"/>
		<path class="st0" d="M32.4,17.3c0,0,0.7,1.1,0.6,1.5c0.5-0.1,0.9-0.8,0.6-1.3C33.3,17.1,32.4,17.3,32.4,17.3z"/>
		<path class="st0" d="M32.1,17c0,0,0.7,1.1,0.6,1.5c0.5-0.1,0.9-0.8,0.6-1.3C33,16.6,32.1,17,32.1,17z"/>
		<path class="st0" d="M33.2,20.2c0,0,0.1,1.3,0,1.6c0.5,0.1,1.2-0.3,1.1-0.9S33.2,20.2,33.2,20.2z"/>
		<path class="st0" d="M33,20.2c0,0,0,1.3-0.2,1.6c0.5,0.2,1.1-0.2,1.1-0.8C34,20.3,33,20.2,33,20.2z"/>
		<path class="st0" d="M32.9,22.9c0,0-0.4,1.2-0.8,1.4c0.4,0.3,1.2,0.2,1.4-0.3S32.9,22.9,32.9,22.9z"/>
		<path class="st0" d="M32.6,23.2c0,0-0.5,1.2-0.9,1.4c0.3,0.4,1.1,0.3,1.4-0.2C33.4,23.8,32.6,23.2,32.6,23.2z"/>
		<path class="st0" d="M31.2,25.8c0,0-0.9,0.7-1.3,0.7c0.1,0.4,0.9,0.7,1.2,0.3C31.6,26.5,31.2,25.8,31.2,25.8z"/>
		<path class="st0" d="M30.8,25.9c0,0-0.9,0.6-1.3,0.6c0.1,0.4,0.8,0.7,1.2,0.4C31.2,26.6,30.8,25.9,30.8,25.9z"/>
	</g>
	<ellipse class="st0" cx="27.8" cy="20.6" rx="4.6" ry="6"/>
	<g>
		<g>
			<path class="st3" d="M28.6,21.7C28.6,21.7,28.6,21.7,28.6,21.7l-2.5-0.3c0,0,0,0,0,0c0,0,0,0,0,0l1.4-2.4c0,0,0,0,0,0
				c0,0,0,0,0,0L28.6,21.7C28.7,21.7,28.7,21.7,28.6,21.7C28.6,21.7,28.6,21.7,28.6,21.7z M26.2,21.4l2.3,0.3l-1-2.6L26.2,21.4z"/>
		</g>
		<g>
			<path class="st3" d="M29.9,22.9C29.9,22.9,29.9,22.9,29.9,22.9l-5.2-0.6c0,0,0,0,0,0c0,0,0,0,0,0l3.1-5.2c0,0,0,0,0,0
				c0,0,0,0,0,0L29.9,22.9C30,22.9,30,22.9,29.9,22.9C30,22.9,30,22.9,29.9,22.9z M24.8,22.2l5.1,0.6l-2.1-5.6L24.8,22.2z"/>
		</g>
		<g>
			<path class="st3" d="M28.6,21.7C28.6,21.7,28.6,21.7,28.6,21.7l-1.2-1c0,0,0,0,0,0l0.2-1.6c0,0,0,0,0,0c0,0,0,0,0,0l-0.2,1.5
				L28.6,21.7C28.7,21.7,28.7,21.7,28.6,21.7C28.7,21.7,28.6,21.7,28.6,21.7z"/>
		</g>
		<g>
			<path class="st3" d="M26.3,21.5C26.2,21.5,26.2,21.4,26.3,21.5C26.2,21.4,26.2,21.4,26.3,21.5l1.2-0.8c0,0,0,0,0.1,0
				c0,0,0,0,0,0.1L26.3,21.5C26.3,21.5,26.3,21.5,26.3,21.5z"/>
		</g>
		<g>
			<ellipse class="st3" cx="27.8" cy="17" rx="0.3" ry="0.4"/>
		</g>
		<g>
			<ellipse class="st3" cx="24.6" cy="22.3" rx="0.3" ry="0.4"/>
		</g>
		<g>
			<ellipse class="st3" cx="30" cy="22.9" rx="0.3" ry="0.4"/>
		</g>
	</g>
	<path class="st4" d="M43.6,17.9c0,0.1,1.9,2.2,2.7,2.5c0,0,0-2.7,0.2-2.1c0.5,1.5,3.4,1.7,3.4,1.7s-1.8-2.1-0.8-3
		c0,0,1.6,1.5,2.3,1.7c0.7,0.1-2-2.1-0.5-3.8s1.9-6.6-0.4-9.1C48.1,3.4,50,1.7,50,1.7s-2.1,1.9-2,2.1c0.1,0.2-1.5-1.6-1.3-2.3
		C47,0.8,46,2.6,46,2.6s-4.9-2.1-7.6,0.8s-3.9,3.2-4.5,3.1s2.8,1.1,3.5,0.5s-2.2,3.7-3.8,4c-1.6,0.3,3.1,1,3.2,1
		C36.9,12,43.6,17.9,43.6,17.9z"/>
	<path class="st0" d="M46.3,16.4c0,0-0.7,1.6-2.4,2.2s-3.1,0.7-5.2-0.3s-3.2-3.6-2.9-6.6s1-3.8,1-3.8s4.4-1.3,4.6-1.3
		c0.3,0,6.1,1.9,6.1,1.9c0.1,0,1.4,3.2,1.4,3.2l-0.5,1.9c0,0-0.5,2.5-1.4,2.7C46.2,16.6,46.3,16.4,46.3,16.4z"/>
	<path d="M45.4,5.9c-4.9-1-6.8-2-8.3-0.2c-1.5,1.7-2.2,3.7-3.8,3.8c0,0,3.2,0.9,6.6-0.5c0,0-1.3,1.9-1.3,2.3c0,0,3.6-1.9,5-1.9
		s1.9-0.4,1.9-0.4s-0.7,2.3-0.2,3.7c0.5,1.5-0.2,3.5-0.6,4.1c0,0,1.4-0.4,1.8-1.5c0.4-1.1,2-0.9,2.4-1.2c0.4-0.2,2.4-2.1,2.4-2.5"/>
	<path class="st0" d="M49.5,11.5c0,0-2-4.1-7.2-5.6s-6,0.8-6,0.8s0.5-2.9,4-3s7.9,1.6,9.5,5.6c1.6,4.1,1.1,5.4,1.1,5.4l-0.5,0.9
		L49.5,11.5z"/>
	<g>
		<path class="st0" d="M46.3,2.5c0.8,0.6,1.3,3.8-0.2,4.2C45,7.1,43.5,6.6,43,6.2c-0.6-0.6-1.2-2.8-0.9-3.1
			C43,2.2,45.8,2.2,46.3,2.5z"/>
		<path class="st0" d="M46.1,2.3C47,2.9,47,4.4,45.5,4.9c-1.1,0.3-2.6-0.1-3.1-0.6c-0.6-0.6-0.6-1.8,0.8-2.2
			C44.4,1.7,45.7,2,46.1,2.3z"/>
		<path class="st0" d="M44.9,1c0.5,0.3,0.9,2.7,0.1,2.9c-0.6,0.2-1.1,0-1.4-0.2c-0.3-0.3-1.1-2.2-0.9-2.4C43.2,0.8,44.7,0.8,44.9,1z
			"/>
		<path class="st0" d="M44.9,0.9c0.5,0.3,0.5,1.1-0.3,1.4c-0.6,0.2-1.4-0.1-1.6-0.3c-0.3-0.3-0.3-1,0.4-1.2
			C43.9,0.5,44.6,0.7,44.9,0.9z"/>
		<path class="st0" d="M44.5,1.1c0.3,0.2,0.3,0.7-0.2,0.9c-0.4,0.1-0.9,0-1.1-0.2C43,1.5,43,1.1,43.5,1C43.9,0.8,44.4,0.9,44.5,1.1z
			"/>
	</g>
	<g>
		<path class="st0" d="M41,1.7c0.7,0.5,1.1,3.2-0.2,3.6c-0.9,0.3-2.1-0.1-2.6-0.5c-0.5-0.5-1-2.4-0.7-2.6C38.2,1.4,40.6,1.4,41,1.7z
			"/>
		<path class="st0" d="M40.8,1.5c0.7,0.5,0.7,1.8-0.5,2.1c-0.9,0.3-2.1-0.1-2.6-0.5c-0.5-0.5-0.5-1.5,0.7-1.9
			C39.4,1,40.5,1.2,40.8,1.5z"/>
		<path class="st0" d="M39.8,0.4c0.4,0.3,0.7,2.2,0,2.4c-0.5,0.1-0.9,0-1.2-0.2c-0.3-0.3-0.9-1.9-0.8-2C38.4,0.3,39.6,0.3,39.8,0.4z
			"/>
		<path class="st0" d="M39.8,0.3c0.4,0.3,0.4,0.9-0.3,1.1c-0.5,0.1-1.1-0.1-1.4-0.3c-0.3-0.3-0.3-0.8,0.4-1C39,0,39.6,0.2,39.8,0.3z
			"/>
		<path class="st0" d="M39.5,0.5c0.2,0.2,0.3,0.6-0.2,0.7c-0.3,0.1-0.7,0-0.9-0.2c-0.2-0.2-0.2-0.5,0.2-0.6
			C39,0.3,39.4,0.4,39.5,0.5z"/>
	</g>
	<path class="st4" d="M38.2,10.7c0,0,0.1,0.1,0.2,0c0.1,0,0.2-0.2,0.2-0.2c0,0-0.1,0-0.3-0.1c-0.2-0.1-0.9-0.5-1.6,0
		c-0.1,0.1-0.1,0.2,0.1,0.1C37,10.4,37.6,10.3,38.2,10.7z"/>
	<path class="st4" d="M42.8,10.9c0,0-0.1,0.1-0.2,0c-0.1,0-0.3-0.2-0.3-0.2c0,0,0.1,0,0.3-0.1c0.2-0.1,0.9-0.6,1.6-0.2
		c0.1,0.1,0.1,0.2-0.1,0.2C43.9,10.5,43.4,10.4,42.8,10.9z"/>
	<g>
		<defs>
			<path id="SVGID_1_" d="M41.6,14.4c0.7,0.4,1.1-0.1,1.1-0.1"/>
		</defs>
		<clipPath id="SVGID_00000060021495056105054380000003600592122740497078_">
			<use xlink:href="#SVGID_1_"  style="overflow:visible;"/>
		</clipPath>
		
			<use xlink:href="#SVGID_1_"  style="overflow:visible;fill-rule:evenodd;clip-rule:evenodd;fill:none;stroke:#000000;stroke-width:0.2606;stroke-linecap:round;stroke-linejoin:round;stroke-miterlimit:10;"/>
	</g>
	<path class="st5" d="M40.3,11.9c0,0-0.3-0.2-0.5,0.1c-0.2,0.3,0.3,0.5,0.3,0.5"/>
	<ellipse transform="matrix(0.2 -0.9798 0.9798 0.2 18.8941 46.1126)" class="st4" cx="37.7" cy="11.5" rx="0.5" ry="0.3"/>
	<ellipse transform="matrix(0.2 -0.9798 0.9798 0.2 22.2492 52.029)" class="st4" cx="43" cy="12.4" rx="0.5" ry="0.3"/>
</g>
</svg>
