<?xml version="1.0" encoding="utf-8"?>
<!-- Generator: Adobe Illustrator 27.2.0, SVG Export Plug-In . SVG Version: 6.00 Build 0)  -->
<svg version="1.1" id="Слой_1" xmlns="http://www.w3.org/2000/svg" xmlns:xlink="http://www.w3.org/1999/xlink" x="0px" y="0px"
	 viewBox="0 0 39 50" style="enable-background:new 0 0 39 50;" xml:space="preserve">
<style type="text/css">
	.st0{fill:#FFFFFF;stroke:#000000;stroke-width:0.1551;stroke-linecap:round;stroke-linejoin:round;stroke-miterlimit:10;}
	.st1{fill-rule:evenodd;clip-rule:evenodd;}
	
		.st2{fill-rule:evenodd;clip-rule:evenodd;fill:#FFFFFF;stroke:#000000;stroke-width:0.1551;stroke-linecap:round;stroke-linejoin:round;stroke-miterlimit:10;}
</style>
<g>
	<g>
		<path class="st0" d="M30.7,32l5.2-8.7c0,0,1,0.1,1.7-0.8c0.7-0.9,0.5-3.2,0.5-3.2s-1.3-0.3-1.3-0.3c0,0-1-0.4-1-0.4l-1.6,1.5
			l-0.3,2.5L30,29.4l-13.2,2.7L21,36L30.7,32z"/>
		<path class="st0" d="M36.1,16.1c0-1.4-1.1-1-1,0.7c0.1,1.6-0.3,2.5,0.2,2.9c0.3,0.2,0.7,0.3,0.8-0.5
			C36.1,18.7,36.1,16.9,36.1,16.1z"/>
		<path class="st0" d="M35.5,22c0,0,0.5-0.8,0-1.3"/>
		<path class="st0" d="M37.6,20.5c0,0,0.9-1.2,0.4-1.5c-0.5-0.3-0.8,0.1-1.1,0.7c-0.3,0.5-0.6,1.2-0.2,1.3
			C37.2,21.1,37.6,20.5,37.6,20.5z"/>
		<path class="st0" d="M38.3,21.1c0,0,0.8-1.1,0.3-1.3s-0.7,0.1-0.9,0.6c-0.2,0.5-0.6,1.1-0.2,1.2C38,21.6,38.3,21.1,38.3,21.1z"/>
		<path class="st0" d="M36.9,18.6c0,0-0.5-0.5-0.9,0.4c-0.4,0.8-0.5,1.7-0.1,1.8c0.4,0.1,0.9-1,1.2-1.5
			C37.2,18.8,36.9,18.6,36.9,18.6z"/>
		<path class="st0" d="M35,21c0,0,0.5-0.4,0.8-0.4c0.3,0,0.7-0.7,0.1-1.1c-0.6-0.4-1.6-0.2-2,0.7c-0.5,1,0.3,2.3,0.3,2.3"/>
	</g>
	<path class="st0" d="M25.7,35c0,0-0.1-4.7-0.6-5s-3.4-0.1-4.8-0.4c-0.8-0.2-3.2,7.3-0.6,7.5C22.3,37.3,25.7,35,25.7,35z"/>
	<path class="st1" d="M15.1,26c0,0.2-3.4,2.8-4.6,3.1c0,0,0.7-4,0.3-3.2c-1.1,2.1-5.4,1.7-5.4,1.7s3.2-2.7,2-4.2
		c0,0-2.7,1.9-3.8,1.9c-1,0,3.5-2.5,1.7-5.5S4.1,9.5,8.2,6.5s1.5-6.1,1.5-6.1s2.6,3.3,2.4,3.6c-0.2,0.3,2.6-2,2.5-3.1
		s0.9,1.9,0.9,1.9s7.7-1.8,11.1,3.1s5,5.7,5.9,5.7c0.9,0-4.4,1-5.3-0.2s2.3,6.1,4.6,6.9s-4.8,0.8-5,0.7C26.5,18.9,15.1,26,15.1,26z"
		/>
	<path class="st2" d="M13.8,22.8c0.3,0.8,0.4,7.3,0.4,7.3s2.1,0.8,3.5,0.3c1.2-0.4,1.6,0.6,1.6,0.6s0.1-4,0.3-6.8
		C19.9,21.4,13.8,22.8,13.8,22.8z"/>
	<path class="st0" d="M11.5,23c0,0,0.6,2.6,2.9,3.8s4.4,1.8,7.7,0.9c3.3-0.9,5.6-4.6,6-9s-0.5-5.9-0.5-5.9s-6.1-3-6.5-3.1
		s-9.4,1.3-9.5,1.3c-0.1,0-2.9,4.4-2.9,4.4l0.3,2.9c0,0,0.1,3.8,1.3,4.4C11.7,23.4,11.5,23,11.5,23z"/>
	<path d="M15.5,7.8C23,7.5,26,6.6,27.8,9.5s2.3,6,4.7,6.6c0,0-5.7,0.4-10.5-3.3c0,0,1.7,3.7,1.5,4.2c0,0-4.1-3.3-6.2-3.6
		c-2.1-0.3-2.7-1-2.7-1S15,16,13.9,18s-0.6,5.2-0.1,6.2c0,0-2-0.9-2.3-2.7c-0.3-1.8-2.8-1.9-3.3-2.3c-0.5-0.4-3.1-3.7-2.9-4.2"/>
	
		<ellipse transform="matrix(0.9995 -3.154792e-02 3.154792e-02 0.9995 -0.5579 0.5592)" class="st1" cx="17.4" cy="18" rx="0.5" ry="0.8"/>
	
		<ellipse transform="matrix(0.9995 -3.154792e-02 3.154792e-02 0.9995 -0.5545 0.806)" class="st1" cx="25.3" cy="18" rx="0.5" ry="0.8"/>
	<path class="st2" d="M21.6,17.9c0,0,0.6-0.2,0.7,0.2c0.2,0.4-0.6,0.7-0.6,0.7"/>
	<path class="st1" d="M18.3,15.5c0,0,0.2,0,0.4,0c0.2-0.1,0.3-0.4,0.3-0.4c0-0.1-0.1,0-0.4-0.1c-0.3-0.1-1.5-0.4-2.3,0.4
		c-0.1,0.1,0,0.3,0.2,0.2C16.5,15.5,17.3,15.1,18.3,15.5z"/>
	<path class="st1" d="M24.8,16.7c0,0-0.2,0.1-0.4,0c-0.2-0.1-0.3-0.3-0.3-0.4c0-0.1,0.1,0,0.4-0.1c0.3-0.2,1.5-0.6,2.3,0.2
		c0.2,0.1,0.1,0.3-0.1,0.2C26.6,16.5,25.8,16.2,24.8,16.7z"/>
	<g>
		<defs>
			<path id="SVGID_1_" d="M21.5,21.6c-1.1,0.4-1.7-0.5-1.7-0.5"/>
		</defs>
		<use xlink:href="#SVGID_1_"  style="overflow:visible;fill-rule:evenodd;clip-rule:evenodd;fill:#FFFFFF;"/>
		<clipPath id="SVGID_00000105414364107741792210000000097937366892490406_">
			<use xlink:href="#SVGID_1_"  style="overflow:visible;"/>
		</clipPath>
		
			<use xlink:href="#SVGID_1_"  style="overflow:visible;fill-rule:evenodd;clip-rule:evenodd;fill:none;stroke:#000000;stroke-width:0.1551;stroke-linecap:round;stroke-linejoin:round;stroke-miterlimit:10;"/>
	</g>
	<path class="st0" d="M8.1,15.2c1.7-3,3.9-5.7,12-6.7s8.7,2.6,8.7,2.6s0-4.4-5.2-5.4S11.5,6,8.1,11.6s-3,7.8-3,7.8l0.5,1.5
		C5.6,20.8,7.3,16.5,8.1,15.2z"/>
	<g>
		<path class="st0" d="M15,2.5c-1.4,0.7-2.9,5.3-0.7,6.3c1.5,0.7,3.8,0.5,4.7-0.1c1-0.7,2.4-3.9,2.1-4.4C20,2.8,15.8,2.2,15,2.5z"/>
		<path class="st0" d="M15.4,2.3c-1.4,0.7-1.8,2.9,0.3,3.9c1.5,0.7,3.8,0.5,4.7-0.1c1-0.7,1.3-2.5-0.6-3.5C18,1.8,16.1,1.9,15.4,2.3
			z"/>
		<path class="st0" d="M17.4,0.6c-0.7,0.4-2,3.7-0.8,4.3c0.8,0.4,1.6,0.3,2.1,0c0.5-0.4,2.1-3,1.9-3.3C20.1,0.8,17.9,0.4,17.4,0.6z"
			/>
		<path class="st0" d="M17.6,0.5c-0.7,0.4-1,1.5,0.2,2.1c0.8,0.4,2,0.3,2.5-0.1c0.5-0.4,0.7-1.4-0.3-1.9C19,0.2,18,0.3,17.6,0.5z"/>
		<path class="st0" d="M18,0.8c-0.5,0.2-0.6,1,0.1,1.4c0.5,0.3,1.3,0.2,1.6,0c0.3-0.2,0.4-0.9-0.2-1.2C19,0.7,18.3,0.7,18,0.8z"/>
	</g>
	<g>
		<path class="st0" d="M23.1,2.7c-1.2,0.6-2.4,4.4-0.6,5.3c1.2,0.6,3.2,0.4,3.9-0.1c0.8-0.6,2-3.2,1.7-3.7
			C27.2,2.9,23.8,2.4,23.1,2.7z"/>
		<path class="st0" d="M23.4,2.5c-1.2,0.6-1.5,2.4,0.2,3.3c1.2,0.6,3.2,0.4,3.9-0.1c0.8-0.6,1.1-2.1-0.5-2.9
			C25.6,2.1,24,2.2,23.4,2.5z"/>
		<path class="st0" d="M25.1,1.1c-0.6,0.3-1.6,3.1-0.7,3.6c0.7,0.3,1.4,0.3,1.8,0c0.4-0.3,1.8-2.5,1.6-2.8
			C27.3,1.2,25.5,0.9,25.1,1.1z"/>
		<path class="st0" d="M25.2,1c-0.6,0.3-0.8,1.3,0.1,1.8c0.7,0.3,1.7,0.2,2.1-0.1c0.4-0.3,0.6-1.1-0.3-1.6C26.4,0.7,25.6,0.8,25.2,1
			z"/>
		<path class="st0" d="M25.6,1.3c-0.4,0.2-0.5,0.8,0.1,1.1c0.4,0.2,1.1,0.1,1.4,0c0.3-0.2,0.4-0.7-0.2-1C26.4,1.1,25.8,1.2,25.6,1.3
			z"/>
	</g>
	<path class="st0" d="M22.8,49.7c0,0-9.8-0.3-11.5,0c-0.6,0.1,0.3-3.9,0.3-8.3c0-4.4-2.4-10.8-0.5-11.7c0.7-0.4,3-0.6,3-0.6
		s0.7,1.2,3.1,1.2c2.5,0.1,2.3-0.8,2.3-0.8c0.9,0.1,1.2,0.2,1.4,0.5c1.1,2.5,2.2,5.9,2.1,11.5C22.9,42.8,23.1,47.1,22.8,49.7z"/>
	<path class="st0" d="M10.2,34.8c0,0-6.1,2.7-6.8,4.3c-0.4,1,5.5,7.2,5.7,8.3c0.2,1.7-0.6,2.2-2,0.7C4.8,45.6,0.4,41,0,39.4
		c-0.4-1.6,8.7-8.7,8.7-8.7L10.2,34.8z"/>
	<path class="st0" d="M8.3,37c0,0-2.5-2.8-2.1-4.7c0.1-0.4,4.1-3.3,5.5-2.7c1.3,0.5,0.3,5.8-1.2,6.5C9.3,36.7,8.3,37,8.3,37z"/>
	<path class="st0" d="M8.8,47.1C9,47,9.4,47,9.7,46.9c0.2-0.1,0.4-0.3,0.6-0.5c0.2-0.2,0.8-0.5,1.1-0.6c0.1,0-0.1,0.4,0,0.4
		c0.5-0.2,0.8-0.4,0.9-0.4c0.5-0.2,1.1-0.4,1.6-0.5c0.1,0,0.2,0,0.3,0.1c0.1,0.1,0,0.2-0.1,0.3c0,0-0.1,0.1-0.2,0.1
		c-0.4,0.2-0.8,0.3-1.1,0.5c0,0,0,0-0.1,0c0.3,0.1,0.6,0.1,0.9,0.1c0.1,0,0.3,0.1,0.4,0.1c0.2,0,0.3,0.1,0.5,0.1
		c0.2,0,0.3,0.1,0.2,0.3c0,0.2-0.1,0.2-0.3,0.2c-0.1,0-0.1,0-0.2,0C13.8,47,13.4,47,13,47c-0.1,0-0.2,0-0.3,0
		c-0.2,0-0.3,0.1-0.5,0.1c-0.1,0-0.2,0-0.2,0.2c0.4-0.1,0.8,0.1,1.2,0.3c0.2,0.1,0.4,0.2,0.6,0.3c0.1,0.1,0.2,0.1,0.3,0.1
		c0.2,0.1,0.2,0.1,0.2,0.3c0,0.1-0.2,0.2-0.3,0.2c-0.4-0.1-0.9-0.3-1.3-0.4c-0.1,0-0.1,0-0.2,0c-0.2,0-0.3,0-0.5,0
		c-0.1,0-0.1,0-0.2,0.1c0,0,0,0,0,0c0,0,0.1,0,0.1,0c0.2,0,0.4,0.1,0.5,0.2c0.1,0.1,0.1,0.1,0.2,0.1c0.1,0.1,0.2,0.1,0.3,0.2
		c0.1,0.1,0.2,0.1,0.3,0.2c0.1,0.1,0.2,0.2,0.1,0.3c-0.1,0.1-0.2,0.1-0.3,0.1c-0.1,0-0.1-0.1-0.2-0.1c-0.3-0.1-0.5-0.3-0.8-0.4
		c-0.3-0.1-0.6-0.1-1,0c-0.5,0.1-1.1,0.5-1.6,0.6c-0.5,0.1-1.4-0.2-1.5-0.5"/>
</g>
</svg>
