<?xml version="1.0" encoding="utf-8"?>
<!-- Generator: Adobe Illustrator 27.2.0, SVG Export Plug-In . SVG Version: 6.00 Build 0)  -->
<svg version="1.1" id="Слой_1" xmlns="http://www.w3.org/2000/svg" xmlns:xlink="http://www.w3.org/1999/xlink" x="0px" y="0px"
	 viewBox="0 0 88.6 66" style="enable-background:new 0 0 88.6 66;" xml:space="preserve">
<style type="text/css">
	.st0{fill:#FFFFFF;stroke:#000000;stroke-width:0.4088;stroke-linecap:round;stroke-linejoin:round;stroke-miterlimit:10;}
	.st1{fill-rule:evenodd;clip-rule:evenodd;}
	.st2{stroke:#000000;stroke-width:5.000000e-02;stroke-miterlimit:10;}
	
		.st3{fill-rule:evenodd;clip-rule:evenodd;fill:#FFFFFF;stroke:#000000;stroke-width:0.4088;stroke-linecap:round;stroke-linejoin:round;stroke-miterlimit:10;}
	.st4{fill:none;stroke:#000000;stroke-width:0.1246;stroke-linecap:round;stroke-linejoin:round;stroke-miterlimit:10;}
</style>
<g>
	<polygon class="st0" points="67.6,45.1 23,58.2 0.2,34.9 61.3,21.9 	"/>
	<polygon class="st0" points="10.5,35.1 16.4,44.7 34.1,41.4 31.1,32.3 	"/>
	<polygon class="st0" points="16.4,39 25.2,46 40.7,36.9 34.8,29.4 	"/>
	<polygon class="st0" points="16.2,18.3 36.3,11.4 36.3,26.7 18.8,37.4 	"/>
	<polygon class="st0" points="19.5,35.8 17.3,19.3 35.4,13 35.5,25.8 	"/>
	<polygon class="st0" points="46.9,35.7 34.5,47.7 34.4,46.3 46.9,34.3 	"/>
	<polygon class="st0" points="18.8,37.3 34.1,46.6 50.6,30.6 36.4,26.8 	"/>
	<polygon class="st0" points="22,37.2 30,41.9 42.9,32 33.5,30.3 	"/>
	<polygon class="st0" points="37,38 39.4,39.5 42.9,36.2 40.4,35.5 	"/>
	<line class="st0" x1="27.7" y1="34" x2="28.9" y2="34.7"/>
	<line class="st0" x1="28.8" y1="33.3" x2="30" y2="33.9"/>
	<line class="st0" x1="23.8" y1="38" x2="30.1" y2="34"/>
	<line class="st0" x1="28.9" y1="34.8" x2="30.2" y2="35.5"/>
	<line class="st0" x1="25.3" y1="39" x2="31.9" y2="34.6"/>
	<line class="st0" x1="27" y1="40" x2="33.9" y2="35"/>
	<line class="st0" x1="28.6" y1="41.1" x2="36" y2="35.5"/>
	<line class="st0" x1="26.4" y1="36.5" x2="27.7" y2="37.2"/>
	<line class="st0" x1="27.6" y1="35.6" x2="28.8" y2="36.3"/>
	<line class="st0" x1="28.9" y1="36.8" x2="30.2" y2="37.5"/>
	<line class="st0" x1="26" y1="34.8" x2="27.3" y2="35.5"/>
	<line class="st0" x1="31.4" y1="38.9" x2="29.8" y2="38.1"/>
	<line class="st0" x1="29.9" y1="40.2" x2="31.2" y2="40.9"/>
	<line class="st0" x1="31.1" y1="39.3" x2="32.4" y2="40"/>
	<line class="st0" x1="32.3" y1="38.5" x2="33.6" y2="39.1"/>
	<line class="st0" x1="33.5" y1="37.6" x2="34.7" y2="38.3"/>
	<line class="st0" x1="25.2" y1="37.4" x2="26.5" y2="38.1"/>
	<line class="st0" x1="23.5" y1="36.5" x2="24.7" y2="37.2"/>
	<line class="st0" x1="24.7" y1="35.6" x2="26" y2="36.3"/>
	<line class="st0" x1="27.6" y1="37.7" x2="29" y2="38.5"/>
	<polygon class="st0" points="34.5,47.7 19,38.8 18.8,37.3 34.4,46.3 	"/>
	<g>
		<path class="st0" d="M34,30.6c-1-0.4-6.5,1.6-6.7,3.5c-0.3,2.7,1.6,4,3.2,3.1c0,0,1.5-1,0.1-2c0.8-0.9,2.1-1.9,2.9-1.9"/>
		<path class="st0" d="M29.7,26.3c0,0,4.4-4.3,7.9-5.4s8.2-1.5,12.2,2.3s2.7,11,1.3,12.6C49.9,37.4,47.8,38,44,38s-6.5,0.1-9.4-0.1
			c-1.5-0.1-3.9-0.8-4-2.8"/>
		<path class="st0" d="M38.9,34.4c-1-0.3-3.6,0.7-3.7,2.2c-0.2,2.2,3.1,1.7,5,1.4"/>
		<path class="st0" d="M52.5,31.8c0,0-0.3,2.7-2.1,3.8c-1.7,1-4.4,0.7-5.1,1.3c-0.7,0.6-1,1.8,0,2.7c1,0.9,4.4,0.7,6.9-1.8
			S53.5,32,52.5,31.8z"/>
		<path class="st0" d="M40.5,27.7c-0.2-1.5-1-3-2.3-4.1c0.4-1.2,0-3.5-0.3-3.6c-0.5-0.2-2.1,1.3-2.6,1.9c-1-0.3-2.2-0.5-3.3-0.3
			c-1.7,0.2-3.2,1-4.3,2.1c-0.8-0.2-2.7-0.8-3.1-0.4c-0.2,0.2,0.4,2.3,1.3,3.2c-0.4,1-0.6,2.2-0.5,3.2c0.5,3.5,4.1,5,8.3,4.5
			C37.8,33.6,41,31.2,40.5,27.7z"/>
		<path class="st0" d="M52,26.6c-0.4-1.2-1.1-2.4-2.1-3.3c-2.5-2.4-5.3-3.1-7.9-3c-0.6,0.7-1,1.6-1,2.5c0,2.7,3,4.9,6.8,4.9
			C49.4,27.6,50.8,27.2,52,26.6z"/>
		<ellipse class="st0" cx="48.2" cy="30.3" rx="2" ry="1.3"/>
		<g>
			<ellipse transform="matrix(0.9845 -0.1751 0.1751 0.9845 -4.3463 6.1927)" class="st1" cx="32.9" cy="27.7" rx="0.5" ry="0.3"/>
			<g>
				<g>
					<g>
						<defs>
							<path id="SVGID_1_" d="M31,29.9c1.7-0.1,2-1.6,2-1.6"/>
						</defs>
						<use xlink:href="#SVGID_1_"  style="overflow:visible;fill-rule:evenodd;clip-rule:evenodd;fill:#FFFFFF;"/>
						<clipPath id="SVGID_00000181058328386914208180000001735408378502250670_">
							<use xlink:href="#SVGID_1_"  style="overflow:visible;"/>
						</clipPath>
						
							<use xlink:href="#SVGID_1_"  style="overflow:visible;fill-rule:evenodd;clip-rule:evenodd;fill:none;stroke:#000000;stroke-width:0.4088;stroke-linecap:round;stroke-linejoin:round;stroke-miterlimit:10;"/>
					</g>
					<g>
						<defs>
							<path id="SVGID_00000121244182551164647620000013943217802159279252_" d="M35.5,28.8c-1.6,0.7-2.5-0.6-2.5-0.6"/>
						</defs>
						
							<use xlink:href="#SVGID_00000121244182551164647620000013943217802159279252_"  style="overflow:visible;fill-rule:evenodd;clip-rule:evenodd;fill:#FFFFFF;"/>
						<clipPath id="SVGID_00000133528246002832243050000005340573432066322361_">
							<use xlink:href="#SVGID_00000121244182551164647620000013943217802159279252_"  style="overflow:visible;"/>
						</clipPath>
						
							<use xlink:href="#SVGID_00000121244182551164647620000013943217802159279252_"  style="overflow:visible;fill-rule:evenodd;clip-rule:evenodd;fill:none;stroke:#000000;stroke-width:0.4088;stroke-linecap:round;stroke-linejoin:round;stroke-miterlimit:10;"/>
					</g>
				</g>
				<g>
					<line class="st0" x1="36.8" y1="27.1" x2="38.7" y2="25.9"/>
					<line class="st0" x1="37.1" y1="27.9" x2="39.3" y2="27.5"/>
				</g>
				<g>
					<line class="st0" x1="29.3" y1="29.7" x2="27.2" y2="30.4"/>
					<line class="st0" x1="29.2" y1="28.8" x2="27" y2="28.7"/>
				</g>
			</g>
		</g>
	</g>
	<g>
		<path class="st2" d="M18.5,20.8L18.5,20.8l0.2-0.2l0,0.1L18.5,20.8L18.5,20.8L18.5,20.8l0.3,0l0,0.1L18.5,20.8z"/>
		<path class="st2" d="M19,20.5l0.1,0l0,0L19,20.5l0.1,0.2c0,0,0,0,0,0c0,0,0,0,0,0c0,0,0,0,0,0c0,0,0,0,0,0c0,0,0,0,0,0
			c0,0,0,0,0,0c0,0,0,0,0,0c0,0,0,0,0,0l0,0c0,0,0,0,0,0c0,0,0,0,0,0c0,0,0,0,0,0c0,0,0,0,0,0c0,0,0,0,0,0c0,0,0,0,0,0c0,0,0,0,0,0
			c0,0,0,0,0,0L19,20.5l-0.1,0.1l0,0L19,20.5L19,20.5L19,20.5L19,20.5z"/>
		<path class="st2" d="M19.3,20.7C19.3,20.7,19.3,20.7,19.3,20.7c-0.1,0-0.1,0-0.1-0.1c0,0,0,0,0-0.1l0,0c0,0,0,0,0-0.1
			c0,0,0,0,0-0.1c0,0,0,0,0,0c0,0,0,0,0,0c0,0,0,0,0.1,0c0,0,0,0,0.1,0c0,0,0,0,0,0c0,0,0,0,0,0.1l0,0l-0.2,0.1l0,0
			C19.3,20.6,19.3,20.6,19.3,20.7C19.3,20.6,19.3,20.6,19.3,20.7C19.3,20.6,19.3,20.6,19.3,20.7C19.4,20.6,19.4,20.6,19.3,20.7
			C19.4,20.6,19.4,20.6,19.3,20.7c0.1-0.1,0.1-0.1,0.1-0.1l0,0c0,0,0,0,0,0.1C19.5,20.6,19.4,20.7,19.3,20.7
			C19.4,20.7,19.4,20.7,19.3,20.7z M19.3,20.4C19.3,20.4,19.3,20.4,19.3,20.4C19.3,20.4,19.3,20.5,19.3,20.4
			C19.3,20.5,19.3,20.5,19.3,20.4l0.1,0l0,0c0,0,0,0,0,0C19.4,20.4,19.4,20.4,19.3,20.4C19.4,20.4,19.4,20.4,19.3,20.4
			C19.3,20.4,19.3,20.4,19.3,20.4C19.3,20.4,19.3,20.4,19.3,20.4z"/>
		<path class="st2" d="M19.5,20.3C19.5,20.3,19.6,20.3,19.5,20.3C19.6,20.3,19.6,20.3,19.5,20.3C19.6,20.2,19.6,20.2,19.5,20.3
			C19.6,20.2,19.6,20.2,19.5,20.3c0.1-0.1,0.1-0.1,0.1-0.1c0,0,0,0,0,0c0,0,0,0,0,0c0,0,0,0,0,0c0,0,0,0,0,0c0,0,0,0,0,0
			c0,0,0,0,0,0c0,0,0,0,0,0c0,0,0,0,0,0c0,0,0,0,0,0l0.1,0.2l0,0l-0.1-0.2c0,0,0,0,0,0c0,0,0,0,0,0c0,0,0,0,0,0c0,0,0,0,0,0
			c0,0,0,0,0,0c0,0,0,0,0,0c0,0,0,0,0,0c0,0,0,0,0,0c0,0,0,0,0,0c0,0,0,0,0,0l0.1,0.2l0,0L19.5,20.3C19.6,20.3,19.6,20.3,19.5,20.3
			C19.6,20.3,19.6,20.3,19.5,20.3C19.6,20.3,19.6,20.3,19.5,20.3C19.6,20.3,19.6,20.3,19.5,20.3C19.6,20.3,19.6,20.3,19.5,20.3
			C19.6,20.3,19.6,20.3,19.5,20.3C19.6,20.3,19.6,20.3,19.5,20.3C19.6,20.3,19.6,20.3,19.5,20.3l0.1,0.3l0,0L19.5,20.3L19.5,20.3
			L19.5,20.3z"/>
		<path class="st2" d="M19.9,20.2L19.9,20.2L19.9,20.2C19.9,20.2,19.9,20.2,19.9,20.2C19.9,20.2,19.9,20.2,19.9,20.2
			c0.1,0,0.1,0,0.1,0c0,0,0,0,0,0c0,0,0,0,0.1,0c0,0,0,0,0,0c0,0,0,0,0,0c0,0,0,0,0,0.1l0,0c0,0,0,0,0,0.1c0,0,0,0,0,0.1
			c0,0,0,0,0,0c0,0,0,0,0,0c0,0,0,0,0,0c0,0,0,0,0,0c0,0,0,0,0,0c0,0,0,0,0,0l0,0.1l-0.1,0L19.9,20.2z M20.1,20.2
			C20.1,20.2,20.1,20.2,20.1,20.2C20,20.2,20,20.2,20.1,20.2c-0.1,0-0.1,0-0.1,0c0,0,0,0,0,0c0,0,0,0,0,0c0,0,0,0,0,0c0,0,0,0,0,0
			l0,0.1c0,0,0,0,0,0c0,0,0,0,0,0c0,0,0,0,0,0c0,0,0,0,0,0c0,0,0,0,0,0c0,0,0,0,0,0C20.1,20.3,20.1,20.3,20.1,20.2
			C20.1,20.3,20.1,20.3,20.1,20.2L20.1,20.2C20.1,20.2,20.1,20.2,20.1,20.2z"/>
		<path class="st2" d="M20.3,19.9l0.1,0.4l0.1,0l0,0l-0.3,0.1l0,0l0.1,0L20.3,19.9L20.2,20l0,0L20.3,19.9z"/>
		<path class="st2" d="M20.8,20.2C20.8,20.2,20.8,20.2,20.8,20.2C20.8,20.2,20.8,20.2,20.8,20.2C20.8,20.2,20.8,20.2,20.8,20.2
			C20.8,20.2,20.8,20.2,20.8,20.2C20.8,20.2,20.7,20.2,20.8,20.2c-0.1,0.1-0.1,0.1-0.1,0.1c0,0,0,0,0,0c0,0,0,0,0,0c0,0,0,0,0,0
			c0,0,0,0,0,0c0,0,0,0,0,0c0,0,0,0,0,0c0,0,0,0,0.1,0l0.1,0l0,0c0,0,0,0,0,0c0,0,0,0,0,0c0,0,0,0,0,0c0,0,0,0,0,0c0,0,0,0,0,0
			c0,0,0,0,0,0c0,0,0,0,0,0c0,0,0,0,0,0l-0.1,0c0,0,0,0,0,0c0,0,0,0,0,0c0,0,0,0,0,0c0,0,0,0,0,0c0,0,0,0,0,0c0,0,0,0,0,0
			c0,0,0,0,0,0c0,0,0,0,0,0L20.8,20.2C20.9,20.1,20.9,20.1,20.8,20.2C20.9,20.1,20.9,20.1,20.8,20.2L20.8,20.2L20.8,20.2
			C20.8,20.2,20.8,20.2,20.8,20.2z M20.8,20.2C20.8,20.1,20.8,20.1,20.8,20.2C20.8,20.1,20.8,20.1,20.8,20.2
			C20.8,20.1,20.8,20.1,20.8,20.2l0-0.1l0,0C20.7,20.1,20.7,20.1,20.8,20.2C20.7,20.1,20.7,20.1,20.8,20.2c-0.1-0.1-0.1,0-0.1,0
			c0,0,0,0,0,0C20.7,20.1,20.7,20.1,20.8,20.2C20.7,20.2,20.7,20.2,20.8,20.2C20.7,20.2,20.7,20.2,20.8,20.2
			C20.7,20.2,20.7,20.2,20.8,20.2C20.7,20.2,20.7,20.2,20.8,20.2z"/>
		<path class="st2" d="M21,19.8l0.1,0l0,0L21,19.8l0.1,0.2c0,0,0,0,0,0c0,0,0,0,0,0c0,0,0,0,0,0c0,0,0,0,0,0c0,0,0,0,0,0
			c0,0,0,0,0,0c0,0,0,0,0,0c0,0,0,0,0,0l0,0c0,0,0,0,0,0c0,0,0,0,0,0c0,0,0,0,0,0c0,0,0,0,0,0c0,0,0,0,0,0c0,0,0,0,0,0c0,0,0,0,0,0
			c0,0,0,0,0,0L21,19.8l-0.1,0.1l0,0L21,19.8L21,19.8L21,19.8L21,19.8z"/>
		<path class="st2" d="M21.4,20C21.4,20,21.3,20,21.4,20c-0.1,0-0.1,0-0.1-0.1c0,0,0,0,0-0.1l0,0c0,0,0,0,0-0.1c0,0,0,0,0-0.1
			c0,0,0,0,0,0c0,0,0,0,0,0c0,0,0,0,0.1,0c0,0,0,0,0.1,0c0,0,0,0,0,0c0,0,0,0,0,0.1l0,0l-0.2,0.1l0,0C21.3,19.9,21.3,19.9,21.4,20
			C21.3,19.9,21.3,19.9,21.4,20C21.4,19.9,21.4,19.9,21.4,20C21.4,19.9,21.4,19.9,21.4,20C21.5,19.9,21.5,19.9,21.4,20
			c0.1-0.1,0.1-0.1,0.1-0.1l0,0c0,0,0,0,0,0.1C21.5,19.9,21.5,20,21.4,20C21.4,20,21.4,20,21.4,20z M21.3,19.7
			C21.3,19.7,21.3,19.7,21.3,19.7C21.3,19.8,21.3,19.8,21.3,19.7C21.3,19.8,21.3,19.8,21.3,19.7l0.1,0l0,0c0,0,0,0,0,0
			C21.4,19.7,21.4,19.7,21.3,19.7C21.4,19.7,21.4,19.7,21.3,19.7C21.4,19.7,21.4,19.7,21.3,19.7C21.3,19.7,21.3,19.7,21.3,19.7z"/>
		<path class="st2" d="M21.6,19.8l0.2-0.1l0,0l0,0l-0.2,0l0-0.1l0.3,0l0,0L21.6,19.8L21.6,19.8z"/>
		<path class="st2" d="M20.2,21.2L20.2,21.2l0.2-0.2l0,0.1L20.2,21.2L20.2,21.2L20.2,21.2l0.3,0l0,0.1L20.2,21.2z"/>
		<path class="st2" d="M20.5,21C20.5,21,20.5,21,20.5,21c0-0.1,0-0.1,0-0.1c0,0,0,0,0,0c0,0,0,0,0,0c0,0,0,0,0,0l-0.1-0.2l0.1,0
			l0.1,0.4l0,0l0,0c0,0,0,0,0,0c0,0,0,0,0,0c0,0,0,0-0.1,0c0,0,0,0,0,0c0,0,0,0,0,0S20.5,21.1,20.5,21L20.5,21
			C20.5,21.1,20.5,21,20.5,21z M20.6,21.1C20.6,21.1,20.6,21.1,20.6,21.1C20.6,21.1,20.6,21.2,20.6,21.1
			C20.7,21.2,20.7,21.2,20.6,21.1c0.1,0,0.1,0,0.1,0c0,0,0,0,0,0l0-0.1c0,0,0,0,0,0c0,0,0,0,0,0c0,0,0,0,0,0c0,0,0,0,0,0
			C20.6,21,20.6,21,20.6,21.1C20.6,21,20.6,21,20.6,21.1L20.6,21.1C20.6,21.1,20.6,21.1,20.6,21.1z"/>
		<path class="st2" d="M21,20.8l0.1,0.3l0.1,0l0,0l-0.3,0.1l0,0l0.1,0L21,20.8l-0.1,0.1l0,0L21,20.8z M20.9,20.7
			C20.9,20.7,20.9,20.7,20.9,20.7C20.9,20.7,20.9,20.7,20.9,20.7C20.9,20.7,20.9,20.7,20.9,20.7C20.9,20.7,20.9,20.7,20.9,20.7
			C20.9,20.7,20.9,20.7,20.9,20.7C21,20.7,21,20.7,20.9,20.7C21,20.7,21,20.7,20.9,20.7C21,20.7,21,20.7,20.9,20.7
			C21,20.7,21,20.7,20.9,20.7C20.9,20.7,20.9,20.7,20.9,20.7C20.9,20.7,20.9,20.7,20.9,20.7C20.9,20.7,20.9,20.7,20.9,20.7z"/>
		<path class="st2" d="M21.1,20.7L21.1,20.7l0.2,0.2l0,0l0,0l0-0.3l0.1,0l0,0.3l0,0L21.1,20.7z"/>
		<path class="st2" d="M21.6,20.8l0.2-0.1l0,0l0,0l-0.2,0l0-0.1l0.3,0l0,0L21.6,20.8L21.6,20.8z"/>
		<path class="st2" d="M21.8,21.6L21.8,21.6l0.2-0.2l0,0.1L21.8,21.6L21.8,21.6L21.8,21.6l0.3,0l0,0.1L21.8,21.6z"/>
		<path class="st2" d="M22.2,21.3C22.2,21.3,22.2,21.3,22.2,21.3C22.2,21.3,22.2,21.3,22.2,21.3C22.3,21.3,22.3,21.3,22.2,21.3
			c0.1-0.1,0.1-0.1,0.1-0.1c0,0,0,0,0,0c0,0,0,0,0,0c0,0,0,0,0,0l0.1,0.2l-0.1,0l-0.1-0.2c0,0,0,0,0,0c0,0,0,0,0,0
			C22.3,21.3,22.3,21.3,22.2,21.3C22.3,21.3,22.3,21.3,22.2,21.3C22.3,21.3,22.3,21.3,22.2,21.3C22.3,21.4,22.2,21.4,22.2,21.3
			C22.2,21.4,22.2,21.4,22.2,21.3C22.2,21.4,22.2,21.4,22.2,21.3l0.1,0.3l-0.1,0l-0.1-0.4l0.1,0L22.2,21.3
			C22.2,21.4,22.2,21.4,22.2,21.3z"/>
		<path class="st2" d="M22.7,21.5l-0.1-0.3l-0.1,0.1l0,0l0.1-0.1l0,0L22.7,21.5L22.7,21.5z"/>
		<path class="st2" d="M22.9,21.3l0.2-0.1l0,0l0,0l-0.2,0l0-0.1l0.3,0l0,0L22.9,21.3L22.9,21.3z"/>
		<path class="st2" d="M23.3,21.1l0.1,0.2l-0.1,0l-0.1-0.4l0.2-0.1l0,0l-0.2,0.1L23.3,21.1l0.2-0.1l0,0L23.3,21.1z"/>
		<path class="st2" d="M23.7,20.8C23.7,20.8,23.7,20.8,23.7,20.8L23.7,20.8C23.8,20.9,23.7,20.9,23.7,20.8
			C23.7,20.9,23.7,20.9,23.7,20.8C23.7,20.9,23.7,20.9,23.7,20.8c-0.1,0.1-0.1,0.1-0.1,0.1c0,0,0,0,0,0s0,0,0,0l0.1,0.2l-0.1,0
			l-0.1-0.3l0,0l0,0l0,0C23.6,20.9,23.6,20.9,23.7,20.8C23.7,20.8,23.7,20.8,23.7,20.8C23.7,20.8,23.7,20.8,23.7,20.8z"/>
		<path class="st2" d="M24,21C24,21,24,21,24,21c-0.1,0-0.1,0-0.1-0.1c0,0,0,0,0-0.1l0,0c0,0,0,0,0-0.1c0,0,0,0,0-0.1c0,0,0,0,0,0
			c0,0,0,0,0,0c0,0,0,0,0.1,0c0,0,0,0,0.1,0c0,0,0,0,0,0c0,0,0,0,0,0.1l0,0l-0.2,0.1l0,0C23.9,20.9,24,20.9,24,21C24,21,24,21,24,21
			C24,21,24,21,24,21C24,21,24.1,21,24,21C24.1,21,24.1,21,24,21c0.1-0.1,0.1-0.1,0.1-0.1l0,0c0,0,0,0,0,0.1C24.1,21,24.1,21,24,21
			C24.1,21,24,21,24,21z M24,20.8C23.9,20.8,23.9,20.8,24,20.8C23.9,20.8,23.9,20.8,24,20.8C23.9,20.8,23.9,20.9,24,20.8l0.1,0l0,0
			c0,0,0,0,0,0S24.1,20.8,24,20.8C24,20.8,24,20.8,24,20.8C24,20.8,24,20.8,24,20.8C24,20.8,24,20.8,24,20.8z"/>
		<path class="st2" d="M24.4,20.9C24.3,20.9,24.3,20.9,24.4,20.9c-0.1,0-0.1,0-0.1-0.1s0,0,0-0.1l0,0c0,0,0,0,0-0.1c0,0,0,0,0-0.1
			c0,0,0,0,0,0c0,0,0,0,0,0c0,0,0,0,0.1,0c0,0,0,0,0.1,0c0,0,0,0,0,0c0,0,0,0,0,0.1l0,0l-0.2,0.1l0,0C24.3,20.8,24.3,20.8,24.4,20.9
			C24.3,20.9,24.3,20.9,24.4,20.9C24.3,20.9,24.4,20.9,24.4,20.9C24.4,20.9,24.4,20.9,24.4,20.9C24.4,20.9,24.4,20.9,24.4,20.9
			c0.1-0.1,0.1-0.1,0.1-0.1l0,0c0,0,0,0,0,0.1C24.5,20.9,24.4,20.9,24.4,20.9C24.4,20.9,24.4,20.9,24.4,20.9z M24.3,20.7
			C24.3,20.7,24.3,20.7,24.3,20.7C24.3,20.7,24.3,20.7,24.3,20.7C24.3,20.7,24.3,20.7,24.3,20.7l0.1,0l0,0c0,0,0,0,0,0
			C24.4,20.7,24.4,20.7,24.3,20.7C24.4,20.6,24.4,20.6,24.3,20.7C24.3,20.6,24.3,20.6,24.3,20.7C24.3,20.7,24.3,20.7,24.3,20.7z"/>
		<path class="st2" d="M24.9,20.5C24.9,20.5,24.9,20.5,24.9,20.5c0-0.1,0-0.1,0-0.1c0,0,0,0,0.1,0c0,0,0,0,0.1,0c0,0,0,0,0.1,0
			c0,0,0,0,0,0c0,0,0,0,0,0.1l0,0c0,0,0,0,0,0.1c0,0,0,0,0,0.1c0,0,0,0,0,0c0,0,0,0-0.1,0c0,0,0,0-0.1,0c0,0,0,0-0.1,0c0,0,0,0,0,0
			C24.9,20.6,24.9,20.6,24.9,20.5L24.9,20.5C24.9,20.6,24.9,20.5,24.9,20.5z M25,20.6C25,20.6,25,20.6,25,20.6
			C25,20.6,25,20.6,25,20.6c0.1,0,0.1,0,0.1,0c0,0,0,0,0,0c0,0,0,0,0,0c0,0,0,0,0,0c0,0,0,0,0,0l0,0c0,0,0,0,0,0c0,0,0,0,0,0
			c0,0,0,0,0,0c0,0,0,0,0,0c0,0,0,0,0,0c0,0,0,0,0,0C24.9,20.5,24.9,20.5,25,20.6C24.9,20.5,24.9,20.5,25,20.6L25,20.6
			C25,20.6,25,20.6,25,20.6z"/>
		<path class="st2" d="M25.2,20.3L25.2,20.3L25.2,20.3C25.3,20.3,25.3,20.3,25.2,20.3C25.3,20.3,25.3,20.3,25.2,20.3
			c0.1,0,0.1,0,0.1,0c0,0,0,0,0,0c0,0,0,0,0,0s0,0,0,0c0,0,0,0,0,0c0,0,0,0,0,0l0.1,0.2l-0.1,0l-0.1-0.2c0,0,0,0,0,0c0,0,0,0,0,0
			c0,0,0,0,0,0c0,0,0,0,0,0c0,0,0,0,0,0C25.3,20.3,25.3,20.3,25.2,20.3C25.3,20.3,25.3,20.3,25.2,20.3
			C25.3,20.4,25.3,20.4,25.2,20.3l0.2,0.3l-0.1,0L25.2,20.3z"/>
		<path class="st2" d="M25.7,20l0.1,0.4l0.1,0l0,0l-0.3,0.1l0,0l0.1,0L25.7,20l-0.1,0.1l0,0L25.7,20z"/>
		<path class="st2" d="M26,20l0.1,0.3l0.1,0l0,0L26,20.4l0,0l0.1,0L26,20l-0.1,0.1l0,0L26,20z M26,20C26,19.9,26,19.9,26,20
			C26,19.9,26,19.9,26,20C26,19.9,26,19.9,26,20C26,19.9,26,19.9,26,20C26,19.9,26,19.9,26,20C26,19.9,26,19.9,26,20
			C26,19.9,26,19.9,26,20C26,20,26,20,26,20C26,20,26,20,26,20C26,20,26,20,26,20C26,20,26,20,26,20C26,20,26,20,26,20z"/>
		<path class="st2" d="M26.2,20L26.2,20L26.2,20C26.3,20,26.3,20,26.2,20C26.3,20,26.3,20,26.2,20c0.1,0,0.1,0,0.1,0c0,0,0,0,0,0
			c0,0,0,0,0,0c0,0,0,0,0,0c0,0,0,0,0,0c0,0,0,0,0,0l0.1,0.2l-0.1,0L26.5,20c0,0,0,0,0,0c0,0,0,0,0,0c0,0,0,0,0,0c0,0,0,0,0,0
			c0,0,0,0,0,0C26.3,20,26.3,20,26.2,20C26.3,20,26.3,20,26.2,20C26.3,20,26.3,20,26.2,20l0.2,0.3l-0.1,0L26.2,20z"/>
		<path class="st2" d="M26.7,20.1C26.7,20.1,26.7,20.1,26.7,20.1c-0.1,0-0.1,0-0.1-0.1s0,0,0-0.1l0,0c0,0,0,0,0-0.1c0,0,0,0,0-0.1
			c0,0,0,0,0,0c0,0,0,0,0,0c0,0,0,0,0.1,0c0,0,0,0,0.1,0c0,0,0,0,0,0c0,0,0,0,0,0.1l0,0L26.7,20l0,0C26.7,20,26.7,20,26.7,20.1
			C26.7,20,26.7,20.1,26.7,20.1C26.7,20.1,26.7,20.1,26.7,20.1C26.8,20.1,26.8,20.1,26.7,20.1C26.8,20.1,26.8,20.1,26.7,20.1
			c0.1-0.1,0.1-0.1,0.1-0.1l0,0c0,0,0,0,0,0.1C26.8,20.1,26.8,20.1,26.7,20.1C26.8,20.1,26.8,20.1,26.7,20.1z M26.7,19.9
			C26.7,19.9,26.7,19.9,26.7,19.9C26.6,19.9,26.6,19.9,26.7,19.9C26.6,19.9,26.6,19.9,26.7,19.9l0.1,0l0,0c0,0,0,0,0,0
			C26.8,19.9,26.8,19.9,26.7,19.9C26.8,19.8,26.7,19.8,26.7,19.9C26.7,19.8,26.7,19.8,26.7,19.9C26.7,19.8,26.7,19.9,26.7,19.9z"/>
		<path class="st2" d="M27.5,19.8C27.5,19.8,27.5,19.8,27.5,19.8C27.5,19.7,27.5,19.7,27.5,19.8C27.5,19.7,27.4,19.7,27.5,19.8
			c-0.1,0-0.1,0-0.1,0c0,0,0,0,0,0c0,0,0,0,0,0c0,0,0,0,0,0c0,0,0,0,0,0c0,0,0,0,0,0c0,0,0,0,0,0c0,0,0,0,0,0c0,0,0,0,0.1,0
			c0,0,0,0,0,0c0,0,0,0,0,0c0,0,0,0,0,0l-0.1,0c0,0,0,0,0,0c0,0,0,0,0,0c0,0,0,0,0,0c0,0,0,0,0,0c0,0,0,0,0,0c0,0,0,0,0,0
			c0,0,0,0,0,0c0,0,0,0,0,0c0,0,0,0,0,0s0,0,0,0c0,0,0,0,0,0C27.4,19.7,27.4,19.7,27.5,19.8C27.4,19.7,27.5,19.7,27.5,19.8
			C27.5,19.7,27.5,19.7,27.5,19.8C27.5,19.7,27.5,19.7,27.5,19.8C27.6,19.7,27.6,19.7,27.5,19.8C27.6,19.8,27.6,19.8,27.5,19.8
			C27.6,19.8,27.6,19.8,27.5,19.8c0,0.1,0,0.1,0,0.1s0,0,0,0c0,0,0,0-0.1,0c0,0,0,0,0,0c0,0,0,0,0,0c0,0,0,0,0,0l0.1,0c0,0,0,0,0,0
			c0,0,0,0,0,0C27.4,19.8,27.4,19.8,27.5,19.8C27.4,19.8,27.5,19.8,27.5,19.8C27.5,19.8,27.5,19.8,27.5,19.8
			C27.5,19.8,27.5,19.8,27.5,19.8C27.5,19.8,27.5,19.8,27.5,19.8C27.5,19.8,27.5,19.8,27.5,19.8C27.5,19.8,27.5,19.8,27.5,19.8z"/>
		<path class="st2" d="M27.8,19.7C27.8,19.7,27.8,19.7,27.8,19.7C27.8,19.7,27.9,19.7,27.8,19.7C27.9,19.7,27.9,19.7,27.8,19.7
			L27.8,19.7C27.9,19.6,27.9,19.7,27.8,19.7C27.9,19.7,27.9,19.7,27.8,19.7C27.9,19.7,27.9,19.7,27.8,19.7
			C27.8,19.8,27.8,19.8,27.8,19.7C27.8,19.8,27.8,19.8,27.8,19.7c-0.1,0.1-0.1,0.1-0.1,0c0,0,0,0,0,0c0,0,0,0,0-0.1l0,0
			c0,0,0,0,0-0.1c0,0,0,0,0-0.1c0,0,0,0,0,0c0,0,0,0,0.1,0c0,0,0,0,0.1,0c0,0,0,0,0,0c0,0,0,0,0,0s0,0,0,0l0,0c0,0,0,0,0,0
			c0,0,0,0,0,0c0,0,0,0,0,0c0,0,0,0,0,0c0,0,0,0,0,0s0,0,0,0c0,0,0,0,0,0c0,0,0,0,0,0l0,0c0,0,0,0,0,0c0,0,0,0,0,0
			C27.7,19.7,27.7,19.7,27.8,19.7C27.8,19.7,27.8,19.7,27.8,19.7C27.8,19.7,27.8,19.7,27.8,19.7z"/>
		<path class="st2" d="M28,19.4C28,19.4,28,19.4,28,19.4C28,19.4,28,19.4,28,19.4C28,19.3,28.1,19.3,28,19.4
			c0.1-0.1,0.1-0.1,0.1-0.1c0,0,0,0,0,0c0,0,0,0,0,0c0,0,0,0,0,0l0.1,0.2l-0.1,0l-0.1-0.2c0,0,0,0,0,0c0,0,0,0,0,0
			C28.1,19.4,28.1,19.4,28,19.4C28.1,19.4,28.1,19.4,28,19.4C28.1,19.4,28,19.4,28,19.4C28,19.4,28,19.4,28,19.4
			C28,19.4,28,19.4,28,19.4C28,19.4,28,19.4,28,19.4l0.1,0.3l-0.1,0l-0.1-0.4l0.1,0L28,19.4C28,19.4,28,19.4,28,19.4z"/>
		<path class="st2" d="M28.3,19.4C28.3,19.3,28.3,19.3,28.3,19.4c0-0.1,0-0.1,0-0.1c0,0,0,0,0.1,0c0,0,0,0,0.1,0c0,0,0,0,0.1,0
			c0,0,0,0,0,0c0,0,0,0,0,0.1l0,0c0,0,0,0,0,0.1c0,0,0,0,0,0.1c0,0,0,0,0,0c0,0,0,0-0.1,0c0,0,0,0-0.1,0c0,0,0,0-0.1,0c0,0,0,0,0,0
			C28.3,19.5,28.3,19.5,28.3,19.4L28.3,19.4C28.3,19.4,28.3,19.4,28.3,19.4z M28.4,19.5C28.4,19.5,28.4,19.5,28.4,19.5
			C28.4,19.5,28.4,19.5,28.4,19.5c0.1,0,0.1,0,0.1,0c0,0,0,0,0,0c0,0,0,0,0,0c0,0,0,0,0,0c0,0,0,0,0,0l0,0c0,0,0,0,0,0c0,0,0,0,0,0
			c0,0,0,0,0,0c0,0,0,0,0,0c0,0,0,0,0,0c0,0,0,0,0,0C28.3,19.3,28.3,19.4,28.4,19.5C28.3,19.4,28.3,19.4,28.4,19.5L28.4,19.5
			C28.4,19.4,28.4,19.4,28.4,19.5z"/>
		<path class="st2" d="M28.6,19.3C28.6,19.2,28.6,19.2,28.6,19.3c0-0.1,0-0.1,0-0.1s0,0,0.1,0c0,0,0,0,0.1,0c0,0,0,0,0.1,0
			c0,0,0,0,0,0c0,0,0,0,0,0.1l0,0c0,0,0,0,0,0.1c0,0,0,0,0,0.1c0,0,0,0,0,0c0,0,0,0-0.1,0c0,0,0,0-0.1,0c0,0,0,0-0.1,0c0,0,0,0,0,0
			C28.7,19.4,28.6,19.3,28.6,19.3L28.6,19.3C28.6,19.3,28.6,19.3,28.6,19.3z M28.7,19.3C28.7,19.4,28.7,19.4,28.7,19.3
			C28.8,19.4,28.8,19.4,28.7,19.3c0.1,0,0.1,0,0.1,0c0,0,0,0,0,0c0,0,0,0,0,0c0,0,0,0,0,0c0,0,0,0,0,0l0,0c0,0,0,0,0,0c0,0,0,0,0,0
			c0,0,0,0,0,0c0,0,0,0,0,0c0,0,0,0,0,0c0,0,0,0,0,0C28.7,19.2,28.7,19.2,28.7,19.3C28.7,19.3,28.7,19.3,28.7,19.3L28.7,19.3
			C28.7,19.3,28.7,19.3,28.7,19.3z"/>
		<path class="st2" d="M29.1,18.9l0.1,0.4l0.1,0l0,0l-0.3,0.1l0,0l0.1,0L29.1,18.9L28.9,19l0,0L29.1,18.9z"/>
		<path class="st2" d="M29.3,19.1L29.3,19.1l0.2-0.2l0,0.1L29.3,19.1L29.3,19.1L29.3,19.1l0.3,0l0,0.1L29.3,19.1z"/>
		<path class="st2" d="M29.8,19.1l0-0.5l0,0L29.8,19.1L29.8,19.1z"/>
		<path class="st2" d="M30,18.7C30,18.7,30,18.7,30,18.7C30.1,18.7,30.1,18.7,30,18.7C30.1,18.7,30.1,18.7,30,18.7
			c0.1-0.1,0.1-0.1,0.1-0.1c0,0,0,0,0,0c0,0,0,0,0,0c0,0,0,0,0,0l0.1,0.2l-0.1,0l-0.1-0.2c0,0,0,0,0,0c0,0,0,0,0,0
			C30.2,18.7,30.1,18.7,30,18.7C30.1,18.7,30.1,18.7,30,18.7C30.1,18.7,30.1,18.7,30,18.7C30.1,18.7,30.1,18.7,30,18.7
			C30.1,18.7,30.1,18.7,30,18.7C30,18.8,30,18.8,30,18.7l0.1,0.3l-0.1,0l-0.1-0.4l0.1,0L30,18.7C30,18.7,30,18.7,30,18.7z"/>
		<path class="st2" d="M30.5,18.8l-0.1-0.3l-0.1,0.1l0,0l0.1-0.1l0,0L30.5,18.8L30.5,18.8z"/>
		<path class="st2" d="M30.7,18.7l0.2-0.1l0,0l0,0l-0.2,0l0-0.1l0.3,0l0,0L30.7,18.7L30.7,18.7z"/>
		<path class="st2" d="M22.1,22.5L22.1,22.5l0.2-0.2l0,0.1L22.1,22.5L22.1,22.5L22.1,22.5l0.3,0l0,0.1L22.1,22.5z"/>
		<path class="st2" d="M22.5,22.2L22.5,22.2L22.5,22.2L22.5,22.2L22.5,22.2c0-0.1,0-0.1,0-0.1c0,0,0,0,0,0c0,0,0,0,0,0c0,0,0,0,0,0
			c0,0,0,0,0,0c0,0,0,0,0,0c0,0,0,0,0,0c0,0,0,0,0,0l0,0c0,0,0,0,0,0c0,0,0,0,0,0c0,0,0,0,0,0c0,0,0,0,0,0c0,0,0,0,0,0
			C22.5,22.1,22.6,22.1,22.5,22.2L22.5,22.2l0.2-0.1l0,0L22.5,22.2l0.1,0.2l-0.1,0L22.5,22.2z"/>
		<path class="st2" d="M22.8,22.2C22.8,22.2,22.8,22.1,22.8,22.2c0-0.1,0-0.1,0-0.1c0,0,0,0,0.1,0c0,0,0,0,0.1,0c0,0,0,0,0.1,0
			c0,0,0,0,0,0c0,0,0,0,0,0.1l0,0c0,0,0,0,0,0.1s0,0,0,0.1c0,0,0,0,0,0c0,0,0,0-0.1,0c0,0,0,0-0.1,0c0,0,0,0-0.1,0c0,0,0,0,0,0
			C22.8,22.3,22.8,22.3,22.8,22.2L22.8,22.2C22.8,22.2,22.8,22.2,22.8,22.2z M22.9,22.3C22.9,22.3,22.9,22.3,22.9,22.3
			C22.9,22.3,22.9,22.3,22.9,22.3c0.1,0,0.1,0,0.1,0c0,0,0,0,0,0c0,0,0,0,0,0c0,0,0,0,0,0c0,0,0,0,0,0l0,0c0,0,0,0,0,0c0,0,0,0,0,0
			c0,0,0,0,0,0c0,0,0,0,0,0c0,0,0,0,0,0c0,0,0,0,0,0C22.9,22.2,22.9,22.2,22.9,22.3C22.9,22.2,22.9,22.2,22.9,22.3L22.9,22.3
			C22.9,22.3,22.9,22.3,22.9,22.3z"/>
		<path class="st2" d="M23.3,21.9C23.4,21.9,23.4,21.9,23.3,21.9L23.3,21.9C23.4,22,23.4,22,23.3,21.9C23.3,22,23.3,22,23.3,21.9
			C23.3,22,23.3,22,23.3,21.9C23.3,22,23.3,22,23.3,22c0,0,0,0,0,0c0,0,0,0,0,0l0.1,0.2l-0.1,0L23.2,22l0,0l0,0l0,0
			C23.2,22,23.2,22,23.3,21.9C23.3,21.9,23.3,21.9,23.3,21.9C23.3,21.9,23.3,21.9,23.3,21.9z"/>
		<path class="st2" d="M23.5,21.9C23.5,21.9,23.5,21.9,23.5,21.9C23.5,21.8,23.5,21.8,23.5,21.9C23.5,21.8,23.6,21.8,23.5,21.9
			C23.6,21.8,23.6,21.8,23.5,21.9c0.1-0.1,0.1-0.1,0.1-0.1c0,0,0,0,0,0c0,0,0,0,0,0c0,0,0,0,0,0c0,0,0,0,0,0c0,0,0,0,0,0
			c0,0,0,0,0,0c0,0,0,0,0,0c0,0,0,0,0,0c0,0,0,0,0,0l0.1,0.2l0,0l-0.1-0.2c0,0,0,0,0,0c0,0,0,0,0,0c0,0,0,0,0,0s0,0,0,0c0,0,0,0,0,0
			c0,0,0,0,0,0c0,0,0,0,0,0c0,0,0,0,0,0c0,0,0,0,0,0c0,0,0,0,0,0l0.1,0.2l0,0L23.5,21.9C23.6,21.9,23.6,21.9,23.5,21.9
			C23.6,21.9,23.6,21.9,23.5,21.9C23.6,21.9,23.6,21.9,23.5,21.9C23.5,21.9,23.5,21.9,23.5,21.9C23.5,21.9,23.5,21.9,23.5,21.9
			C23.5,21.9,23.5,21.9,23.5,21.9C23.5,21.9,23.5,21.9,23.5,21.9C23.5,21.9,23.5,21.9,23.5,21.9l0.1,0.3l0,0L23.5,21.9L23.5,21.9
			L23.5,21.9z"/>
		<path class="st2" d="M24.4,21.9C24.4,21.9,24.4,21.8,24.4,21.9C24.4,21.9,24.4,21.9,24.4,21.9C24.4,21.9,24.4,21.9,24.4,21.9
			C24.4,21.9,24.4,21.9,24.4,21.9C24.4,21.9,24.3,21.9,24.4,21.9c-0.1,0.1-0.1,0.1-0.1,0.1c0,0,0,0,0,0c0,0,0,0,0,0c0,0,0,0,0,0
			c0,0,0,0,0,0s0,0,0,0c0,0,0,0,0,0c0,0,0,0,0.1,0l0.1,0l0,0c0,0,0,0,0,0c0,0,0,0,0,0c0,0,0,0,0,0c0,0,0,0,0,0c0,0,0,0,0,0
			c0,0,0,0,0,0c0,0,0,0,0,0c0,0,0,0,0,0l-0.1,0c0,0,0,0,0,0c0,0,0,0,0,0c0,0,0,0,0,0c0,0,0,0,0,0c0,0,0,0,0,0c0,0,0,0,0,0
			c0,0,0,0,0,0c0,0,0,0,0,0L24.4,21.9C24.5,21.8,24.5,21.8,24.4,21.9C24.5,21.8,24.5,21.8,24.4,21.9L24.4,21.9L24.4,21.9
			C24.4,21.9,24.4,21.9,24.4,21.9z M24.4,21.9C24.4,21.8,24.4,21.8,24.4,21.9C24.4,21.8,24.4,21.8,24.4,21.9
			C24.4,21.8,24.4,21.8,24.4,21.9l0-0.1l0,0C24.3,21.8,24.3,21.8,24.4,21.9C24.3,21.8,24.3,21.8,24.4,21.9c-0.1-0.1-0.1,0-0.1,0
			c0,0,0,0,0,0C24.3,21.8,24.3,21.8,24.4,21.9C24.3,21.9,24.3,21.9,24.4,21.9C24.3,21.9,24.3,21.9,24.4,21.9
			C24.3,21.9,24.3,21.9,24.4,21.9C24.3,21.9,24.3,21.9,24.4,21.9z"/>
		<path class="st2" d="M24.7,21.7C24.7,21.7,24.7,21.7,24.7,21.7C24.7,21.7,24.7,21.7,24.7,21.7C24.7,21.7,24.7,21.7,24.7,21.7
			L24.7,21.7C24.8,21.7,24.8,21.7,24.7,21.7C24.8,21.7,24.8,21.7,24.7,21.7C24.8,21.7,24.8,21.8,24.7,21.7
			C24.7,21.8,24.7,21.8,24.7,21.7C24.7,21.8,24.7,21.8,24.7,21.7c-0.1,0.1-0.1,0.1-0.1,0c0,0,0,0,0,0c0,0,0,0,0-0.1l0,0
			c0,0,0,0,0-0.1c0,0,0,0,0-0.1c0,0,0,0,0,0c0,0,0,0,0.1,0c0,0,0,0,0.1,0c0,0,0,0,0,0c0,0,0,0,0,0c0,0,0,0,0,0l0,0c0,0,0,0,0,0
			s0,0,0,0c0,0,0,0,0,0c0,0,0,0,0,0c0,0,0,0,0,0c0,0,0,0,0,0c0,0,0,0,0,0c0,0,0,0,0,0l0,0c0,0,0,0,0,0c0,0,0,0,0,0
			C24.6,21.7,24.6,21.7,24.7,21.7C24.7,21.8,24.7,21.8,24.7,21.7C24.7,21.7,24.7,21.7,24.7,21.7z"/>
		<path class="st2" d="M24.9,21.4l0.1,0l0,0L24.9,21.4l0.1,0.2c0,0,0,0,0,0c0,0,0,0,0,0c0,0,0,0,0,0c0,0,0,0,0,0c0,0,0,0,0,0
			c0,0,0,0,0,0c0,0,0,0,0,0c0,0,0,0,0,0l0,0c0,0,0,0,0,0c0,0,0,0,0,0c0,0,0,0,0,0c0,0,0,0,0,0c0,0,0,0,0,0c0,0,0,0,0,0c0,0,0,0,0,0
			c0,0,0,0,0,0L24.9,21.4l-0.1,0.1l0,0L24.9,21.4L24.9,21.4L24.9,21.4L24.9,21.4z"/>
		<path class="st2" d="M25.3,21.2l0.1,0.3l0.1,0l0,0l-0.3,0.1l0,0l0.1,0L25.3,21.2l-0.1,0.1l0,0L25.3,21.2z M25.2,21.2
			C25.2,21.2,25.2,21.2,25.2,21.2C25.2,21.2,25.2,21.2,25.2,21.2C25.2,21.1,25.2,21.1,25.2,21.2C25.3,21.1,25.3,21.1,25.2,21.2
			C25.3,21.1,25.3,21.1,25.2,21.2C25.3,21.1,25.3,21.1,25.2,21.2C25.3,21.2,25.3,21.2,25.2,21.2C25.3,21.2,25.3,21.2,25.2,21.2
			C25.3,21.2,25.3,21.2,25.2,21.2C25.3,21.2,25.3,21.2,25.2,21.2C25.2,21.2,25.2,21.2,25.2,21.2C25.2,21.2,25.2,21.2,25.2,21.2z"/>
		<path class="st2" d="M25.5,21.3C25.5,21.2,25.5,21.2,25.5,21.3c0-0.1,0-0.1,0-0.1c0,0,0,0,0.1,0c0,0,0,0,0.1,0c0,0,0,0,0.1,0
			c0,0,0,0,0,0c0,0,0,0,0,0.1l0,0c0,0,0,0,0,0.1c0,0,0,0,0,0.1c0,0,0,0,0,0s0,0-0.1,0c0,0,0,0-0.1,0s0,0-0.1,0c0,0,0,0,0,0
			C25.6,21.4,25.5,21.4,25.5,21.3L25.5,21.3C25.5,21.3,25.5,21.3,25.5,21.3z M25.6,21.4C25.6,21.4,25.6,21.4,25.6,21.4
			C25.6,21.4,25.7,21.4,25.6,21.4c0.1,0,0.1,0,0.1,0c0,0,0,0,0,0c0,0,0,0,0,0c0,0,0,0,0,0c0,0,0,0,0,0l0,0c0,0,0,0,0,0c0,0,0,0,0,0
			c0,0,0,0,0,0c0,0,0,0,0,0c0,0,0,0,0,0s0,0,0,0C25.6,21.2,25.6,21.3,25.6,21.4C25.6,21.3,25.6,21.3,25.6,21.4L25.6,21.4
			C25.6,21.3,25.6,21.4,25.6,21.4z"/>
		<path class="st2" d="M25.8,21.1L25.8,21.1L25.8,21.1C25.9,21.1,25.9,21.1,25.8,21.1C25.9,21.1,25.9,21.1,25.8,21.1
			c0.1,0,0.1,0,0.1,0c0,0,0,0,0,0c0,0,0,0,0,0c0,0,0,0,0,0c0,0,0,0,0,0c0,0,0,0,0,0l0.1,0.2l-0.1,0l-0.1-0.2c0,0,0,0,0,0
			c0,0,0,0,0,0c0,0,0,0,0,0c0,0,0,0,0,0c0,0,0,0,0,0C25.9,21.1,25.9,21.1,25.8,21.1C25.9,21.1,25.9,21.1,25.8,21.1
			C25.9,21.1,25.9,21.1,25.8,21.1l0.2,0.3l-0.1,0L25.8,21.1z"/>
		<path class="st2" d="M26.2,21L26.2,21l0.2-0.1l0,0L26.2,21z M26.2,21.2L26.2,21.2l0.2-0.1l0,0L26.2,21.2z"/>
		<path class="st2" d="M26.6,20.8L26.6,20.8L26.6,20.8l-0.1-0.1l0,0l0,0L26.6,20.8z M26.7,20.8L26.7,20.8L26.7,20.8l-0.1-0.1l0,0
			l0,0L26.7,20.8z"/>
		<path class="st2" d="M27.1,20.6C27.1,20.6,27.1,20.6,27.1,20.6L27.1,20.6C27.1,20.7,27.1,20.7,27.1,20.6
			C27.1,20.7,27.1,20.7,27.1,20.6C27,20.7,27,20.7,27.1,20.6C27,20.7,27,20.7,27,20.7c0,0,0,0,0,0c0,0,0,0,0,0l0.1,0.2L27,21
			l-0.1-0.3l0,0l0,0l0,0C27,20.7,27,20.7,27.1,20.6C27,20.7,27,20.7,27.1,20.6C27.1,20.6,27.1,20.6,27.1,20.6z"/>
		<path class="st2" d="M27.2,20.7C27.2,20.7,27.2,20.7,27.2,20.7c0-0.1,0-0.1,0-0.1c0,0,0,0,0.1,0c0,0,0,0,0.1,0c0,0,0,0,0.1,0
			c0,0,0,0,0,0c0,0,0,0,0,0.1l0,0c0,0,0,0,0,0.1c0,0,0,0,0,0.1c0,0,0,0,0,0s0,0-0.1,0c0,0,0,0-0.1,0c0,0,0,0-0.1,0c0,0,0,0,0,0
			C27.3,20.8,27.2,20.8,27.2,20.7L27.2,20.7C27.2,20.7,27.2,20.7,27.2,20.7z M27.3,20.8C27.3,20.8,27.3,20.8,27.3,20.8
			C27.3,20.8,27.4,20.8,27.3,20.8c0.1,0,0.1,0,0.1,0c0,0,0,0,0,0c0,0,0,0,0,0c0,0,0,0,0,0c0,0,0,0,0,0l0,0c0,0,0,0,0,0c0,0,0,0,0,0
			c0,0,0,0,0,0c0,0,0,0,0,0c0,0,0,0,0,0c0,0,0,0,0,0C27.3,20.7,27.3,20.7,27.3,20.8C27.3,20.7,27.3,20.7,27.3,20.8L27.3,20.8
			C27.3,20.8,27.3,20.8,27.3,20.8z"/>
		<path class="st2" d="M27.9,20.6C27.9,20.6,27.9,20.6,27.9,20.6C27.9,20.7,27.9,20.7,27.9,20.6c0,0.1,0,0.1,0,0.1c0,0,0,0,0,0
			c0,0,0,0,0,0c0,0,0,0,0,0c0,0,0,0,0,0c0,0,0,0,0,0c0,0,0,0,0,0l0,0l0,0l-0.1-0.4l0.1,0l0.1,0.2c0,0,0,0,0,0c0,0,0,0,0,0
			c0,0,0,0,0,0c0,0,0,0,0,0c0,0,0,0,0,0c0,0,0,0,0,0c0,0,0,0,0,0c0,0,0,0,0,0C27.8,20.5,27.8,20.5,27.9,20.6
			C27.8,20.5,27.8,20.5,27.9,20.6L27.9,20.6C27.8,20.6,27.9,20.6,27.9,20.6z M27.8,20.5C27.8,20.5,27.8,20.5,27.8,20.5
			C27.8,20.5,27.8,20.5,27.8,20.5C27.7,20.5,27.7,20.5,27.8,20.5C27.7,20.5,27.7,20.5,27.8,20.5c-0.1-0.1-0.1-0.1-0.1-0.1
			c0,0,0,0,0,0c0,0,0,0,0,0c0,0,0,0,0,0c0,0,0,0,0,0l0,0.1c0,0,0,0,0,0c0,0,0,0,0,0c0,0,0,0,0,0c0,0,0,0,0,0c0,0,0,0,0,0
			c0,0,0,0,0,0c0,0,0,0,0,0C27.8,20.7,27.8,20.6,27.8,20.5C27.8,20.6,27.8,20.6,27.8,20.5C27.8,20.6,27.8,20.6,27.8,20.5L27.8,20.5
			C27.8,20.6,27.8,20.6,27.8,20.5z"/>
		<path class="st2" d="M27.9,20.5C27.9,20.4,27.9,20.4,27.9,20.5c0-0.1,0-0.1,0-0.1c0,0,0,0,0.1,0c0,0,0,0,0.1,0c0,0,0,0,0.1,0
			c0,0,0,0,0,0c0,0,0,0,0,0.1l0,0c0,0,0,0,0,0.1c0,0,0,0,0,0.1c0,0,0,0,0,0c0,0,0,0-0.1,0c0,0,0,0-0.1,0c0,0,0,0-0.1,0c0,0,0,0,0,0
			C27.9,20.6,27.9,20.6,27.9,20.5L27.9,20.5C27.9,20.5,27.9,20.5,27.9,20.5z M28,20.6C28,20.6,28,20.6,28,20.6
			C28,20.6,28,20.6,28,20.6c0.1,0,0.1,0,0.1,0c0,0,0,0,0,0c0,0,0,0,0,0c0,0,0,0,0,0c0,0,0,0,0,0l0,0c0,0,0,0,0,0c0,0,0,0,0,0
			c0,0,0,0,0,0c0,0,0,0,0,0c0,0,0,0,0,0c0,0,0,0,0,0C28,20.4,28,20.5,28,20.6C28,20.5,28,20.5,28,20.6L28,20.6
			C28,20.5,28,20.5,28,20.6z"/>
		<path class="st2" d="M28.2,20.3L28.2,20.3L28.2,20.3C28.3,20.3,28.3,20.3,28.2,20.3C28.3,20.3,28.3,20.3,28.2,20.3
			c0.1,0,0.1,0,0.1,0s0,0,0,0c0,0,0,0,0,0c0,0,0,0,0,0s0,0,0,0c0,0,0,0,0,0l0.1,0.2l-0.1,0l-0.1-0.2c0,0,0,0,0,0c0,0,0,0,0,0
			c0,0,0,0,0,0c0,0,0,0,0,0c0,0,0,0,0,0C28.3,20.3,28.3,20.3,28.2,20.3C28.3,20.3,28.3,20.3,28.2,20.3
			C28.3,20.3,28.3,20.3,28.2,20.3l0.2,0.3l-0.1,0L28.2,20.3z"/>
		<path class="st2" d="M28.6,20.2C28.6,20.2,28.6,20.2,28.6,20.2c0-0.1,0-0.1,0-0.1c0,0,0,0,0.1,0c0,0,0,0,0.1,0c0,0,0,0,0.1,0
			c0,0,0,0,0,0c0,0,0,0,0,0.1l0,0c0,0,0,0,0,0.1c0,0,0,0,0,0.1c0,0,0,0,0,0c0,0,0,0-0.1,0c0,0,0,0-0.1,0c0,0,0,0-0.1,0c0,0,0,0,0,0
			C28.6,20.3,28.6,20.3,28.6,20.2L28.6,20.2C28.6,20.3,28.6,20.3,28.6,20.2z M28.7,20.3C28.7,20.3,28.7,20.4,28.7,20.3
			C28.7,20.4,28.7,20.4,28.7,20.3c0.1,0,0.1,0,0.1,0c0,0,0,0,0,0s0,0,0,0c0,0,0,0,0,0c0,0,0,0,0,0l0,0c0,0,0,0,0,0c0,0,0,0,0,0
			c0,0,0,0,0,0s0,0,0,0c0,0,0,0,0,0c0,0,0,0,0,0C28.6,20.2,28.6,20.2,28.7,20.3C28.6,20.3,28.6,20.3,28.7,20.3L28.7,20.3
			C28.7,20.3,28.7,20.3,28.7,20.3z"/>
		<path class="st2" d="M28.9,20.1C28.9,20,28.9,20,28.9,20.1C29,20,29,20,28.9,20.1C29,20,29,20,28.9,20.1C29,20,29,20,28.9,20.1
			C29,20,29,20,29,20c0,0,0,0,0,0c0,0,0,0,0,0c0,0,0,0,0,0c0,0,0,0,0,0c0,0,0,0,0,0c0,0,0,0,0,0c0,0,0,0,0,0c0,0,0,0,0,0
			c0,0,0,0,0,0l0.1,0.2l0,0L29.1,20c0,0,0,0,0,0c0,0,0,0,0,0c0,0,0,0,0,0s0,0,0,0c0,0,0,0,0,0s0,0,0,0c0,0,0,0,0,0c0,0,0,0,0,0
			c0,0,0,0,0,0c0,0,0,0,0,0l0.1,0.2l0,0L28.9,20.1C29,20.1,29,20.1,28.9,20.1C29,20.1,29,20.1,28.9,20.1C29,20,29,20,28.9,20.1
			C29,20,29,20,28.9,20.1C29,20.1,29,20.1,28.9,20.1C29,20.1,29,20.1,28.9,20.1C28.9,20.1,28.9,20.1,28.9,20.1
			C28.9,20.1,28.9,20.1,28.9,20.1l0.1,0.3l0,0L28.9,20.1L28.9,20.1L28.9,20.1z"/>
		<path class="st2" d="M29.4,19.9l0.1,0.3l0.1,0l0,0l-0.3,0.1l0,0l0.1,0L29.4,19.9L29.3,20l0,0L29.4,19.9z M29.3,19.8
			C29.3,19.8,29.3,19.8,29.3,19.8C29.3,19.8,29.3,19.8,29.3,19.8C29.3,19.8,29.3,19.8,29.3,19.8C29.3,19.8,29.3,19.8,29.3,19.8
			C29.4,19.8,29.4,19.8,29.3,19.8C29.4,19.8,29.4,19.8,29.3,19.8C29.4,19.8,29.4,19.8,29.3,19.8C29.4,19.8,29.4,19.8,29.3,19.8
			C29.4,19.8,29.4,19.8,29.3,19.8C29.3,19.8,29.3,19.8,29.3,19.8C29.3,19.8,29.3,19.8,29.3,19.8C29.3,19.8,29.3,19.8,29.3,19.8z"/>
		<path class="st2" d="M29.8,20C29.8,20,29.8,20,29.8,20C29.8,20,29.8,20,29.8,20C29.9,20,29.9,20,29.8,20L29.8,20
			C29.9,19.9,29.9,20,29.8,20C29.9,20,29.9,20,29.8,20C29.9,20,29.9,20,29.8,20C29.8,20.1,29.8,20.1,29.8,20
			C29.8,20.1,29.8,20.1,29.8,20c-0.1,0.1-0.1,0.1-0.1,0c0,0,0,0,0,0c0,0,0,0,0-0.1l0,0c0,0,0,0,0-0.1c0,0,0,0,0-0.1c0,0,0,0,0,0
			c0,0,0,0,0.1,0c0,0,0,0,0.1,0c0,0,0,0,0,0c0,0,0,0,0,0c0,0,0,0,0,0l0,0c0,0,0,0,0,0c0,0,0,0,0,0c0,0,0,0,0,0c0,0,0,0,0,0
			c0,0,0,0,0,0c0,0,0,0,0,0c0,0,0,0,0,0c0,0,0,0,0,0l0,0c0,0,0,0,0,0c0,0,0,0,0,0C29.7,20,29.7,20,29.8,20C29.8,20,29.8,20,29.8,20
			C29.8,20,29.8,20,29.8,20z"/>
		<path class="st2" d="M30.2,19.8C30.2,19.8,30.2,19.8,30.2,19.8C30.2,19.8,30.1,19.8,30.2,19.8C30.1,19.8,30.1,19.8,30.2,19.8
			c-0.1,0-0.1,0-0.1,0c0,0,0,0,0,0c0,0,0,0,0,0c0,0,0,0,0,0c0,0,0,0,0,0c0,0,0,0,0,0c0,0,0,0,0,0c0,0,0,0,0,0c0,0,0,0,0.1,0s0,0,0,0
			c0,0,0,0,0,0c0,0,0,0,0,0l-0.1,0c0,0,0,0,0,0c0,0,0,0,0,0c0,0,0,0,0,0c0,0,0,0,0,0c0,0,0,0,0,0s0,0,0,0c0,0,0,0,0,0c0,0,0,0,0,0
			c0,0,0,0,0,0c0,0,0,0,0,0c0,0,0,0,0,0C30.1,19.8,30.1,19.8,30.2,19.8C30.1,19.8,30.1,19.8,30.2,19.8
			C30.2,19.8,30.2,19.8,30.2,19.8C30.2,19.8,30.2,19.8,30.2,19.8C30.2,19.8,30.2,19.8,30.2,19.8C30.2,19.8,30.2,19.8,30.2,19.8
			C30.2,19.9,30.2,19.9,30.2,19.8c0,0.1,0,0.1,0,0.1c0,0,0,0,0,0c0,0,0,0-0.1,0c0,0,0,0,0,0c0,0,0,0,0,0c0,0,0,0,0,0l0.1,0
			c0,0,0,0,0,0c0,0,0,0,0,0C30.1,19.9,30.1,19.9,30.2,19.8C30.1,19.9,30.1,19.9,30.2,19.8C30.1,19.9,30.2,19.9,30.2,19.8
			C30.2,19.9,30.2,19.9,30.2,19.8C30.2,19.9,30.2,19.9,30.2,19.8C30.2,19.9,30.2,19.8,30.2,19.8C30.2,19.8,30.2,19.8,30.2,19.8z"/>
		<path class="st2" d="M30.4,19.8C30.4,19.8,30.5,19.8,30.4,19.8C30.5,19.8,30.5,19.8,30.4,19.8C30.5,19.8,30.5,19.8,30.4,19.8
			C30.5,19.8,30.5,19.8,30.4,19.8C30.5,19.8,30.5,19.8,30.4,19.8C30.5,19.8,30.5,19.8,30.4,19.8C30.4,19.8,30.4,19.8,30.4,19.8
			C30.4,19.8,30.4,19.8,30.4,19.8z"/>
		<path class="st2" d="M30.9,19.7C30.9,19.7,30.9,19.7,30.9,19.7C30.9,19.7,30.9,19.7,30.9,19.7C30.9,19.7,30.9,19.7,30.9,19.7
			C30.8,19.7,30.8,19.7,30.9,19.7C30.8,19.7,30.8,19.7,30.9,19.7c-0.1,0.1-0.1,0.1-0.1,0.1c0,0,0,0,0,0c0,0,0,0,0,0s0,0,0,0
			c0,0,0,0,0,0c0,0,0,0,0,0c0,0,0,0,0,0s0,0,0.1,0l0.1,0l0,0c0,0,0,0,0,0c0,0,0,0,0,0c0,0,0,0,0,0c0,0,0,0,0,0c0,0,0,0,0,0
			c0,0,0,0,0,0c0,0,0,0,0,0c0,0,0,0,0,0l-0.1,0c0,0,0,0,0,0c0,0,0,0,0,0c0,0,0,0,0,0c0,0,0,0,0,0c0,0,0,0,0,0c0,0,0,0,0,0
			c0,0,0,0,0,0c0,0,0,0,0,0L30.9,19.7C30.9,19.6,30.9,19.6,30.9,19.7C30.9,19.7,30.9,19.7,30.9,19.7L30.9,19.7L30.9,19.7
			C30.9,19.7,30.9,19.7,30.9,19.7z M30.8,19.7C30.8,19.7,30.8,19.7,30.8,19.7C30.8,19.6,30.8,19.6,30.8,19.7
			C30.9,19.6,30.9,19.6,30.8,19.7l0-0.1l0,0C30.8,19.6,30.8,19.6,30.8,19.7C30.7,19.6,30.7,19.6,30.8,19.7c-0.1-0.1-0.1,0-0.1,0
			c0,0,0,0,0,0C30.7,19.7,30.7,19.7,30.8,19.7C30.7,19.7,30.7,19.7,30.8,19.7C30.7,19.7,30.8,19.7,30.8,19.7
			C30.8,19.7,30.8,19.7,30.8,19.7C30.8,19.7,30.8,19.7,30.8,19.7z"/>
		<path class="st2" d="M31.2,19.6C31.2,19.5,31.2,19.5,31.2,19.6C31.2,19.5,31.2,19.5,31.2,19.6C31.2,19.5,31.2,19.5,31.2,19.6
			L31.2,19.6C31.3,19.5,31.3,19.5,31.2,19.6C31.3,19.5,31.3,19.5,31.2,19.6C31.2,19.6,31.2,19.6,31.2,19.6
			C31.2,19.6,31.2,19.6,31.2,19.6C31.1,19.6,31.1,19.6,31.2,19.6c-0.1,0.1-0.1,0.1-0.1,0c0,0,0,0,0,0c0,0,0,0,0-0.1l0,0
			c0,0,0,0,0-0.1c0,0,0,0,0-0.1c0,0,0,0,0,0c0,0,0,0,0.1,0c0,0,0,0,0.1,0c0,0,0,0,0,0c0,0,0,0,0,0c0,0,0,0,0,0l0,0c0,0,0,0,0,0
			c0,0,0,0,0,0c0,0,0,0,0,0c0,0,0,0,0,0c0,0,0,0,0,0c0,0,0,0,0,0c0,0,0,0,0,0c0,0,0,0,0,0l0,0c0,0,0,0,0,0c0,0,0,0,0,0
			C31.1,19.6,31.1,19.6,31.2,19.6C31.1,19.6,31.1,19.6,31.2,19.6C31.2,19.6,31.2,19.6,31.2,19.6z"/>
		<path class="st2" d="M31.6,19.5C31.6,19.4,31.6,19.4,31.6,19.5C31.6,19.4,31.6,19.4,31.6,19.5C31.5,19.5,31.5,19.5,31.6,19.5
			C31.5,19.5,31.5,19.5,31.6,19.5C31.5,19.5,31.5,19.5,31.6,19.5c-0.1,0.1-0.1,0.1-0.1,0.1c0,0,0,0,0,0c0,0,0,0,0,0c0,0,0,0,0,0
			c0,0,0,0,0,0s0,0,0,0c0,0,0,0,0,0c0,0,0,0,0.1,0l0.1,0l0,0c0,0,0,0,0,0c0,0,0,0,0,0c0,0,0,0,0,0c0,0,0,0,0,0c0,0,0,0,0,0
			c0,0,0,0,0,0c0,0,0,0,0,0c0,0,0,0,0,0l-0.1,0c0,0,0,0,0,0c0,0,0,0,0,0c0,0,0,0,0,0c0,0,0,0,0,0c0,0,0,0,0,0c0,0,0,0,0,0
			c0,0,0,0,0,0c0,0,0,0,0,0L31.6,19.5C31.6,19.4,31.6,19.4,31.6,19.5C31.6,19.4,31.6,19.4,31.6,19.5L31.6,19.5L31.6,19.5
			C31.6,19.5,31.6,19.5,31.6,19.5z M31.5,19.4C31.5,19.4,31.5,19.4,31.5,19.4C31.5,19.4,31.5,19.4,31.5,19.4
			C31.5,19.4,31.5,19.4,31.5,19.4l0-0.1l0,0C31.5,19.3,31.4,19.3,31.5,19.4C31.4,19.4,31.4,19.4,31.5,19.4c-0.1-0.1-0.1,0-0.1,0
			c0,0,0,0,0,0C31.4,19.4,31.4,19.4,31.5,19.4C31.4,19.4,31.4,19.5,31.5,19.4C31.4,19.5,31.4,19.5,31.5,19.4
			C31.5,19.5,31.5,19.5,31.5,19.4C31.5,19.5,31.5,19.4,31.5,19.4z"/>
		<path class="st2" d="M31.6,19.2C31.6,19.2,31.6,19.2,31.6,19.2c0-0.1,0-0.1,0-0.1c0,0,0,0,0,0c0,0,0,0,0,0c0,0,0,0,0,0l-0.1-0.2
			l0.1,0l0.1,0.4l0,0l0,0c0,0,0,0,0,0c0,0,0,0,0,0c0,0,0,0-0.1,0c0,0,0,0,0,0c0,0,0,0,0,0C31.7,19.3,31.7,19.3,31.6,19.2L31.6,19.2
			C31.7,19.2,31.6,19.2,31.6,19.2z M31.7,19.3C31.7,19.3,31.7,19.3,31.7,19.3C31.8,19.3,31.8,19.3,31.7,19.3
			C31.8,19.3,31.8,19.3,31.7,19.3c0.1,0,0.1,0,0.1,0c0,0,0,0,0,0l0-0.1c0,0,0,0,0,0c0,0,0,0,0,0c0,0,0,0,0,0c0,0,0,0,0,0
			C31.7,19.2,31.7,19.2,31.7,19.3C31.7,19.2,31.7,19.2,31.7,19.3L31.7,19.3C31.7,19.3,31.7,19.3,31.7,19.3z"/>
		<path class="st2" d="M32.1,19.3C32.1,19.3,32.1,19.3,32.1,19.3c-0.1,0-0.1,0-0.1-0.1c0,0,0,0,0-0.1l0,0c0,0,0,0,0-0.1
			c0,0,0,0,0-0.1c0,0,0,0,0,0c0,0,0,0,0,0c0,0,0,0,0.1,0c0,0,0,0,0.1,0c0,0,0,0,0,0c0,0,0,0,0,0.1l0,0l-0.2,0.1l0,0
			C32.1,19.2,32.1,19.2,32.1,19.3C32.1,19.2,32.1,19.2,32.1,19.3C32.1,19.2,32.1,19.2,32.1,19.3C32.2,19.2,32.2,19.2,32.1,19.3
			C32.2,19.2,32.2,19.2,32.1,19.3c0.1-0.1,0.1-0.1,0.1-0.1l0,0c0,0,0,0,0,0.1C32.2,19.2,32.2,19.3,32.1,19.3
			C32.2,19.3,32.2,19.3,32.1,19.3z M32.1,19C32.1,19,32.1,19,32.1,19C32,19,32,19.1,32.1,19C32,19.1,32,19.1,32.1,19l0.1,0l0,0
			c0,0,0,0,0,0C32.2,19,32.2,19,32.1,19C32.2,19,32.1,19,32.1,19C32.1,19,32.1,19,32.1,19C32.1,19,32.1,19,32.1,19z"/>
		<path class="st2" d="M32.3,18.9C32.3,18.9,32.3,18.9,32.3,18.9C32.4,18.9,32.4,18.9,32.3,18.9C32.4,18.8,32.4,18.8,32.3,18.9
			C32.4,18.8,32.4,18.8,32.3,18.9c0.1-0.1,0.1-0.1,0.1-0.1c0,0,0,0,0,0c0,0,0,0,0,0c0,0,0,0,0,0c0,0,0,0,0,0c0,0,0,0,0,0
			c0,0,0,0,0,0s0,0,0,0c0,0,0,0,0,0c0,0,0,0,0,0l0.1,0.2l0,0l-0.1-0.2c0,0,0,0,0,0c0,0,0,0,0,0c0,0,0,0,0,0c0,0,0,0,0,0c0,0,0,0,0,0
			c0,0,0,0,0,0c0,0,0,0,0,0c0,0,0,0,0,0c0,0,0,0,0,0c0,0,0,0,0,0l0.1,0.2l0,0L32.3,18.9C32.4,18.9,32.4,18.9,32.3,18.9
			C32.4,18.9,32.4,18.9,32.3,18.9C32.4,18.9,32.4,18.9,32.3,18.9C32.4,18.9,32.4,18.9,32.3,18.9C32.4,18.9,32.4,18.9,32.3,18.9
			C32.4,18.9,32.4,18.9,32.3,18.9C32.4,18.9,32.3,18.9,32.3,18.9C32.3,18.9,32.3,18.9,32.3,18.9l0.1,0.3l0,0L32.3,18.9L32.3,18.9
			L32.3,18.9z"/>
		<path class="st2" d="M32.8,19.2C32.8,19.2,32.8,19.2,32.8,19.2L32.8,19.2C32.8,19.1,32.8,19.1,32.8,19.2
			C32.8,19.1,32.8,19.1,32.8,19.2C32.8,19.1,32.8,19.1,32.8,19.2C32.8,19.1,32.8,19.1,32.8,19.2c0-0.1,0-0.1,0-0.1c0,0,0,0,0,0l0,0
			l-0.2-0.2l0.1,0l0.1,0.2l0,0l0,0l0-0.2l0.1,0l0,0.4C32.9,19.1,32.9,19.1,32.8,19.2C32.9,19.1,32.9,19.1,32.8,19.2
			C32.9,19.1,32.8,19.2,32.8,19.2C32.8,19.2,32.8,19.2,32.8,19.2C32.8,19.2,32.8,19.2,32.8,19.2z"/>
		<path class="st2" d="M33.1,18.6L33.1,18.6L33.1,18.6L33,18.5l0,0l0,0L33.1,18.6z M33.2,18.6L33.2,18.6L33.2,18.6l-0.1-0.1l0,0l0,0
			L33.2,18.6z"/>
		<path class="st2" d="M33.4,18.7l0.2-0.1l0,0l0,0l-0.2,0l0-0.1l0.3,0l0,0L33.4,18.7L33.4,18.7z"/>
	</g>
	<ellipse transform="matrix(0.9864 -0.1642 0.1642 0.9864 -4.1342 5.2762)" class="st1" cx="29.8" cy="27.6" rx="0.5" ry="0.9"/>
	<ellipse transform="matrix(0.9864 -0.1642 0.1642 0.9864 -3.8678 6.1456)" class="st1" cx="35.2" cy="26.5" rx="0.5" ry="0.9"/>
	<g>
		<path class="st0" d="M84.4,43.1c0,0,1.2-1.6,1.2-2.2c0-0.6,0.6-1.7,0-1.7c-0.8,0-0.6,1.1-1.3,2c-0.7,0.8-0.9,1.1-0.9,1.1"/>
		<path class="st0" d="M82.5,43.7c0,0,1.2-1.6,1.2-2.2s0.6-1.7,0-1.7c-0.8,0-0.6,1.1-1.3,2c-0.7,0.8-0.9,1.1-0.9,1.1"/>
		<path class="st0" d="M85.1,42.8c0,0,1.1-1.5,1.2-2c0.1-0.6,1.3-1.4,0.3-1.7c-0.8-0.2-0.9,1.1-1.7,1.9s-0.8,1-0.8,1"/>
		<path class="st0" d="M83.2,42.9l0.5-0.5c0.3,0.1,1.3-0.4,1.5-0.9c0-0.1,0-0.3-0.1-0.5c0-0.1-0.3-0.1-0.3-0.1
			c-0.2,0.2-0.5,0.2-0.8,0.3c-0.3,0.1-0.7,0.2-1.1,0.1c-0.2,0-0.4,0-0.6,0.1c-0.2,0.2-1.6,1.2-2.4,1.4c-1.1,0.3-1,2.3-0.4,2.5
			c0.4,0.1,1.1,0,1.5,0.1c0.5,0.1,1.7-0.2,2.3-0.2c0.8,0,1.3-0.7,1.4-0.9c0.6-1.1,1.6-1.1,1.9-1.9c0.4-0.9,2.3-1.6,1.5-2.4
			c-0.6-0.6-1.8,1-2.9,1.6"/>
	</g>
	<g>
		<path class="st0" d="M81,45.4C80.1,48,78.6,56.5,76.3,57c-3.2,0.7-7.3-13.4-7.3-13.4l3.4,0c0,0,2.3,5.9,3.2,8.8
			c1.3-1.9,2.4-8.5,3.8-9.3"/>
	</g>
	<path class="st0" d="M75.2,48.3c0,0-4.3,2.6-4.8,2.1c-0.5-0.5-2.3-7.5-1.5-8.2c0.7-0.7,3-2.9,4.8,1.2
		C74.8,46.2,75.2,48.3,75.2,48.3z"/>
	<line class="st0" x1="76" y1="53.5" x2="75.7" y2="52.5"/>
	<path class="st3" d="M68.1,32.4c-0.3,1.1,0.3,10.1,0.3,10.1s-2.8,1.3-4.8,0.8c-1.7-0.5-2.2-1.2-2.2-1.2s0.3-3-0.4-6.8
		C60.4,31.4,68.1,32.4,68.1,32.4z"/>
	<path class="st0" d="M58.5,65.6c0,0,10.2,1.4,14.4-4.1c1.4-1.8-0.7-19.1-1.9-20.2c-1.2-1.1-2.9-0.7-2.9-0.7s-4.8,1.3-6.5,0.4
		c-0.4-0.2-3.4,0.3-3.6,1.7c-0.8,5.4-1.4,20-1.2,21.7C56.9,65.3,57.3,65.4,58.5,65.6z"/>
	<g>
		<path class="st0" d="M40.4,51.2c0,0-2.7-0.2-3.4-0.6s-2.4-0.7-1.9-1.2c0.6-0.6,1.8,0.3,3.2,0.4c1.5,0,1.9,0,1.9,0"/>
		<path class="st0" d="M42.6,50.1c0,0-2.7-0.2-3.4-0.6s-2.4-0.7-1.9-1.2c0.6-0.6,1.8,0.3,3.2,0.4s1.9,0,1.9,0"/>
		<path class="st0" d="M39.5,51.5c0,0-2.5-0.1-3.2-0.4c-0.7-0.3-2.7,0.1-2.2-0.9c0.4-0.8,2,0,3.4,0s1.7,0.1,1.7,0.1"/>
		<path class="st0" d="M41.2,50.1l-1,0.1c-0.2,0.2-1.6,0.7-2.2,0.5c-0.2-0.1-0.3-0.2-0.4-0.4c0-0.1,0.1-0.3,0.1-0.3
			c0.4-0.1,0.7-0.2,1.1-0.4c0.4-0.2,0.8-0.4,1.1-0.7c0.2-0.2,0.4-0.3,0.6-0.4c0.4-0.1,2.6-0.4,3.6-0.9c1.3-0.7,3.3,0.7,3,1.3
			c-0.2,0.4-0.9,0.8-1.2,1.2c-0.3,0.4-1.7,1.2-2.2,1.6c-0.7,0.6-1.8,0.5-2.2,0.5c-1.6-0.3-2.5,0.5-3.8,0.2c-1.3-0.3-3.7,0.7-3.8-0.5
			c-0.1-0.9,2.6-0.7,4.2-1.1"/>
	</g>
	<g>
		<path class="st0" d="M45.1,50.6c2.1,1.7,5.7,10.5,8,10.2c2.3-0.3,6.1-13.9,6.1-13.9l-3.5-0.4c0,0-1.8,6-3.4,9.3
			c-1.8-3.4-3.6-6.8-6.1-8"/>
	</g>
	<path class="st0" d="M59.4,51.3c0,0-5.3-0.8-5.4-1.6c-0.1-0.8,1.8-6.9,3.2-7.8c2.4-1.5,4.6-0.3,3.5,3.2
		C59.7,48.6,59.4,51.3,59.4,51.3z"/>
	<path class="st1" d="M65.6,37c0,0.3,4,4.6,5.6,5.3c0,0,0-5.7,0.4-4.4c1,3.1,6.9,3.6,6.9,3.6s-3.7-4.4-1.7-6.2c0,0,3.3,3.2,4.7,3.4
		c1.4,0.3-4.2-4.3-1-7.9s3.9-13.6-0.9-18.7s-0.7-8.6-0.7-8.6s-4.4,3.9-4.1,4.3c0.2,0.4-3-3.4-2.6-4.7c0.4-1.4-1.7,2.3-1.7,2.3
		S60.4,1.1,54.7,7s-8.1,6.6-9.4,6.4c-1.3-0.2,5.7,2.4,7.3,1c1.6-1.3-4.5,7.7-7.8,8.3c-3.3,0.6,6.3,2.1,6.7,2.1
		C51.8,24.8,65.6,37,65.6,37z"/>
	<path class="st0" d="M71.2,33.9c0,0-1.5,3.4-4.9,4.5c-3.4,1.1-6.4,1.4-10.7-0.6c-4.3-2-6.6-7.5-6.1-13.6s2-7.9,2-7.9s9-2.7,9.5-2.7
		c0.5,0,12.5,4,12.7,4c0.1,0,2.9,6.6,2.9,6.6L75.6,28c0,0-1,5.1-2.8,5.7C70.9,34.3,71.2,33.9,71.2,33.9z"/>
	<path d="M69.3,12.2c-10.1-2.1-14.6-4.2-17.6-0.5c-2,2.5-4,7.6-7.5,7.9c0,0,6.6,1.9,13.6-1c0,0-2.7,4-2.6,4.8c0,0,7.4-3.9,10.3-3.9
		c2.9,0,3.9-0.7,3.9-0.7s-1.4,4.7-0.5,7.8c1,3-0.4,7.2-1.3,8.4c0,0,3-0.8,3.8-3.2s4.2-2,5-2.4c0.8-0.4,4.5-5.2,3.5-11.7"/>
	<path class="st0" d="M77.7,23.7c0,0-4-8.5-14.8-11.7s-12.5,1.6-12.5,1.6s1.1-6,8.3-6.2c7.3-0.2,16.4,3.3,19.7,11.7
		s2.3,11.2,2.3,11.2l-1,1.9L77.7,23.7z"/>
	<g>
		<path class="st0" d="M71.2,5.1c1.7,1.2,2.7,7.8-0.5,8.8c-2.2,0.7-5.3-0.3-6.3-1.3c-1.2-1.2-2.4-5.8-1.8-6.5
			C64.4,4.4,70.2,4.5,71.2,5.1z"/>
		<path class="st0" d="M70.8,4.7c1.7,1.2,1.8,4.3-1.3,5.3c-2.2,0.7-5.3-0.3-6.3-1.3C62,7.5,62,5,64.9,4.1C67.3,3.4,69.8,4,70.8,4.7z
			"/>
		<path class="st0" d="M68.3,1.9c0.9,0.7,1.8,5.5,0.1,6c-1.2,0.4-2.3,0-2.8-0.5c-0.6-0.6-2.2-4.6-1.9-4.9
			C64.7,1.5,67.8,1.6,68.3,1.9z"/>
		<path class="st0" d="M68.2,1.7c0.9,0.7,1,2.3-0.7,2.8c-1.2,0.4-2.8-0.1-3.4-0.7c-0.6-0.6-0.6-2,0.9-2.5C66.3,1,67.6,1.3,68.2,1.7z
			"/>
		<path class="st0" d="M67.5,2.1C68.1,2.5,68.1,3.6,67,4c-0.8,0.2-1.8-0.1-2.2-0.4c-0.4-0.4-0.4-1.3,0.6-1.6
			C66.3,1.7,67.2,1.9,67.5,2.1z"/>
	</g>
	<g>
		<path class="st0" d="M60.2,3.5c1.5,1,2.2,6.5-0.4,7.4c-1.8,0.6-4.4-0.2-5.3-1c-1-1-2-4.9-1.5-5.4C54.5,2.8,59.3,2.9,60.2,3.5z"/>
		<path class="st0" d="M59.9,3.1c1.5,1,1.5,3.6-1.1,4.4c-1.8,0.6-4.4-0.2-5.3-1c-1-1-1-3.1,1.4-3.8C56.9,2,59.1,2.5,59.9,3.1z"/>
		<path class="st0" d="M57.8,0.8c0.8,0.6,1.5,4.6,0.1,5c-1,0.3-1.9,0-2.4-0.4C55,4.9,53.7,1.6,54,1.3C54.8,0.5,57.4,0.5,57.8,0.8z"
			/>
		<path class="st0" d="M57.7,0.6c0.8,0.6,0.8,1.9-0.6,2.4c-1,0.3-2.4-0.1-2.8-0.6c-0.5-0.5-0.5-1.7,0.8-2.1
			C56.1,0,57.2,0.3,57.7,0.6z"/>
		<path class="st0" d="M57.1,1c0.5,0.4,0.5,1.3-0.4,1.5c-0.6,0.2-1.5-0.1-1.8-0.4c-0.3-0.3-0.3-1.1,0.5-1.3
			C56.1,0.6,56.8,0.8,57.1,1z"/>
	</g>
	<path class="st1" d="M54.5,21.4c0,0,0.3,0,0.5-0.2c0.2-0.2,0.3-0.6,0.2-0.7c0-0.1-0.1,0.1-0.6,0c-0.5-0.1-2.2,0-2.9,1.4
		c-0.1,0.2,0.1,0.4,0.3,0.2C52.1,22,53,21.2,54.5,21.4z"/>
	<path class="st1" d="M63.7,22c0,0-0.3-0.1-0.4-0.3c-0.1-0.2-0.1-0.6-0.1-0.7c0.1-0.1,0.1,0.1,0.6,0.2c0.5,0.1,2.1,0.5,2.5,2
		c0.1,0.3-0.1,0.3-0.3,0.1C65.9,23.1,65.2,22.2,63.7,22z"/>
	<g>
		<defs>
			<path id="SVGID_00000151546019923010299310000017826721742010545557_" d="M61.5,29.8c1.4,0.8,3.4-0.8,3.4-0.8"/>
		</defs>
		
			<use xlink:href="#SVGID_00000151546019923010299310000017826721742010545557_"  style="overflow:visible;fill-rule:evenodd;clip-rule:evenodd;fill:#FFFFFF;"/>
		<clipPath id="SVGID_00000085234190175343270230000003944425472397054850_">
			<use xlink:href="#SVGID_00000151546019923010299310000017826721742010545557_"  style="overflow:visible;"/>
		</clipPath>
		
			<use xlink:href="#SVGID_00000151546019923010299310000017826721742010545557_"  style="overflow:visible;fill-rule:evenodd;clip-rule:evenodd;fill:none;stroke:#000000;stroke-width:0.4088;stroke-linecap:round;stroke-linejoin:round;stroke-miterlimit:10;"/>
	</g>
	<path class="st3" d="M58.7,24.5c0,0-0.7-0.4-1.1,0.1c-0.4,0.5,0.7,1.1,0.7,1.1"/>
	<ellipse transform="matrix(0.2 -0.9798 0.9798 0.2 19.4586 71.212)" class="st1" cx="53.3" cy="23.7" rx="1.1" ry="0.6"/>
	<ellipse transform="matrix(0.2 -0.9798 0.9798 0.2 26.3978 83.4483)" class="st1" cx="64.3" cy="25.6" rx="1.1" ry="0.6"/>
	<g>
		<polygon class="st4" points="57.7,44.7 58,45.6 58.2,46.5 57.3,46.3 56.4,46 57.1,45.4 		"/>
		<polygon class="st4" points="58.1,43.6 58.5,45.5 59,47.4 57.1,46.9 55.2,46.3 56.6,44.9 		"/>
		<polyline class="st4" points="57.7,44.8 57.4,45.7 58.2,46.5 		"/>
		<line class="st4" x1="56.4" y1="46" x2="57.4" y2="45.7"/>
		<ellipse transform="matrix(0.2013 -0.9795 0.9795 0.2013 3.7477 91.699)" cx="58.1" cy="43.6" rx="0.2" ry="0.2"/>
		<ellipse transform="matrix(0.2013 -0.9795 0.9795 0.2013 -1.3546 90.9542)" cx="55.1" cy="46.3" rx="0.2" ry="0.2"/>
		<ellipse transform="matrix(0.2013 -0.9795 0.9795 0.2013 0.6303 95.7536)" cx="59" cy="47.5" rx="0.2" ry="0.2"/>
	</g>
</g>
</svg>
