<?xml version="1.0" encoding="utf-8"?>
<!-- Generator: Adobe Illustrator 27.2.0, SVG Export Plug-In . SVG Version: 6.00 Build 0)  -->
<svg version="1.1" id="Слой_1" xmlns="http://www.w3.org/2000/svg" xmlns:xlink="http://www.w3.org/1999/xlink" x="0px" y="0px"
	 viewBox="0 0 67.3 50.5" style="enable-background:new 0 0 67.3 50.5;" xml:space="preserve">
<style type="text/css">
	.st0{fill:#FFFFFF;stroke:#000000;stroke-width:0.3316;stroke-linecap:round;stroke-linejoin:round;stroke-miterlimit:10;}
	
		.st1{fill-rule:evenodd;clip-rule:evenodd;fill:#FFFFFF;stroke:#000000;stroke-width:0.3316;stroke-linecap:round;stroke-linejoin:round;stroke-miterlimit:10;}
	.st2{fill-rule:evenodd;clip-rule:evenodd;}
	
		.st3{fill-rule:evenodd;clip-rule:evenodd;fill:none;stroke:#000000;stroke-width:0.3316;stroke-linecap:round;stroke-linejoin:round;stroke-miterlimit:10;}
	.st4{fill:#FFFFFF;}
	.st5{clip-path:url(#SVGID_00000053547578573297925760000010142691631010176133_);}
	.st6{fill:#FFFFFF;stroke:#000000;stroke-width:0.1611;stroke-linecap:round;stroke-linejoin:round;stroke-miterlimit:10;}
	
		.st7{fill-rule:evenodd;clip-rule:evenodd;fill:#FFFFFF;stroke:#000000;stroke-width:0.1611;stroke-linecap:round;stroke-linejoin:round;stroke-miterlimit:10;}
	.st8{fill-rule:evenodd;clip-rule:evenodd;stroke:#000000;stroke-width:4.912863e-02;stroke-linejoin:round;stroke-miterlimit:10;}
	.st9{fill-rule:evenodd;clip-rule:evenodd;fill:#FFFFFF;}
	
		.st10{fill-rule:evenodd;clip-rule:evenodd;fill:#FFFFFF;stroke:#000000;stroke-width:4.912863e-02;stroke-linecap:round;stroke-linejoin:round;stroke-miterlimit:10;}
	
		.st11{fill-rule:evenodd;clip-rule:evenodd;fill:none;stroke:#000000;stroke-width:0.1611;stroke-linecap:round;stroke-linejoin:round;stroke-miterlimit:10;}
	.st12{fill:none;stroke:#000000;stroke-width:4.912863e-02;stroke-linecap:round;stroke-linejoin:round;stroke-miterlimit:10;}
	.st13{fill:none;stroke:#000000;stroke-width:9.028030e-03;stroke-linecap:round;stroke-linejoin:round;stroke-miterlimit:10;}
	.st14{fill:#FFFFFF;stroke:#000000;stroke-width:0.1494;stroke-linecap:round;stroke-linejoin:round;stroke-miterlimit:10;}
</style>
<g>
	<path class="st0" d="M66.2,42.7c0,0,3.1,0.7-2.8-6.9s-7.2-7.6-7.2-7.6l-21.5,5.9L4.5,36l2.2,9.4L66.2,42.7z"/>
	<path class="st0" d="M2.2,47.3h62.7c1.1,0,2-0.9,2-2v-3.4c0-1.1-0.9-2-2-2H2.2c-1.1,0-2,0.9-2,2v3.4C0.2,46.4,1.1,47.3,2.2,47.3z"
		/>
	<path class="st0" d="M51.7,16.9c0,0,3.4-3.7,3.8-3.9c0.4-0.2,1.2-2.7,1.2-2.7s0.3-1.3,0.8,0.9s1,2.7,1,2.7s4.1,1.9,5.5,3.3
		c1.3,1.4,1.9,5.9,1.8,6.8c-0.1,0.8,1.2,1.7,1.3,2.2s-1.6,0.2-2.1-0.1c-0.6,0.9-2.9,8.3-5,9.2s-5.7,1.8-7.7,1.6
		c-0.7-0.1-2.8,1.7-2.8,0.9c0.1-1.6-1.6-4.5-1.6-4.5l0.4-13.7L51.7,16.9z"/>
	<path class="st1" d="M46.6,30.2c-0.6,0.3-4,4.2-4,4.2s-1.6-0.6-2.2-1.6c-0.5-0.9-0.4-1.4-0.4-1.4s1.3-1.1,2.6-2.9
		C43.9,26.6,46.6,30.2,46.6,30.2z"/>
	<path class="st0" d="M26.9,33.6c0,0,2.2,8.7,1.8,9.5s13-3.5,13.5-6.8c0.1-0.9,0.3-2,0.3-2s-1.8-2.2-2.1-3.4c-0.2-1.2-12.7,2-13,2.4
		C26.9,33.6,26.8,32.9,26.9,33.6z"/>
	<path class="st2" d="M43.6,31c-0.1,0.1,0.7,3.4,1.4,4.2c0,0,1.5-2.8,1.4-2.1c-0.4,1.8,2.5,3.7,2.5,3.7s-0.6-3.2,0.8-3.6
		c0,0,0.8,2.2,2.6,2.8c-0.3-1.3-0.9-3,0.5-4c3-2.1,5.7-5.8,4.7-9.6s1.5-4.2,2-4.5c-1.9-1.2-3.3,0.8-3.3,1c0,0.3-0.1-2.3,0.5-2.9
		c-1.2-0.5-2,0.5-2,0.5s0.6-3.8-2.9-4.7c1.2,2.9-0.8,1.7-1.7,1.4c-1.1-0.4-2.4-0.5-3.8-0.1c-4.5,1.4-5.9,1.1-6.5,0.7
		c-0.6-0.4,2.2,2.7,3.4,2.5s-5.3,0.8-5.4,3.7c1.6-0.4,1.8,1.1,2,1.1C40.1,21.1,43.6,31,43.6,31z"/>
	<path class="st0" d="M32.1,28.1c0.9-0.3,1.1-1.3,1.5-2c0.4-0.7-0.6-1-0.6-1s-1.2,0.6-1.3,1.3"/>
	<path class="st0" d="M47.3,30.9c0,0-1.7,1.3-3.7,0.9s-3.6-1.1-5.2-3.2c-1.6-2.2-1.2-5.6,0.7-8.5s3.2-3.4,3.2-3.4s5.3,1.1,5.5,1.3
		s5.2,5.4,5.3,5.5c0.1,0-0.3,4.1-0.3,4.1l-1.6,1.6c0,0-1.9,2.3-3,2.1C47,31,47.3,30.9,47.3,30.9z"/>
	<path d="M53.5,16.4c-4.5-3.8-7.8-2.8-10.4-1.9c-2.5,0.9-3.4,2.2-5.4,2c0,0,2.8,2.8,7.1,3.2c0,0-1.3,0.7-2.2,1.2
		c0,0,4.4,0.5,5.8,1.3c1.5,0.8,2.2,0.7,2.2,0.7s-2,2-2.4,3.8c-0.3,1.8-2.2,3.5-3,3.9c0,0,1.7,0.4,2.8-0.6c1.1-1,2.6,0.2,3.2,0.2
		s3.7-0.8,3.8-1.2"/>
	<path class="st1" d="M43.6,22.8c0,0-0.2-0.4-0.6-0.2c-0.3,0.2,0,0.8,0,0.8"/>
	<path class="st1" d="M50.5,35.6c-0.6-0.8-1.2-2-0.1-3.4"/>
	<path class="st3" d="M49.5,11.4c0,0,1.4,1.8,0.2,3.4"/>
	<path class="st0" d="M61.3,21.4c-0.3-0.2-6.3,1.7-7,10.3"/>
	<g>
		<polyline class="st0" points="32.1,27.7 34.1,37.6 31.4,37 29.5,26.9 		"/>
		<g>
			<rect x="27.9" y="20.4" class="st0" width="4.1" height="7.4"/>
			<rect x="27.9" y="21.2" width="4.1" height="5.7"/>
			<rect x="29.5" y="20.7" width="1.1" height="0.2"/>
			<circle cx="30.9" cy="20.8" r="0.1"/>
			<path class="st4" d="M30.9,24.4h-1.8c-0.3,0-0.6-0.2-0.6-0.6v0c0-0.3,0.2-0.6,0.6-0.6h1.8c0.3,0,0.6,0.2,0.6,0.6v0
				C31.5,24.2,31.2,24.4,30.9,24.4z"/>
		</g>
		<path class="st0" d="M27.2,23.4c0,0-0.1,1.2,0.2,1.3s0.9-0.5,0.6-1.2C27.8,22.8,27.3,23.1,27.2,23.4z"/>
		<path class="st0" d="M27.1,24.9c0,0-0.2,1.1,0.2,1.2c0.4,0.1,0.9-0.5,0.6-1.1C27.7,24.4,27.3,24.6,27.1,24.9z"/>
		<path class="st0" d="M27.1,26.1c0,0-0.1,1.1,0.3,1.1c0.5,0.1,1-0.1,0.7-0.8C27.8,25.8,27.3,25.8,27.1,26.1z"/>
	</g>
	<circle cx="29.1" cy="23.9" r="0.5"/>
	<g>
		<defs>
			<path id="SVGID_1_" d="M43.6,26.3c0.4,0.5,0.8,0.7,0.8,0.7"/>
		</defs>
		<use xlink:href="#SVGID_1_"  style="overflow:visible;fill-rule:evenodd;clip-rule:evenodd;fill:#FFFFFF;"/>
		<clipPath id="SVGID_00000000916214490763211930000011279767184158326407_">
			<use xlink:href="#SVGID_1_"  style="overflow:visible;"/>
		</clipPath>
		
			<use xlink:href="#SVGID_1_"  style="overflow:visible;fill-rule:evenodd;clip-rule:evenodd;fill:none;stroke:#000000;stroke-width:0.3316;stroke-linecap:round;stroke-linejoin:round;stroke-miterlimit:10;"/>
	</g>
	<path class="st2" d="M42.3,20.2c0,0,0.1,0.1,0.3,0.1c0.1,0,0.3-0.2,0.3-0.3c0-0.1-0.1,0-0.3-0.2c-0.2-0.2-1-0.7-1.8-0.3
		c-0.1,0.1-0.1,0.2,0.1,0.2C41,19.8,41.6,19.7,42.3,20.2z"/>
	<ellipse transform="matrix(0.5809 -0.814 0.814 0.5809 -0.1227 42.9154)" class="st2" cx="41.6" cy="21.6" rx="0.6" ry="0.3"/>
	<path class="st1" d="M41.6,20.9c0,0,0.7,0.7,1.2,0.9"/>
	<path class="st2" d="M46.8,23c0,0-0.1-0.1-0.2-0.2c-0.1-0.1,0-0.4,0-0.4c0,0,0,0.1,0.3,0.1c0.3,0.1,1.2,0.4,1.3,1.3
		c0,0.2-0.1,0.2-0.2,0.1C47.9,23.8,47.7,23.2,46.8,23z"/>
	<ellipse transform="matrix(0.7047 -0.7095 0.7095 0.7047 -3.9842 39.7647)" class="st2" cx="45.8" cy="24.7" rx="0.6" ry="0.3"/>
	<path class="st1" d="M45.8,24c0,0,0.5,0.8,1.1,1.1"/>
	<path class="st0" d="M3.5,32.4c1.6-2,5.6-2.5,10.3-1.2c8.6,0.1,20-2.8,22.5-1.8c3.2,0.7,7.5,7.8,8.5,8.4c1,0.6,3.1,4.2,3.1,7
		c0,2.8,0.1,5.4,0.1,5.4s-12.5-0.8-14-0.2c-1.5,0.6-7.3,0-10.1,0s-13.6-0.7-15.6-0.6s-6,0-6,0S-1.9,39.2,3.5,32.4z"/>
	<g>
		<defs>
			<path id="SVGID_00000127031900068460580720000005020125381235184291_" d="M3.5,32.4c1.6-2,5.6-2.5,10.3-1.2
				c8.6,0.1,20-2.8,22.5-1.8c3.2,0.7,7.5,7.8,8.5,8.4c1,0.6,3.1,4.2,3.1,7c0,2.8,0.1,5.4,0.1,5.4s-12.5-0.8-14-0.2
				c-1.5,0.6-7.3,0-10.1,0s-13.6-0.7-15.6-0.6s-6,0-6,0S-1.9,39.2,3.5,32.4z"/>
		</defs>
		<clipPath id="SVGID_00000153663888424590037110000016667251927839124668_">
			<use xlink:href="#SVGID_00000127031900068460580720000005020125381235184291_"  style="overflow:visible;"/>
		</clipPath>
		<g style="clip-path:url(#SVGID_00000153663888424590037110000016667251927839124668_);">
			<g>
				<g>
					<path d="M29,48.5C28.9,48.5,28.9,48.5,29,48.5c-0.1-0.1-0.1-0.1-0.1-0.2l1.1-4.4c0,0,0-0.1,0.1-0.1c0,0,0.1,0,0.1,0l3.3,3.2
						c0,0,0,0.1,0,0.1c0,0,0,0.1-0.1,0.1L29,48.5C29,48.5,29,48.5,29,48.5z M30.1,44.2l-1,4l3.9-1.1L30.1,44.2z"/>
				</g>
				<g>
					<path d="M27,50.7C26.9,50.7,26.9,50.7,27,50.7c-0.1-0.1-0.1-0.1-0.1-0.2l2.3-9.3c0,0,0-0.1,0.1-0.1c0,0,0.1,0,0.1,0l6.9,6.7
						c0,0,0,0.1,0,0.1c0,0,0,0.1-0.1,0.1L27,50.7C27,50.7,27,50.7,27,50.7z M29.4,41.5l-2.2,8.9l8.8-2.5L29.4,41.5z"/>
				</g>
				<g>
					<path d="M33.3,47.3C33.3,47.3,33.3,47.3,33.3,47.3l-2.6-0.6c0,0-0.1,0-0.1-0.1L30,44.3c0-0.1,0-0.1,0.1-0.2
						c0.1,0,0.1,0,0.2,0.1l0.6,2.2l2.5,0.6c0.1,0,0.1,0.1,0.1,0.1C33.5,47.2,33.4,47.3,33.3,47.3z"/>
				</g>
				<g>
					<path d="M29.1,48.5c0,0-0.1,0-0.1,0c-0.1-0.1-0.1-0.2,0-0.2l1.6-1.8c0.1-0.1,0.2-0.1,0.2,0c0.1,0.1,0.1,0.2,0,0.2l-1.6,1.8
						C29.2,48.5,29.2,48.5,29.1,48.5z"/>
				</g>
				<g>
					<circle cx="29.2" cy="41.1" r="0.6"/>
				</g>
				<g>
					<circle cx="26.8" cy="50.8" r="0.6"/>
				</g>
				<g>
					<circle cx="36.4" cy="48" r="0.6"/>
				</g>
			</g>
			<g>
				<g>
					<path d="M38.5,36.6C38.5,36.6,38.5,36.6,38.5,36.6l-4.2-1.9c0,0-0.1-0.1-0.1-0.1c0,0,0-0.1,0.1-0.1l3.7-2.6c0,0,0.1,0,0.1,0
						c0,0,0.1,0.1,0.1,0.1l0.4,4.5C38.6,36.5,38.6,36.5,38.5,36.6C38.5,36.6,38.5,36.6,38.5,36.6z M34.6,34.5l3.7,1.7L38,32.2
						L34.6,34.5z"/>
				</g>
				<g>
					<path d="M40.2,39C40.2,39,40.2,39,40.2,39L31.4,35c0,0-0.1-0.1-0.1-0.1c0,0,0-0.1,0.1-0.1l7.9-5.5c0,0,0.1,0,0.1,0
						c0,0,0.1,0.1,0.1,0.1l0.8,9.6C40.3,39,40.3,39,40.2,39C40.2,39,40.2,39,40.2,39z M31.7,34.8l8.3,3.9l-0.8-9.2L31.7,34.8z"/>
				</g>
				<g>
					<path d="M38.5,36.6c0,0-0.1,0-0.1-0.1l-1.6-2.2c0,0,0-0.1,0-0.1l1.1-2.1c0-0.1,0.1-0.1,0.2-0.1c0.1,0,0.1,0.1,0.1,0.2l-1,2.1
						l1.5,2.1C38.7,36.4,38.6,36.5,38.5,36.6C38.6,36.6,38.5,36.6,38.5,36.6z"/>
				</g>
				<g>
					<path d="M34.5,34.7c-0.1,0-0.1,0-0.1-0.1c0-0.1,0-0.1,0.1-0.1l2.4-0.3c0.1,0,0.1,0,0.1,0.1c0,0.1,0,0.1-0.1,0.1L34.5,34.7
						C34.6,34.7,34.5,34.7,34.5,34.7z"/>
				</g>
				<g>
					<circle cx="39.4" cy="29.2" r="0.6"/>
				</g>
				<g>
					<circle cx="31.2" cy="34.9" r="0.6"/>
				</g>
				<g>
					<circle cx="40.3" cy="39" r="0.6"/>
				</g>
			</g>
			<g>
				<g>
					<path d="M6.4,49.7C6.4,49.7,6.3,49.7,6.4,49.7l-4.2-1.9c0,0-0.1-0.1-0.1-0.1c0,0,0-0.1,0.1-0.1l3.7-2.6c0,0,0.1,0,0.1,0
						c0,0,0.1,0.1,0.1,0.1l0.4,4.5C6.5,49.6,6.5,49.6,6.4,49.7C6.4,49.7,6.4,49.7,6.4,49.7z M2.5,47.6l3.7,1.7l-0.4-4.1L2.5,47.6z"
						/>
				</g>
				<g>
					<path d="M8.1,52.2C8.1,52.2,8,52.1,8.1,52.2l-8.8-4.1c0,0-0.1-0.1-0.1-0.1c0,0,0-0.1,0.1-0.1l7.9-5.5c0,0,0.1,0,0.1,0
						c0,0,0.1,0.1,0.1,0.1L8.2,52C8.2,52.1,8.2,52.1,8.1,52.2C8.1,52.1,8.1,52.2,8.1,52.2z M-0.4,47.9l8.3,3.9l-0.8-9.2L-0.4,47.9z"
						/>
				</g>
				<g>
					<path d="M6.4,49.7c0,0-0.1,0-0.1-0.1l-1.6-2.2c0,0,0-0.1,0-0.1l1.1-2.1c0-0.1,0.1-0.1,0.2-0.1C6,45.2,6,45.3,6,45.3l-1,2.1
						l1.5,2.1C6.5,49.6,6.5,49.6,6.4,49.7C6.5,49.7,6.4,49.7,6.4,49.7z"/>
				</g>
				<g>
					<path d="M2.4,47.8c-0.1,0-0.1,0-0.1-0.1c0-0.1,0-0.1,0.1-0.1l2.4-0.3c0.1,0,0.1,0,0.1,0.1c0,0.1,0,0.1-0.1,0.1L2.4,47.8
						C2.4,47.8,2.4,47.8,2.4,47.8z"/>
				</g>
				<g>
					<circle cx="7.2" cy="42.3" r="0.6"/>
				</g>
				<g>
					<circle cx="-0.9" cy="48" r="0.6"/>
				</g>
				<g>
					<circle cx="8.2" cy="52.2" r="0.6"/>
				</g>
			</g>
			<g>
				<g>
					<path d="M18,39.4C17.9,39.4,17.9,39.4,18,39.4l-4.1-2c0,0-0.1-0.1-0.1-0.1c0,0,0-0.1,0.1-0.1l3.8-2.5c0,0,0.1,0,0.1,0
						c0,0,0.1,0.1,0.1,0.1l0.3,4.5C18.1,39.3,18.1,39.4,18,39.4C18,39.4,18,39.4,18,39.4z M14.1,37.3l3.7,1.8L17.6,35L14.1,37.3z"/>
				</g>
				<g>
					<path d="M19.6,41.9C19.6,41.9,19.6,41.9,19.6,41.9l-8.7-4.3c0,0-0.1-0.1-0.1-0.1c0,0,0-0.1,0.1-0.1l8-5.4c0,0,0.1,0,0.1,0
						c0,0,0.1,0.1,0.1,0.1l0.6,9.6C19.7,41.8,19.7,41.9,19.6,41.9C19.7,41.9,19.6,41.9,19.6,41.9z M11.2,37.5l8.3,4.1l-0.6-9.2
						L11.2,37.5z"/>
				</g>
				<g>
					<path d="M18,39.4c0,0-0.1,0-0.1-0.1l-1.5-2.2c0,0,0-0.1,0-0.1l1.1-2.1c0-0.1,0.1-0.1,0.2-0.1c0.1,0,0.1,0.1,0.1,0.2l-1.1,2.1
						l1.5,2.1C18.1,39.3,18.1,39.4,18,39.4C18,39.4,18,39.4,18,39.4z"/>
				</g>
				<g>
					<path d="M14.1,37.5c-0.1,0-0.1,0-0.1-0.1c0-0.1,0-0.1,0.1-0.1l2.4-0.3c0.1,0,0.1,0,0.1,0.1c0,0.1,0,0.1-0.1,0.1L14.1,37.5
						C14.1,37.5,14.1,37.5,14.1,37.5z"/>
				</g>
				<g>
					<circle cx="19" cy="32.1" r="0.6"/>
				</g>
				<g>
					<circle cx="10.7" cy="37.6" r="0.6"/>
				</g>
				<g>
					<circle cx="19.7" cy="41.9" r="0.6"/>
				</g>
			</g>
		</g>
	</g>
	<path class="st0" d="M33.6,26.1c0.4-0.7,0.7-1.4,0.2-2.1c-0.5-0.7-1.3-0.2-1.3-0.2s-0.6,0.5-0.8,1c-0.2,0.4,0.2,0.9,0.6,0.7
		c0.4-0.2,0.8-0.4,0.8-0.4"/>
</g>
<g>
	<path d="M25.3,10.2c1-1.2,1.2-2.7,0.7-4.4c-0.5-1.7,0-3.7,0-3.7s-0.8,0.2-1.1,1c-0.1,0.1-0.4-0.4-0.5-1c0-0.5-0.5,0.8-0.5,0.8
		s-3.4-2-6.6,0C15.5,4.6,14,5,13.6,5c-0.4,0,0.9,0.8,1.7,0.5c-0.2,0.8-0.7,2.3-1.8,2.5c-0.7,0.2,0.4,0.4,1.3,0.5
		c-0.6,0.7-1.9,0.8-1.6,0.9c0.4,0.2,1.9,0.1,1.9,0.1c0.1,0.9-1.7,1.2-1.7,1.2s1.6,1.1,2.5,0.5c0.4-0.2-0.8,1.2-0.8,1.2
		c0.6,0.2,2.5-0.1,2.5-0.2c0,0,1.4,0,2.8-0.1c0.1,0.1,0.2,0.1,0.2,0.1c0,0.1,1.4,1.4,1.9,1.6c0,0-0.1-1.8,0.1-1.4
		c0.4,1,2.3,1.1,2.3,1.1s-1.3-1.4-0.6-2c0,0,1.1,1,1.6,1.1S24.3,11.4,25.3,10.2z"/>
	<path class="st6" d="M16,14.4c0.4-0.5,0.5-0.3,0.9-0.7c0,0-1.8-0.7-2.9-1.9c-0.9-0.9-1.2-2.4-1.3-2.6c-0.1-0.1,0-0.7,0-0.8
		c0-0.2,0-0.5,0-0.7c0-0.1,0-0.2-0.1-0.3c-0.1-0.2-0.1-0.3-0.2-0.5c0-0.2-0.1-0.3,0-0.5c0,0-0.1-0.1-0.1-0.1c-0.1,0-0.2,0.1-0.2,0.1
		C12,6.7,12,7,12.1,7.2c0,0.1,0.1,0.2,0,0.2c0,0.2-0.3,0.2-0.4,0.1c-0.2-0.2-0.4-0.4-0.5-0.6c-0.2-0.3-0.3-0.5-0.5-0.8
		c-0.1-0.1-0.2-0.1-0.2,0c-0.1,0.1-0.1,0.1,0,0.2c0.2,0.3,0.4,0.7,0.5,1c0.1,0.1,0,0.2-0.1,0.3c-0.1-0.1-0.1-0.1-0.2-0.2
		C10.4,7.2,10.2,7,10,6.8C9.9,6.7,9.9,6.7,9.8,6.6c-0.1-0.1-0.2-0.1-0.3,0c0,0.1,0,0.1,0,0.2C9.7,7,9.9,7.3,10.1,7.5
		c0.1,0.1,0.2,0.2,0.3,0.3c0,0,0,0.1,0,0.1c0,0-0.1,0-0.1,0C10,7.7,9.6,7.5,9.3,7.4c-0.1,0-0.2,0-0.2,0.1c0,0.1,0,0.1,0.1,0.2
		c0.3,0.2,0.7,0.4,1,0.5c0.1,0,0.1,0.1,0.2,0.1c0,0,0.1,0.1,0,0.1c0,0,0,0.1-0.1,0.1C10,8.5,9.7,8.6,9.4,8.5c-0.1,0-0.1,0-0.2,0
		c0,0-0.1,0.1-0.1,0.1c0,0,0.1,0.1,0.1,0.1c0.3,0,0.5,0.1,0.8,0.1c0.4,0,0.7,0.1,1,0.3c0.1,0.1,0.3,0.1,0.4,0.2
		c0.2,0.1,0.4,0.2,0.5,0.4c0.1,0.1,0.7,1.9,1.5,2.7C14.3,13.5,15.8,14.2,16,14.4z"/>
	<path class="st6" d="M15.1,14.9c0,0,1-2,1.2-1.9c0.2,0.1,2.3,1.1,2.2,1.4c-0.1,0.3-0.1,1.9-1.2,1.4C16.2,15.3,15.1,14.9,15.1,14.9z
		"/>
	<path class="st6" d="M23.1,21.1c-0.2-2.4-0.8-6.5-1-6.8c-0.4-0.4-1.1-0.4-1.1-0.4s-1.2,0.8-2.3,0.1c-0.1-0.1-0.7,0.2-0.8,0.7
		c-0.6,1.7-0.7,6.4-0.5,6.6C18,21.2,22,21.2,23.1,21.1z"/>
	<path class="st6" d="M23.9,21.1c-0.2-1.4-0.7-4.3-0.7-4.8c-0.6,0.2-0.6-0.1-1.2,0.1c0,0.1,0.7,2.9,1,4.6
		C23.3,21.1,23.6,21.1,23.9,21.1z"/>
	<path class="st6" d="M23.6,17c0,0-1.6,0.6-1.8,0.4c-0.2-0.2-0.5-2.1-0.3-2.8c0.2-0.6,1.4-0.8,1.7,0.3S23.6,17,23.6,17z"/>
	<path class="st7" d="M21.1,11.1c-0.1,0.3-0.2,3.3-0.2,3.3s-0.9,0.4-1.6,0.1c-0.5-0.2-0.7-0.5-0.7-0.5s0.2-1,0.1-2.2
		C18.6,10.6,21.1,11.1,21.1,11.1z"/>
	<path class="st6" d="M22.5,11.4c0,0-0.5,1.2-1.6,1.7c-1.1,0.4-2.3,0.4-3.6-0.4c-1.4-0.8-1.8-1.9-1.8-3.9s1.7-3.9,1.7-3.9
		s1.3,0,1.5,0c0.2,0,4.1,1.1,4.2,1.1c0,0,1,2.1,1,2.1l0.1,1.5c0,0,0.2,1.7-1,1.8C22.4,11.4,22.5,11.4,22.5,11.4z"/>
	<path class="st7" d="M19.1,9.3c0,0-0.2-0.2-0.4,0c-0.1,0.2,0.2,0.4,0.2,0.4"/>
	<path class="st2" d="M18.2,7.7c0,0,0.1,0,0.2,0c0.1,0,0.1-0.2,0.1-0.2c0,0,0,0-0.2,0c-0.2,0-0.7-0.1-1,0.4c0,0.1,0,0.1,0.1,0.1
		C17.4,7.8,17.7,7.6,18.2,7.7z"/>
	<path class="st2" d="M21.1,8.4c0,0-0.1,0-0.1-0.1c0-0.1,0-0.2,0-0.2c0,0,0,0,0.2,0.1c0.2,0,0.7,0.2,0.8,0.7c0,0.1,0,0.1-0.1,0
		C21.8,8.7,21.6,8.4,21.1,8.4z"/>
	<path d="M22.4,3.7c-3.1-1.3-4.6-1-5.7,0.6c-0.9,1.2-0.7,3-1.8,3.6c0,0,2.4,0.1,4.6-1.3c0,0-0.8,1.4-0.8,1.6c0,0,1.2-1.3,2.2-1.4
		c1,0,1.8-0.4,1.8-0.4S22,8,22.3,9c0.4,1-0.3,2.3-0.6,2.7c0,0,1.3-0.4,1.6-1.2c0.2-0.8,1.3-1,1.5-1.1"/>
	<g>
		<path class="st8" d="M20.8,11c0-0.2-0.3-0.4-0.9-0.3c-0.9,0.2-0.8,0-1,0.2c-0.2,0.3,0.1,1.5,0.8,1.5C20.4,12.3,20.8,11.3,20.8,11z
			"/>
		<path class="st9" d="M20.5,10.6c0,0,0.1,0.2-0.1,0.3s-0.2,0.1-0.2,0c0-0.1,0-0.3,0-0.3l-0.1,0c0,0,0.1,0.2,0,0.3s-0.1,0-0.2,0
			c-0.1,0-0.1-0.2-0.1-0.2l-0.1,0c0,0,0.1,0.2,0,0.2c-0.1,0-0.3,0-0.3,0c0-0.1,0-0.2,0-0.2s0,0.2-0.1,0.2s-0.2,0-0.2,0
			c0-0.1,0-0.2,0-0.2c0,0,0.3,0,0.6,0C20.1,10.6,20.5,10.6,20.5,10.6z"/>
		<path class="st10" d="M20.7,11.5c0,0-0.4,0-0.8,0.1c-0.3,0.1-0.5,0.3-0.6,0.5c0,0.1,0,0.1,0,0.1s0.3,0.2,0.7,0.1
			C20.4,12.2,20.6,11.7,20.7,11.5z"/>
		<path class="st7" d="M20,12c0,0,0.2-0.5,0.7-0.4"/>
		<path class="st11" d="M20.8,11c0-0.2-0.3-0.4-0.9-0.3c-0.9,0.2-0.8,0-1,0.2c-0.2,0.3,0.1,1.5,0.8,1.5C20.4,12.3,20.8,11.3,20.8,11
			z"/>
	</g>
	<line class="st12" x1="20.8" y1="18.1" x2="19.9" y2="15.9"/>
	<line class="st12" x1="18.3" y1="17.9" x2="20.7" y2="18.2"/>
	<line class="st12" x1="19.8" y1="15.9" x2="18.3" y2="17.8"/>
	<g>
		<path class="st12" d="M19.7,16.6"/>
		<path class="st12" d="M20.2,17.7"/>
		<polyline class="st12" points="20.2,17.7 19.6,17.3 19,17.6 		"/>
		<line class="st12" x1="19.7" y1="16.6" x2="19" y2="17.6"/>
	</g>
	<path class="st13" d="M19.7,16.6"/>
	<polygon class="st12" points="20.2,17.7 19,17.6 19.7,16.6 	"/>
	<circle cx="20.8" cy="18.2" r="0.1"/>
	<circle cx="19.8" cy="15.8" r="0.1"/>
	<circle cx="18.2" cy="17.9" r="0.1"/>
	<line class="st12" x1="19.7" y1="16.6" x2="19.6" y2="17.3"/>
	<g>
		<path class="st14" d="M24.3,7.8c-0.4-1.6-0.3-2.1-3.9-3.5s-4.5,0.9-4.5,0.9s0.7-2.7,3.2-2.6s4.8,0.4,5.7,3.4s-0.5,4.2-0.5,4.2
			S24.5,8.5,24.3,7.8z"/>
		<g>
			<path class="st14" d="M23.4,2.2c0.6,0.5,0.7,2.8-0.4,3c-0.8,0.2-1.8-0.2-2.1-0.6c-0.4-0.4-0.7-2.1-0.4-2.3
				C21.1,1.7,23.1,1.9,23.4,2.2z"/>
			<path class="st14" d="M23.3,2c0.6,0.5,0.5,1.5-0.6,1.8c-0.8,0.2-1.8-0.2-2.1-0.6c-0.4-0.4-0.3-1.3,0.7-1.5
				C22.1,1.5,23,1.7,23.3,2z"/>
			<path class="st14" d="M22.5,1c0.3,0.3,0.5,1.9-0.1,2.1c-0.4,0.1-0.8-0.1-1-0.2c-0.2-0.2-0.6-1.6-0.5-1.7
				C21.3,0.8,22.4,0.9,22.5,1z"/>
			<path class="st14" d="M22.5,0.9c0.3,0.3,0.3,0.8-0.3,1c-0.4,0.1-1-0.1-1.1-0.3c-0.2-0.2-0.2-0.7,0.4-0.8
				C21.8,0.6,22.3,0.8,22.5,0.9z"/>
			<path class="st14" d="M22.2,1c0.2,0.2,0.2,0.5-0.2,0.6c-0.3,0.1-0.6-0.1-0.7-0.2c-0.1-0.2-0.1-0.5,0.2-0.5
				C21.8,0.9,22.1,0.9,22.2,1z"/>
		</g>
		<g>
			<path class="st14" d="M19.7,1.3c0.5,0.4,0.6,2.3-0.3,2.5c-0.6,0.1-1.5-0.2-1.8-0.5C17.2,3,17,1.6,17.2,1.4
				C17.7,0.9,19.4,1.1,19.7,1.3z"/>
			<path class="st14" d="M19.6,1.2c0.5,0.4,0.4,1.3-0.5,1.5c-0.6,0.1-1.5-0.2-1.8-0.5C17,1.8,17,1.1,17.9,0.9
				C18.6,0.7,19.3,1,19.6,1.2z"/>
			<path class="st14" d="M18.9,0.3c0.3,0.2,0.4,1.6-0.1,1.7c-0.3,0.1-0.7,0-0.8-0.2c-0.2-0.2-0.5-1.4-0.4-1.5
				C17.9,0.1,18.8,0.2,18.9,0.3z"/>
			<path class="st14" d="M18.9,0.3c0.3,0.2,0.2,0.7-0.3,0.8c-0.3,0.1-0.8-0.1-1-0.3c-0.2-0.2-0.1-0.6,0.3-0.7
				C18.4,0,18.7,0.1,18.9,0.3z"/>
			<path class="st14" d="M18.7,0.4c0.2,0.1,0.1,0.4-0.2,0.5c-0.2,0.1-0.5-0.1-0.6-0.2c-0.1-0.1-0.1-0.4,0.2-0.4
				C18.3,0.2,18.6,0.3,18.7,0.4z"/>
		</g>
	</g>
	<path class="st2" d="M20.5,9.5c0,0.2,0.3,0,0.5,0.1c0.2,0.2,0.3,0.3,0.4,0.3c0.2,0,0-0.3-0.2-0.5C20.9,9.2,20.5,9.4,20.5,9.5z"/>
	<path class="st2" d="M18.1,8.8c-0.1,0.1-0.2-0.1-0.5-0.2c-0.3-0.1-0.3,0.1-0.5,0c-0.1-0.1,0.2-0.4,0.5-0.3
		C18,8.4,18.2,8.7,18.1,8.8z"/>
</g>
</svg>
