<?xml version="1.0" encoding="utf-8"?>
<!-- Generator: Adobe Illustrator 27.2.0, SVG Export Plug-In . SVG Version: 6.00 Build 0)  -->
<svg version="1.1" id="Слой_1" xmlns="http://www.w3.org/2000/svg" xmlns:xlink="http://www.w3.org/1999/xlink" x="0px" y="0px"
	 viewBox="0 0 27.7 49.8" style="enable-background:new 0 0 27.7 49.8;" xml:space="preserve">
<style type="text/css">
	.st0{fill:#FFFFFF;stroke:#000000;stroke-width:0.1503;stroke-linecap:round;stroke-linejoin:round;stroke-miterlimit:10;}
	
		.st1{fill-rule:evenodd;clip-rule:evenodd;fill:#FFFFFF;stroke:#000000;stroke-width:0.1503;stroke-linecap:round;stroke-linejoin:round;stroke-miterlimit:10;}
	.st2{fill-rule:evenodd;clip-rule:evenodd;}
</style>
<g>
	<path class="st0" d="M17.7,39.4c0,0-0.2-2.5-0.6-4.3c-0.1-0.4,0.4-4.8,1.9-4.8c1.4,0,4.9,4.9,3.6,5.9
		C21.5,37.1,17.7,39.4,17.7,39.4z"/>
	<path class="st1" d="M11.8,23.5c0.3,0.7,0.4,7.1,0.4,7.1s2,0.8,3.4,0.3c1.1-0.4,1.6,0.6,1.6,0.6s0.1-3.9,0.3-6.6
		C17.7,22.1,11.8,23.5,11.8,23.5z"/>
	<path class="st0" d="M20.9,48.7c0,0-8.5,0.2-12.4,0.2c-0.3,0-0.2-2.8-0.2-7.2c0-4.3-1-10.6,0.9-11.5c0.7-0.4,2.9-0.6,2.9-0.6
		s0.7,1.1,3,1.2c2.4,0.1,2.2-0.8,2.2-0.8c0.8,0.1,1.2,0.2,1.3,0.4c1.1,2.4,2.1,5.8,2,11.1C20.6,42.9,21.2,46.1,20.9,48.7z"/>
	<g>
		<path class="st2" d="M12.8,26.2c0,0.2-2.6,3.4-3.7,3.9c0,0-0.2-4-0.4-3.1c-0.5,2.2-4.7,2.8-4.7,2.8s2.4-3.2,0.9-4.4
			c0,0-2.2,2.3-3.1,2.6c-1,0.3,2.7-3.2,0.4-5.5S-1.1,13.1,2,9.3s0.1-6.1,0.1-6.1s3.2,2.5,3.1,2.8c-0.1,0.3,2-2.5,1.6-3.4
			s1.3,1.5,1.3,1.5S15,0.8,19.2,4.8s5.9,4.3,6.8,4.1c0.9-0.2-3.9,1.9-5,1c-1.1-0.9,3.9,7.1,6.2,7.4c2.3,0.3-4.9,1.7-5.2,1.6
			C21.8,18.9,12.8,26.2,12.8,26.2z"/>
		<path class="st0" d="M8.7,24.2c0,0,1.2,2.3,3.6,2.9s4.5,0.7,7.5-0.9c2.9-1.5,4.3-5.5,3.7-9.8c-0.6-4.2-1.7-5.4-1.7-5.4
			S15.4,9.6,15,9.6c-0.4,0-8.6,3.3-8.7,3.3c-0.1,0-1.8,4.7-1.8,4.7l0.9,2.7c0,0,0.9,3.5,2.2,3.8S8.7,24.2,8.7,24.2z"/>
		<path d="M9.2,9c7-1.9,9.6-3.4,11.9-1s3.4,5.1,5.9,5.2c0,0-4.9,1.7-9.9-0.1c0,0,0.9,2.3,0.8,2.8c0,0-3.8-2.1-5.9-2
			s-2.8-0.4-2.8-0.4s1.2,3.3,0.6,5.4c-0.5,2.2,0.6,5.1,1.2,5.9c0,0-2.1-0.5-2.8-2.1s-3-1.2-3.6-1.5s-3.7-2.8-3.6-3.4"/>
		<ellipse transform="matrix(0.9666 -0.2564 0.2564 0.9666 -3.9899 3.6839)" class="st2" cx="12.1" cy="17.1" rx="0.4" ry="0.8"/>
		<ellipse transform="matrix(0.9666 -0.2564 0.2564 0.9666 -3.3081 5.5332)" class="st2" cx="19.6" cy="15.5" rx="0.4" ry="0.8"/>
		<path class="st1" d="M17.1,17.2c0,0,0.5-0.3,0.8,0c0.3,0.4-0.4,0.8-0.4,0.8"/>
		<path class="st2" d="M12.6,15.3c0,0,0.2,0.1,0.3,0c0.2-0.1,0.3-0.3,0.3-0.4c0-0.1-0.1,0-0.4-0.1c-0.3-0.1-1.4-0.5-2.2,0.3
			c-0.1,0.1,0,0.2,0.1,0.2C10.9,15.1,11.7,14.8,12.6,15.3z"/>
		<path class="st2" d="M19.4,14.6c0,0-0.2,0.1-0.3,0c-0.2,0-0.4-0.3-0.4-0.3c0-0.1,0.1,0,0.4-0.2c0.3-0.2,1.3-0.8,2.3-0.1
			c0.2,0.1,0.1,0.2-0.1,0.2C21,14.2,20.2,14,19.4,14.6z"/>
		<g>
			<defs>
				<path id="SVGID_1_" d="M18,21.5c0.8-0.3,1.3-0.5,1.3-0.5"/>
			</defs>
			<use xlink:href="#SVGID_1_"  style="overflow:visible;fill-rule:evenodd;clip-rule:evenodd;fill:#FFFFFF;"/>
			<clipPath id="SVGID_00000129185765342555516250000009407557761426807472_">
				<use xlink:href="#SVGID_1_"  style="overflow:visible;"/>
			</clipPath>
			
				<use xlink:href="#SVGID_1_"  style="overflow:visible;fill-rule:evenodd;clip-rule:evenodd;fill:none;stroke:#000000;stroke-width:0.1503;stroke-linecap:round;stroke-linejoin:round;stroke-miterlimit:10;"/>
		</g>
		<path class="st0" d="M3.9,17.6c0.9-3.2,2.4-6.3,9.8-8.9s8.8,0.6,8.8,0.6s-1-4.2-6.1-4c-5.1,0.2-11.3,3-13.3,9s-1.1,8-1.1,8
			l0.8,1.3C2.7,23.5,3.4,19,3.9,17.6z"/>
		<g>
			<path class="st0" d="M7.6,4.1c-1.2,0.9-1.5,5.6,0.7,6.1c1.6,0.4,3.7-0.4,4.4-1.1c0.8-0.9,1.4-4.2,1-4.6C12.3,3.3,8.3,3.6,7.6,4.1
				z"/>
			<path class="st0" d="M7.8,3.8C6.7,4.7,6.8,6.9,9,7.5c1.6,0.4,3.7-0.4,4.4-1.1C14.1,5.5,14,3.7,12,3.2C10.3,2.8,8.5,3.3,7.8,3.8z"
				/>
			<path class="st0" d="M9.5,1.8C8.8,2.3,8.4,5.7,9.6,6c0.8,0.2,1.6-0.1,2-0.5C12,5.1,12.9,2.2,12.7,2C12,1.4,9.8,1.5,9.5,1.8z"/>
			<path class="st0" d="M9.6,1.6C9,2.1,9,3.3,10.2,3.6c0.8,0.2,2-0.2,2.3-0.6c0.4-0.5,0.4-1.4-0.7-1.7C10.9,1.1,9.9,1.3,9.6,1.6z"/>
			<path class="st0" d="M10.1,1.9C9.7,2.2,9.7,3,10.5,3.2C11,3.3,11.8,3,12,2.8c0.3-0.3,0.2-0.9-0.5-1.1C10.9,1.5,10.3,1.7,10.1,1.9
				z"/>
		</g>
		<g>
			<path class="st0" d="M15.3,2.5c-1,0.8-1.3,4.7,0.6,5.1c1.3,0.3,3.1-0.3,3.7-0.9c0.7-0.7,1.2-3.5,0.8-3.8
				C19.2,1.9,15.8,2.1,15.3,2.5z"/>
			<path class="st0" d="M15.4,2.3c-1,0.8-0.9,2.6,1,3.1C17.7,5.6,19.5,5,20,4.4c0.7-0.7,0.6-2.2-1.1-2.6C17.5,1.4,16,1.8,15.4,2.3z"
				/>
			<path class="st0" d="M16.8,0.6c-0.5,0.4-0.9,3.3,0.1,3.5c0.7,0.2,1.3-0.1,1.7-0.4c0.4-0.4,1.1-2.8,0.9-3
				C18.9,0.2,17.1,0.3,16.8,0.6z"/>
			<path class="st0" d="M16.9,0.4c-0.5,0.4-0.5,1.4,0.5,1.6c0.7,0.2,1.7-0.2,2-0.5c0.4-0.4,0.3-1.2-0.6-1.4C18,0,17.2,0.2,16.9,0.4z
				"/>
			<path class="st0" d="M17.3,0.6C17,0.9,17,1.5,17.6,1.7c0.5,0.1,1.1-0.1,1.3-0.3c0.2-0.3,0.2-0.8-0.4-0.9
				C18,0.3,17.5,0.5,17.3,0.6z"/>
		</g>
	</g>
	<path class="st0" d="M11.6,46.3c0,0,8.2-2,8.5-2.4c0.6-0.8,0.4-6.3,0.4-6.3l2.1-1.4c0,0,0.4,6.3-0.1,8.7c-0.4,1.6-9.7,2.8-9.7,2.8"
		/>
	<path class="st0" d="M12.1,46.2c-0.6-0.2-1.5-0.2-1.8-0.3c-0.2,0-2.4-1.1-2.8-1.1c-0.3-0.1-0.2,0.4,0.5,0.7c0.1,0,0.3,0.4,0.2,0.4
		c-0.6,0-1-0.1-1.1-0.1c-0.6,0-1.2,0-1.8,0.2C5.1,45.9,5,46,5,46.1c0,0.2,0.1,0.2,0.2,0.3c0.1,0,0.1,0,0.2,0c0.5,0,0.9,0,1.4,0
		c0,0,0,0,0.1,0C6.6,46.6,6.3,46.8,6,47c-0.1,0.1-0.2,0.2-0.4,0.3c-0.1,0.1-0.3,0.2-0.4,0.3c-0.2,0.1-0.2,0.2-0.1,0.3
		c0.1,0.1,0.2,0.2,0.4,0.1c0.1,0,0.1-0.1,0.2-0.1c0.4-0.2,0.7-0.4,1.1-0.6c0.1,0,0.2-0.1,0.3-0.1c0.2,0,0.3,0,0.5-0.1
		c0.1,0,0.2-0.1,0.3,0.1c-0.5,0.1-0.8,0.4-1.1,0.7c-0.2,0.2-0.3,0.3-0.5,0.5c-0.1,0.1-0.2,0.2-0.3,0.3C6,49,5.9,49.1,6,49.2
		c0.1,0.1,0.3,0.1,0.4,0c0.4-0.3,0.8-0.6,1.2-0.9c0.1,0,0.1-0.1,0.2-0.1c0.2-0.1,0.3-0.2,0.5-0.2c0.1,0,0.2,0,0.2,0c0,0,0,0,0,0.1
		c0,0-0.1,0.1-0.1,0.1c-0.2,0.1-0.3,0.2-0.4,0.4c0,0.1-0.1,0.1-0.2,0.2c-0.1,0.1-0.1,0.2-0.2,0.3c-0.1,0.1-0.1,0.2-0.2,0.3
		c-0.1,0.1-0.1,0.2,0,0.3c0.1,0.1,0.2,0.1,0.3,0c0.1-0.1,0.1-0.1,0.2-0.2c0.2-0.2,0.4-0.5,0.7-0.7c0.3-0.2,0.6-0.4,0.9-0.4
		c0.6-0.1,1.3,0.1,1.9,0c0.6-0.1,1-0.3,1.2-0.5"/>
	<path class="st0" d="M21,28.3C21,28.1,21,27.8,21,27.5c0-0.2,0-0.4-0.2-0.6c-0.2-0.1-0.3-0.1-0.5,0c0-0.2-0.1-0.3-0.3-0.4
		c-0.2,0-0.3,0-0.5,0.2c-0.1-0.2-0.2-0.4-0.4-0.4c-0.2,0-0.4,0.1-0.5,0.2c0,0,0,0,0,0l0.5-2.4c0,0,0.4-1-0.2-1.1
		c-0.6-0.1-1.3,4.2-1.3,4.2l0,0c-0.1,0.3-0.1,0.5-0.2,0.8c-0.3-0.2-0.5-0.4-0.8-0.5c-0.3-0.1-0.5-0.2-0.8-0.1
		c-0.1,0-0.2,0.2-0.2,0.3c0,0.1,0.1,0.1,0.2,0.1c0.2,0.1,0.3,0.2,0.5,0.3c0.1,0.1,0.2,0.3,0.4,0.4c0.4,0.4,0.7,1,1.2,1.3
		c0.1,0,0.2,0.1,0.2,0.2c0.3,0.2,0.4,0.5,0.4,0.9c0,0,0,0.1,0,0.2l0,0c-0.1,0.1-0.2,0.4-0.3,0.8c-0.5,1.2-4.3,10.9-4.9,11
		c-0.6,0.1-2.8-6.1-2.8-6.1l-3.7,0c0,0,3,10.1,6.2,10.1c3.1,0,6.5-12.7,7-14.2c0-0.1,0.8-1.7,0.9-1.8c0.2-0.3,0.2-0.7,0.3-1
		C21.3,29.4,21.2,28.8,21,28.3z"/>
	<path class="st0" d="M6.1,37.9c0,0-0.1-2.3,0.1-4.2c0.2-2,2.2-4.2,3.7-3.7c1.3,0.5,2.1,6.6,1.3,7.1C10,38,6.1,37.9,6.1,37.9z"/>
</g>
</svg>
