<?xml version="1.0" encoding="utf-8"?>
<!-- Generator: Adobe Illustrator 26.3.1, SVG Export Plug-In . SVG Version: 6.00 Build 0)  -->
<svg version="1.1" id="Слой_1" xmlns="http://www.w3.org/2000/svg" xmlns:xlink="http://www.w3.org/1999/xlink" x="0px" y="0px"
	 viewBox="0 0 145 145" style="enable-background:new 0 0 145 145;" xml:space="preserve">
<style type="text/css">
	.st0{fill:url(#SVGID_1_);}
	.st1{fill:#FFFFFF;}
</style>
<linearGradient id="SVGID_1_" gradientUnits="userSpaceOnUse" x1="141.706" y1="314.0813" x2="3.404" y2="44.913" gradientTransform="matrix(1 0 0 -1 0 251.89)">
	<stop  offset="0.2058" style="stop-color:#000000"/>
	<stop  offset="0.3698" style="stop-color:#541E7E"/>
	<stop  offset="0.4714" style="stop-color:#3F51D1"/>
	<stop  offset="0.6091" style="stop-color:#73AFE3"/>
	<stop  offset="0.8011" style="stop-color:#90D7FF"/>
</linearGradient>
<path class="st0" d="M0,40C0,17.9,17.9,0,40,0h65c22.1,0,40,17.9,40,40v65c0,22.1-17.9,40-40,40H40c-22.1,0-40-17.9-40-40V40z"/>
<path class="st1" d="M71.5,24.6c0.2-1.1,1.8-1.1,2,0l5.8,33c0.7,4.1,4,7.4,8.1,8.1l33,5.8c1.1,0.2,1.1,1.8,0,2l-33,5.8
	c-4.1,0.7-7.4,4-8.1,8.1l-5.8,33c-0.2,1.1-1.8,1.1-2,0l-5.8-33c-0.7-4.1-4-7.4-8.1-8.1l-33-5.8c-1.1-0.2-1.1-1.8,0-2l33-5.8
	c4.1-0.7,7.4-4,8.1-8.1L71.5,24.6z"/>
</svg>
